<svg xmlns="http://www.w3.org/2000/svg" viewBox="0 0 400 300" class="state-outline-svg">
  <path d="M 0.00 209.40 L 0.00 207.26 L 0.83 200.74 L 2.04 191.24 L 2.20 190.02 L 2.58 186.84 L 4.32 172.18 L 5.19 164.91 L 6.59 153.09 L 6.99 149.71 L 8.24 139.21 L 8.93 133.55 L 10.56 120.18 L 11.65 111.22 L 11.98 108.71 L 14.22 91.66 L 14.42 90.13 L 16.07 77.37 L 17.07 69.65 L 17.90 63.19 L 18.19 60.96 L 20.17 46.30 L 17.08 44.66 L 14.61 40.67 L 14.45 40.00 L 25.49 40.11 L 26.31 40.12 L 33.55 40.13 L 45.89 40.23 L 46.92 40.25 L 67.70 40.48 L 68.10 40.48 L 68.43 40.49 L 88.80 40.83 L 91.66 40.88 L 91.66 40.88 L 108.84 40.94 L 116.95 40.92 L 117.35 40.92 L 141.69 41.14 L 155.76 41.27 L 156.31 44.56 L 156.98 48.03 L 158.14 54.03 L 159.61 60.90 L 160.02 62.81 L 160.78 66.33 L 161.35 69.02 L 162.84 76.14 L 163.49 79.27 L 165.32 88.03 L 165.78 90.44 L 166.99 96.78 L 167.65 100.18 L 169.07 107.46 L 170.29 113.70 L 171.60 120.41 L 172.10 122.97 L 172.67 125.95 L 175.81 142.18 L 176.04 143.35 L 178.56 156.29 L 178.65 156.77 L 179.93 158.66 L 181.91 162.74 L 182.47 163.89 L 183.87 167.84 L 184.55 170.55 L 184.88 171.91 L 188.30 175.13 L 188.62 175.88 L 188.70 176.04 L 190.22 179.54 L 189.71 183.01 L 189.58 183.87 L 188.24 185.31 L 191.09 186.99 L 194.57 189.30 L 193.04 191.07 L 192.48 191.71 L 188.81 193.54 L 185.49 196.23 L 186.12 198.87 L 185.89 200.24 L 185.22 204.07 L 184.99 205.40 L 182.48 209.43 L 180.97 212.37 L 181.66 215.58 L 181.86 216.52 L 182.21 218.17 L 181.86 220.22 L 185.52 224.28 L 185.53 226.97 L 186.41 228.39 L 185.87 229.76 L 184.79 232.54 L 185.09 234.56 L 183.65 238.28 L 183.90 240.53 L 183.85 241.23 L 183.80 241.97 L 182.80 243.96 L 182.84 247.88 L 186.75 252.14 L 187.54 253.92 L 188.06 255.11 L 188.55 257.99 L 186.98 257.99 L 180.74 257.99 L 170.55 258.05 L 162.12 258.13 L 161.59 258.14 L 157.16 258.18 L 147.90 258.28 L 140.07 258.38 L 132.38 258.36 L 124.10 258.35 L 114.43 258.33 L 113.15 258.32 L 103.63 258.28 L 96.85 258.23 L 91.55 258.19 L 89.03 258.17 L 83.82 258.15 L 71.04 258.08 L 70.99 258.08 L 62.91 258.11 L 56.73 258.13 L 51.63 258.16 L 47.32 258.16 L 47.31 258.16 L 47.68 260.66 L 45.35 265.32 L 50.39 270.67 L 51.41 272.26 L 55.83 274.74 L 58.12 276.67 L 58.07 279.54 L 56.42 282.49 L 55.70 284.81 L 57.33 287.54 L 59.95 288.67 L 56.40 290.49 L 55.29 293.70 L 51.70 297.16 L 44.16 298.84 L 35.35 300.00 L 31.30 299.41 L 36.02 297.20 L 36.55 294.78 L 32.84 291.56 L 30.16 288.15 L 29.12 285.91 L 30.84 282.45 L 30.12 280.55 L 29.24 276.92 L 25.04 275.16 L 22.12 277.34 L 21.96 280.42 L 21.05 282.70 L 19.85 285.17 L 19.74 290.56 L 18.09 294.97 L 14.85 294.95 L 11.47 295.07 L 8.54 292.35 L 5.69 291.31 L 4.01 292.32 L 3.52 282.86 L 3.07 272.61 L 3.06 272.41 L 2.32 258.12 L 1.99 251.81 L 1.09 235.11 L 1.05 234.31 L 0.50 224.21 L 0.27 220.06 L 0.00 215.01 L 0.00 209.40 Z" fill="none" stroke="currentColor" stroke-width="2" opacity="0.8" class="state-boundary" transform="translate(82.72, -0.00)"/>
  <circle cx="173.35" cy="120.91" r="12.0" fill="currentColor" opacity="0.2" class="metro-pulse rank-1"/>
  <circle cx="173.35" cy="120.91" r="8.0" fill="currentColor" opacity="0.9" class="metro-dot rank-1" data-city="Birmingham" data-rank="1"/>
  <circle cx="185.12" cy="55.10" r="10.8" fill="currentColor" opacity="0.2" class="metro-pulse rank-2"/>
  <circle cx="185.12" cy="55.10" r="6.8" fill="currentColor" opacity="0.9" class="metro-dot rank-2" data-city="Huntsville" data-rank="2"/>
  <circle cx="106.04" cy="274.59" r="9.6" fill="currentColor" opacity="0.2" class="metro-pulse rank-3"/>
  <circle cx="106.04" cy="274.59" r="5.6" fill="currentColor" opacity="0.9" class="metro-dot rank-3" data-city="Mobile" data-rank="3"/>
  <circle cx="200.27" cy="183.00" r="8.4" fill="currentColor" opacity="0.2" class="metro-pulse rank-4"/>
  <circle cx="200.27" cy="183.00" r="4.4" fill="currentColor" opacity="0.9" class="metro-dot rank-4" data-city="Montgomery" data-rank="4"/>
</svg>