<svg xmlns="http://www.w3.org/2000/svg" viewBox="0 0 400 300" class="state-outline-svg">
  <path d="M 359.71 299.24 L 359.81 299.20 L 359.86 299.19 L 360.00 299.25 L 359.97 299.31 L 359.88 299.34 L 359.77 299.33 L 359.71 299.30 L 359.71 299.24 Z M 358.82 299.56 L 358.88 299.54 L 359.15 299.59 L 359.42 299.74 L 359.52 299.80 L 359.64 299.80 L 359.71 299.86 L 359.48 299.88 L 359.26 299.77 L 359.15 299.69 L 359.09 299.66 L 359.00 299.66 L 358.83 299.60 L 358.82 299.56 Z M 358.69 299.23 L 358.78 299.24 L 358.81 299.27 L 358.76 299.31 L 358.72 299.32 L 358.65 299.25 L 358.69 299.23 Z M 358.43 299.39 L 358.55 299.38 L 358.60 299.43 L 358.60 299.47 L 358.49 299.45 L 358.43 299.39 Z M 358.31 299.16 L 358.38 299.16 L 358.42 299.19 L 358.42 299.23 L 358.34 299.24 L 358.30 299.20 L 358.31 299.16 Z M 357.43 299.30 L 357.53 299.28 L 357.59 299.25 L 357.68 299.22 L 357.74 299.15 L 357.80 299.07 L 357.87 299.09 L 357.90 299.13 L 357.83 299.19 L 357.79 299.22 L 357.83 299.27 L 357.82 299.30 L 357.72 299.30 L 357.63 299.29 L 357.59 299.32 L 357.55 299.35 L 357.53 299.39 L 357.48 299.36 L 357.40 299.34 L 357.43 299.30 Z M 354.07 298.42 L 354.28 298.46 L 354.35 298.46 L 354.37 298.51 L 354.18 298.51 L 354.03 298.46 L 354.07 298.42 Z M 353.65 298.75 L 353.76 298.74 L 353.85 298.69 L 353.98 298.71 L 353.91 298.78 L 353.96 298.82 L 353.93 298.86 L 353.86 298.86 L 353.75 298.82 L 353.69 298.85 L 353.53 298.80 L 353.65 298.75 Z M 352.66 298.26 L 352.85 298.21 L 353.00 298.21 L 353.33 298.22 L 353.46 298.27 L 353.63 298.35 L 353.63 298.39 L 353.49 298.39 L 353.41 298.37 L 353.37 298.42 L 353.30 298.43 L 353.19 298.42 L 353.11 298.45 L 353.02 298.43 L 352.97 298.39 L 352.96 298.34 L 352.88 298.30 L 352.79 298.29 L 352.68 298.32 L 352.66 298.26 Z M 45.37 295.29 L 45.49 295.24 L 45.58 295.18 L 45.65 295.12 L 45.66 295.08 L 45.64 294.98 L 45.65 294.92 L 45.65 294.88 L 45.73 294.85 L 45.89 294.87 L 46.11 294.87 L 46.15 294.89 L 46.23 294.96 L 46.27 294.97 L 46.34 294.98 L 46.42 295.03 L 46.48 295.10 L 46.41 295.11 L 46.45 295.15 L 46.47 295.18 L 46.69 295.29 L 46.84 295.42 L 46.85 295.53 L 46.93 295.54 L 47.01 295.66 L 47.17 295.75 L 47.05 295.79 L 47.19 295.92 L 47.28 295.93 L 47.34 296.03 L 47.28 296.10 L 47.33 296.18 L 47.33 296.31 L 47.35 296.42 L 47.31 296.48 L 47.28 296.51 L 47.15 296.52 L 47.08 296.48 L 47.00 296.49 L 46.95 296.46 L 46.91 296.42 L 46.80 296.43 L 46.67 296.46 L 46.64 296.54 L 46.56 296.54 L 46.44 296.51 L 46.43 296.46 L 46.39 296.43 L 46.32 296.39 L 46.21 296.29 L 46.14 296.23 L 46.11 296.18 L 46.07 296.12 L 46.09 296.07 L 46.08 296.01 L 46.03 295.99 L 45.97 296.00 L 45.90 295.99 L 45.84 295.96 L 45.84 295.93 L 45.72 295.90 L 45.71 295.99 L 45.65 295.98 L 45.62 295.90 L 45.67 295.85 L 45.68 295.79 L 45.61 295.75 L 45.52 295.75 L 45.55 295.66 L 45.58 295.61 L 45.59 295.55 L 45.66 295.48 L 45.61 295.42 L 45.61 295.37 L 45.45 295.36 L 45.39 295.35 L 45.37 295.29 Z M 44.91 294.34 L 45.04 294.27 L 45.11 294.27 L 45.16 294.25 L 45.26 294.28 L 45.30 294.35 L 45.36 294.40 L 45.44 294.36 L 45.39 294.24 L 45.26 294.17 L 45.30 294.13 L 45.42 294.10 L 45.57 294.13 L 45.77 294.16 L 45.97 294.20 L 45.99 294.20 L 46.20 294.20 L 46.33 294.28 L 46.41 294.40 L 46.51 294.43 L 46.57 294.49 L 46.69 294.54 L 46.70 294.60 L 46.64 294.66 L 46.50 294.70 L 46.38 294.68 L 46.27 294.69 L 46.13 294.75 L 46.01 294.74 L 45.89 294.75 L 45.85 294.75 L 45.65 294.76 L 45.49 294.81 L 45.47 294.89 L 45.43 294.93 L 45.43 294.98 L 45.36 295.03 L 45.38 295.06 L 45.35 295.11 L 45.29 295.12 L 45.22 295.11 L 45.18 295.18 L 45.21 295.22 L 45.19 295.29 L 45.10 295.33 L 45.05 295.36 L 44.99 295.39 L 44.96 295.36 L 44.93 295.28 L 45.01 295.28 L 45.10 295.17 L 45.05 295.07 L 45.02 294.95 L 45.01 294.87 L 45.06 294.81 L 45.05 294.76 L 45.11 294.67 L 45.06 294.65 L 44.99 294.65 L 45.00 294.58 L 44.93 294.54 L 44.89 294.38 L 44.91 294.34 Z M 44.34 292.80 L 44.44 292.84 L 44.52 292.91 L 44.57 292.96 L 44.58 292.99 L 44.60 293.04 L 44.70 293.03 L 44.84 293.04 L 44.98 293.06 L 45.05 293.05 L 45.05 293.06 L 45.13 293.07 L 45.12 293.12 L 45.17 293.15 L 45.22 293.20 L 45.31 293.29 L 45.40 293.39 L 45.41 293.52 L 45.50 293.59 L 45.49 293.63 L 45.44 293.72 L 45.44 293.83 L 45.52 293.89 L 45.47 293.93 L 45.43 293.93 L 45.32 293.90 L 45.21 293.94 L 45.11 294.02 L 45.00 294.07 L 44.93 294.09 L 44.92 294.12 L 44.86 294.14 L 44.81 294.17 L 44.74 294.18 L 44.67 294.09 L 44.66 293.96 L 44.75 293.79 L 44.70 293.69 L 44.61 293.52 L 44.60 293.42 L 44.55 293.26 L 44.52 293.12 L 44.44 293.02 L 44.35 292.88 L 44.34 292.80 Z M 42.74 293.16 L 42.76 293.11 L 42.85 293.09 L 42.93 293.05 L 42.91 292.95 L 43.01 292.95 L 43.12 292.93 L 43.27 292.92 L 43.42 292.94 L 43.52 292.91 L 43.59 292.97 L 43.80 293.03 L 44.03 293.10 L 44.19 293.11 L 44.35 293.16 L 44.38 293.28 L 44.30 293.32 L 44.35 293.42 L 44.36 293.44 L 44.48 293.70 L 44.48 293.83 L 44.45 293.94 L 44.57 294.23 L 44.61 294.30 L 44.64 294.40 L 44.68 294.49 L 44.69 294.57 L 44.68 294.65 L 44.63 294.68 L 44.66 294.76 L 44.67 294.86 L 44.67 294.94 L 44.65 295.01 L 44.63 295.04 L 44.54 294.99 L 44.49 294.96 L 44.46 294.90 L 44.39 294.84 L 44.33 294.77 L 44.25 294.67 L 44.18 294.60 L 44.13 294.53 L 44.09 294.54 L 44.00 294.48 L 43.94 294.44 L 43.84 294.43 L 43.75 294.36 L 43.80 294.34 L 43.83 294.31 L 43.86 294.26 L 43.95 294.18 L 43.84 294.13 L 43.73 294.10 L 43.70 294.16 L 43.66 294.19 L 43.48 294.21 L 43.45 294.21 L 43.46 294.12 L 43.55 294.08 L 43.55 294.04 L 43.47 294.03 L 43.43 293.98 L 43.46 293.92 L 43.44 293.88 L 43.41 293.79 L 43.36 293.74 L 43.25 293.69 L 43.21 293.65 L 43.14 293.64 L 43.06 293.58 L 43.05 293.52 L 43.00 293.43 L 42.93 293.37 L 42.93 293.37 L 42.84 293.35 L 42.82 293.30 L 42.73 293.27 L 42.74 293.16 Z M 27.19 290.78 L 27.30 290.68 L 27.42 290.71 L 27.36 290.75 L 27.30 290.83 L 27.17 290.85 L 27.19 290.78 Z M 25.65 291.81 L 25.76 291.78 L 25.84 291.78 L 25.90 291.82 L 25.86 291.87 L 25.73 291.88 L 25.70 291.86 L 25.65 291.81 Z M 24.47 293.84 L 24.55 293.76 L 24.63 293.69 L 24.72 293.62 L 24.84 293.60 L 24.95 293.56 L 25.05 293.54 L 25.25 293.54 L 25.32 293.50 L 25.31 293.39 L 25.47 293.32 L 25.53 293.31 L 25.60 293.32 L 25.74 293.29 L 25.72 293.26 L 25.76 293.22 L 25.86 293.26 L 25.95 293.21 L 25.88 293.16 L 25.83 293.14 L 25.89 293.09 L 25.93 293.06 L 26.03 293.04 L 26.05 292.99 L 26.15 292.94 L 26.21 292.89 L 26.33 292.86 L 26.37 292.80 L 26.46 292.79 L 26.52 292.74 L 26.61 292.73 L 26.59 292.65 L 26.64 292.60 L 26.69 292.58 L 26.80 292.58 L 26.90 292.56 L 26.92 292.61 L 26.87 292.68 L 26.79 292.72 L 26.74 292.77 L 26.75 292.83 L 26.82 292.84 L 26.87 292.84 L 26.91 292.81 L 26.90 292.78 L 26.95 292.77 L 27.03 292.82 L 27.12 292.80 L 27.16 292.83 L 27.27 292.85 L 27.44 292.94 L 27.46 292.99 L 27.39 293.03 L 27.22 293.02 L 27.14 293.05 L 26.99 293.06 L 26.88 293.08 L 26.77 293.07 L 26.72 293.11 L 26.60 293.14 L 26.48 293.17 L 26.53 293.21 L 26.50 293.27 L 26.45 293.30 L 26.46 293.34 L 26.50 293.37 L 26.57 293.32 L 26.62 293.28 L 26.73 293.29 L 26.82 293.22 L 26.83 293.25 L 26.93 293.28 L 26.90 293.37 L 27.04 293.41 L 26.95 293.45 L 26.81 293.47 L 26.87 293.53 L 26.94 293.56 L 27.09 293.58 L 27.09 293.61 L 26.99 293.67 L 26.93 293.73 L 27.00 293.82 L 26.93 293.86 L 26.78 293.77 L 26.68 293.75 L 26.65 293.82 L 26.62 293.88 L 26.56 293.92 L 26.43 293.94 L 26.31 293.95 L 26.30 294.02 L 26.37 294.04 L 26.35 294.07 L 26.19 294.10 L 26.05 294.16 L 25.98 294.20 L 25.91 294.22 L 25.85 294.12 L 25.76 294.12 L 25.67 294.15 L 25.71 294.21 L 25.71 294.32 L 25.65 294.32 L 25.55 294.35 L 25.47 294.37 L 25.41 294.38 L 25.35 294.43 L 25.28 294.46 L 25.23 294.51 L 25.09 294.52 L 25.12 294.46 L 24.94 294.36 L 24.93 294.28 L 24.84 294.23 L 24.72 294.20 L 24.72 294.07 L 24.65 293.95 L 24.55 293.92 L 24.45 293.91 L 24.47 293.84 Z M 24.41 294.78 L 24.54 294.68 L 24.73 294.60 L 25.04 294.59 L 25.15 294.59 L 25.22 294.63 L 25.37 294.64 L 25.36 294.67 L 25.23 294.72 L 24.98 294.71 L 24.72 294.70 L 24.62 294.73 L 24.50 294.80 L 24.41 294.78 Z M 23.49 295.38 L 23.55 295.34 L 23.64 295.28 L 23.71 295.29 L 23.69 295.36 L 23.68 295.42 L 23.65 295.44 L 23.52 295.43 L 23.49 295.38 Z M 22.51 295.13 L 22.56 295.11 L 22.63 295.14 L 22.62 295.19 L 22.56 295.21 L 22.50 295.18 L 22.51 295.13 Z M 21.95 294.64 L 22.07 294.61 L 22.15 294.62 L 22.26 294.66 L 22.19 294.68 L 22.07 294.67 L 21.91 294.68 L 21.95 294.64 Z M 18.98 296.30 L 19.04 296.17 L 19.04 296.09 L 19.09 296.04 L 19.21 296.00 L 19.36 295.92 L 19.39 295.96 L 19.41 296.03 L 19.56 296.03 L 19.71 295.95 L 19.74 296.02 L 19.89 296.16 L 20.03 296.29 L 19.96 296.34 L 19.92 296.34 L 19.78 296.27 L 19.73 296.18 L 19.60 296.17 L 19.48 296.14 L 19.42 296.18 L 19.20 296.19 L 19.13 296.25 L 19.00 296.35 L 18.98 296.30 Z M 18.37 295.89 L 18.42 295.84 L 18.54 295.81 L 18.71 295.83 L 18.90 295.77 L 18.97 295.74 L 19.09 295.76 L 19.08 295.83 L 18.92 295.90 L 18.89 295.96 L 18.76 295.92 L 18.70 295.95 L 18.74 296.03 L 18.70 296.08 L 18.57 296.05 L 18.49 296.06 L 18.41 296.09 L 18.39 296.00 L 18.37 295.89 Z M 18.15 292.56 L 18.17 292.50 L 18.31 292.45 L 18.53 292.38 L 18.55 292.42 L 18.35 292.62 L 18.27 292.64 L 18.15 292.65 L 18.15 292.56 Z M 17.80 295.99 L 17.87 295.99 L 17.90 295.99 L 17.88 296.05 L 17.77 296.03 L 17.80 295.99 Z M 17.53 295.96 L 17.70 295.94 L 17.67 296.00 L 17.53 296.01 L 17.53 295.96 Z M 16.38 296.70 L 16.64 296.76 L 16.88 296.81 L 16.83 296.84 L 16.76 296.87 L 16.61 296.84 L 16.46 296.84 L 16.36 296.79 L 16.38 296.70 Z M 13.61 297.17 L 13.75 297.13 L 13.93 297.10 L 14.07 297.08 L 14.21 297.08 L 14.33 297.01 L 14.39 296.99 L 14.45 296.99 L 14.40 297.05 L 14.26 297.15 L 14.13 297.14 L 13.93 297.17 L 13.66 297.19 L 13.61 297.17 Z M 13.15 297.03 L 13.25 296.99 L 13.35 297.00 L 13.59 296.91 L 13.74 296.92 L 13.83 297.01 L 13.66 297.10 L 13.43 297.14 L 13.34 297.18 L 13.31 297.15 L 13.17 297.17 L 13.10 297.09 L 13.15 297.03 Z M 11.78 291.00 L 11.89 290.96 L 12.10 290.96 L 12.27 290.98 L 12.37 290.98 L 12.40 290.94 L 12.37 290.92 L 12.50 290.87 L 12.59 290.87 L 12.66 290.83 L 12.72 290.80 L 12.84 290.84 L 12.97 290.80 L 13.06 290.76 L 13.11 290.83 L 13.18 290.87 L 13.33 290.85 L 13.53 290.90 L 13.49 290.96 L 13.53 291.00 L 13.49 291.03 L 13.55 291.07 L 13.50 291.13 L 13.58 291.17 L 13.68 291.24 L 13.63 291.29 L 13.51 291.31 L 13.44 291.29 L 13.36 291.32 L 13.23 291.32 L 13.13 291.35 L 13.13 291.42 L 13.02 291.44 L 12.94 291.38 L 12.85 291.36 L 12.70 291.35 L 12.55 291.32 L 12.42 291.28 L 12.27 291.23 L 12.14 291.21 L 11.98 291.15 L 11.88 291.13 L 11.87 291.07 L 11.78 291.00 Z M 11.42 297.88 L 11.51 297.83 L 11.62 297.82 L 11.75 297.77 L 11.84 297.76 L 11.93 297.73 L 12.02 297.69 L 12.07 297.66 L 12.05 297.61 L 12.10 297.58 L 12.14 297.55 L 12.17 297.50 L 12.20 297.46 L 12.11 297.41 L 12.07 297.39 L 12.07 297.35 L 12.18 297.27 L 12.33 297.22 L 12.47 297.20 L 12.57 297.20 L 12.62 297.25 L 12.70 297.29 L 12.77 297.26 L 12.85 297.21 L 12.95 297.23 L 12.99 297.23 L 13.04 297.21 L 13.14 297.24 L 13.05 297.28 L 13.00 297.30 L 12.96 297.34 L 12.89 297.34 L 12.81 297.40 L 12.88 297.43 L 13.01 297.38 L 13.10 297.36 L 13.12 297.39 L 13.07 297.48 L 12.97 297.50 L 12.89 297.54 L 12.77 297.57 L 12.70 297.63 L 12.63 297.68 L 12.55 297.73 L 12.46 297.77 L 12.33 297.78 L 12.22 297.78 L 12.13 297.79 L 12.04 297.80 L 11.92 297.85 L 11.90 297.88 L 11.79 297.88 L 11.72 297.94 L 11.67 297.94 L 11.59 297.96 L 11.46 297.94 L 11.36 297.91 L 11.42 297.88 Z M 11.08 285.52 L 11.23 285.45 L 11.56 285.38 L 11.93 285.28 L 12.44 285.11 L 13.17 284.91 L 13.81 284.75 L 14.40 284.65 L 14.82 284.59 L 14.82 284.59 L 15.40 284.58 L 15.62 284.62 L 15.49 284.68 L 15.42 284.74 L 15.35 284.79 L 15.37 284.87 L 15.38 284.92 L 15.29 284.95 L 15.30 284.99 L 15.42 285.08 L 15.52 285.12 L 15.72 285.09 L 15.85 285.09 L 16.07 285.12 L 16.22 285.10 L 16.47 285.09 L 16.60 285.14 L 16.80 285.13 L 16.89 285.15 L 17.09 285.10 L 17.39 285.15 L 17.45 285.10 L 17.61 285.00 L 17.68 284.94 L 17.74 284.91 L 17.89 284.92 L 17.91 284.95 L 18.03 284.96 L 18.23 284.94 L 18.14 284.86 L 17.90 284.81 L 17.65 284.78 L 17.53 284.78 L 17.31 284.83 L 17.36 284.72 L 17.35 284.66 L 17.12 284.55 L 17.05 284.49 L 16.87 284.45 L 16.72 284.43 L 16.60 284.31 L 16.64 284.27 L 16.76 284.22 L 16.75 284.19 L 16.59 284.18 L 16.38 284.18 L 16.21 284.14 L 15.92 284.11 L 15.63 284.08 L 15.52 284.06 L 15.48 283.96 L 15.34 283.76 L 15.17 283.61 L 14.96 283.52 L 14.68 283.45 L 14.12 283.24 L 13.86 283.14 L 13.82 283.14 L 13.53 283.08 L 13.34 283.06 L 13.24 283.03 L 13.12 282.95 L 12.90 282.88 L 12.61 282.84 L 12.37 282.83 L 12.62 282.76 L 12.88 282.73 L 12.93 282.65 L 12.98 282.56 L 13.02 282.44 L 12.99 282.29 L 13.29 282.30 L 13.69 282.31 L 14.25 282.29 L 14.69 282.25 L 14.96 282.24 L 15.29 282.17 L 15.65 282.04 L 15.98 281.86 L 16.07 281.74 L 16.07 281.55 L 16.15 281.43 L 16.23 281.34 L 16.43 281.24 L 16.72 281.06 L 16.92 280.96 L 17.35 280.83 L 17.64 280.86 L 17.94 280.87 L 18.42 280.79 L 19.01 280.60 L 19.36 280.46 L 19.58 280.37 L 20.06 280.29 L 20.12 280.35 L 20.38 280.37 L 20.66 280.37 L 20.87 280.34 L 21.20 280.33 L 21.47 280.29 L 21.82 280.19 L 22.06 280.07 L 22.33 279.92 L 22.43 279.87 L 22.67 279.81 L 22.71 279.86 L 22.93 279.90 L 23.17 279.92 L 23.20 279.98 L 23.35 279.97 L 23.66 279.99 L 23.72 280.06 L 23.71 280.09 L 23.54 280.14 L 23.48 280.18 L 23.29 280.20 L 23.26 280.24 L 23.32 280.31 L 23.51 280.33 L 23.70 280.32 L 23.76 280.28 L 23.73 280.22 L 23.88 280.17 L 23.98 280.08 L 24.18 280.02 L 24.30 280.04 L 24.67 280.15 L 24.64 280.22 L 24.67 280.34 L 24.82 280.33 L 24.96 280.34 L 25.12 280.38 L 25.36 280.28 L 25.58 280.28 L 25.82 280.27 L 26.01 280.24 L 26.20 280.25 L 26.35 280.28 L 26.55 280.28 L 26.83 280.30 L 27.03 280.34 L 27.06 280.37 L 26.90 280.42 L 26.90 280.46 L 26.78 280.48 L 26.82 280.55 L 26.96 280.56 L 27.17 280.58 L 27.28 280.60 L 27.56 280.62 L 27.52 280.66 L 27.51 280.73 L 27.75 280.73 L 27.96 280.76 L 28.08 280.79 L 28.24 280.73 L 28.35 280.70 L 28.47 280.70 L 28.70 280.68 L 28.84 280.70 L 28.96 280.75 L 29.19 280.72 L 29.39 280.65 L 29.52 280.67 L 29.80 280.65 L 30.08 280.68 L 30.33 280.74 L 30.60 280.73 L 30.79 280.80 L 30.80 280.85 L 30.91 280.86 L 31.06 280.82 L 31.30 280.85 L 31.40 280.87 L 31.50 280.94 L 31.84 280.98 L 32.03 280.96 L 32.11 281.01 L 32.28 281.02 L 32.38 280.98 L 32.76 280.98 L 33.14 281.01 L 33.27 281.02 L 33.41 281.00 L 33.65 281.08 L 33.84 281.13 L 34.10 281.17 L 34.37 281.20 L 34.48 281.19 L 34.60 281.20 L 34.82 281.13 L 35.00 281.12 L 35.36 281.05 L 35.76 281.03 L 35.85 281.04 L 36.00 281.01 L 36.28 281.08 L 36.53 281.12 L 36.83 281.21 L 36.88 281.25 L 37.04 281.27 L 37.27 281.33 L 37.57 281.38 L 37.85 281.47 L 38.08 281.48 L 38.28 281.52 L 38.28 282.67 L 38.28 285.34 L 38.28 285.34 L 38.28 289.28 L 38.28 290.80 L 38.28 290.89 L 38.75 290.97 L 38.82 290.88 L 39.30 291.01 L 39.59 290.85 L 40.21 290.84 L 40.21 290.87 L 40.09 291.10 L 40.25 291.20 L 40.59 291.28 L 40.65 291.40 L 40.71 291.44 L 41.69 291.95 L 41.80 292.21 L 41.77 292.29 L 41.77 292.29 L 41.85 292.29 L 42.03 292.19 L 42.43 292.06 L 42.47 292.04 L 42.72 292.03 L 42.81 291.94 L 42.83 291.91 L 42.83 291.73 L 42.94 291.75 L 43.07 291.67 L 43.06 291.64 L 42.95 291.60 L 43.11 291.56 L 43.36 291.53 L 43.58 291.46 L 43.82 291.40 L 44.07 291.50 L 44.09 291.53 L 44.19 291.57 L 44.28 291.63 L 44.28 291.72 L 44.24 291.77 L 44.29 291.81 L 44.27 291.85 L 44.27 291.85 L 44.34 291.92 L 44.60 291.95 L 44.64 292.02 L 44.74 292.07 L 44.82 292.07 L 44.93 292.16 L 44.90 292.22 L 44.98 292.23 L 44.98 292.23 L 44.98 292.28 L 45.06 292.34 L 45.47 292.47 L 45.61 292.59 L 45.93 292.77 L 45.85 292.81 L 45.96 292.93 L 46.13 293.05 L 46.13 293.05 L 46.23 293.20 L 46.44 293.36 L 46.55 293.50 L 46.66 293.60 L 46.75 293.70 L 46.94 293.85 L 47.06 293.99 L 46.94 294.11 L 47.26 294.15 L 47.19 294.31 L 47.19 294.33 L 47.44 294.40 L 47.41 294.45 L 47.48 294.60 L 47.73 294.59 L 47.85 294.66 L 48.15 294.76 L 48.23 294.80 L 48.23 294.80 L 48.51 294.83 L 48.58 294.86 L 48.69 294.94 L 48.85 294.97 L 48.89 295.06 L 48.97 295.08 L 49.07 295.11 L 49.07 295.11 L 49.22 295.09 L 49.31 295.21 L 49.31 295.29 L 49.23 295.38 L 49.19 295.40 L 49.18 295.44 L 49.17 295.48 L 49.21 295.52 L 49.20 295.64 L 49.23 295.72 L 49.28 295.78 L 49.29 295.87 L 49.34 295.91 L 49.32 295.94 L 49.21 296.02 L 49.15 296.10 L 49.10 296.18 L 48.98 296.29 L 48.79 296.40 L 48.68 296.43 L 48.69 296.47 L 48.63 296.49 L 48.58 296.46 L 48.52 296.42 L 48.47 296.44 L 48.45 296.44 L 48.38 296.40 L 48.37 296.32 L 48.36 296.28 L 48.34 296.23 L 48.30 296.21 L 48.32 296.16 L 48.30 296.12 L 48.26 296.09 L 48.23 296.05 L 48.22 296.02 L 48.15 296.01 L 48.12 296.10 L 48.12 296.17 L 48.07 296.22 L 48.07 296.27 L 48.12 296.29 L 48.06 296.34 L 47.99 296.35 L 47.88 296.31 L 47.82 296.28 L 47.72 296.28 L 47.69 296.26 L 47.70 296.23 L 47.71 296.20 L 47.67 296.17 L 47.72 296.12 L 47.71 296.10 L 47.63 296.09 L 47.56 296.08 L 47.48 296.01 L 47.45 295.92 L 47.46 295.79 L 47.47 295.75 L 47.34 295.71 L 47.20 295.66 L 47.13 295.62 L 47.11 295.57 L 47.09 295.50 L 47.05 295.44 L 47.18 295.39 L 47.24 295.33 L 47.14 295.29 L 47.03 295.28 L 46.99 295.35 L 46.91 295.33 L 46.86 295.25 L 46.82 295.14 L 46.72 295.18 L 46.60 295.09 L 46.59 294.99 L 46.47 294.97 L 46.43 294.96 L 46.38 294.94 L 46.35 294.91 L 46.28 294.89 L 46.24 294.87 L 46.24 294.86 L 46.25 294.85 L 46.33 294.76 L 46.41 294.75 L 46.52 294.76 L 46.68 294.74 L 46.78 294.68 L 46.86 294.64 L 46.78 294.57 L 46.77 294.50 L 46.77 294.49 L 46.75 294.45 L 46.52 294.35 L 46.42 294.21 L 46.37 294.15 L 46.15 294.12 L 46.06 294.07 L 45.99 294.09 L 45.84 294.04 L 45.76 293.96 L 45.82 293.90 L 45.84 293.83 L 45.79 293.73 L 45.79 293.67 L 45.69 293.62 L 45.63 293.58 L 45.65 293.49 L 45.60 293.41 L 45.60 293.41 L 45.46 293.26 L 45.26 293.14 L 45.23 293.05 L 45.16 293.00 L 45.07 293.00 L 44.93 292.99 L 44.84 292.97 L 44.67 292.95 L 44.55 292.81 L 44.37 292.74 L 44.24 292.75 L 44.20 292.75 L 44.24 292.82 L 44.25 292.89 L 44.20 292.91 L 44.22 293.00 L 44.08 292.96 L 44.00 292.96 L 43.89 292.86 L 43.85 292.86 L 43.76 292.87 L 43.65 292.87 L 43.57 292.80 L 43.38 292.82 L 43.26 292.82 L 43.19 292.86 L 43.03 292.88 L 42.86 292.90 L 42.75 292.88 L 42.72 292.92 L 42.73 292.95 L 42.71 292.98 L 42.60 292.98 L 42.58 292.93 L 42.44 292.88 L 42.39 292.83 L 42.31 292.79 L 42.22 292.80 L 42.06 292.75 L 41.94 292.71 L 41.73 292.61 L 41.64 292.59 L 41.61 292.54 L 41.46 292.46 L 41.35 292.40 L 41.36 292.39 L 41.37 292.35 L 41.34 292.31 L 41.23 292.24 L 41.07 292.16 L 40.94 292.13 L 40.66 292.07 L 40.49 291.99 L 40.37 291.95 L 40.22 291.91 L 40.02 291.86 L 39.87 291.82 L 39.66 291.74 L 39.43 291.65 L 39.55 291.57 L 39.70 291.55 L 39.70 291.49 L 39.68 291.37 L 39.51 291.36 L 39.42 291.39 L 39.21 291.44 L 39.11 291.46 L 39.05 291.51 L 38.88 291.50 L 38.49 291.47 L 38.36 291.44 L 38.13 291.38 L 37.89 291.32 L 37.80 291.27 L 37.69 291.23 L 37.55 291.23 L 37.37 291.18 L 37.22 291.17 L 36.86 291.12 L 36.54 291.10 L 36.37 291.10 L 36.21 291.13 L 36.01 291.14 L 35.65 291.16 L 35.50 291.18 L 35.38 291.21 L 35.38 291.21 L 35.27 291.18 L 35.22 291.15 L 35.17 291.09 L 35.09 291.08 L 34.93 291.10 L 34.85 291.05 L 34.72 291.02 L 34.62 290.99 L 34.35 290.97 L 34.32 290.91 L 34.19 290.87 L 34.14 290.90 L 34.02 290.88 L 33.89 290.84 L 33.76 290.87 L 33.63 290.89 L 33.44 290.84 L 33.28 290.81 L 33.18 290.83 L 33.07 290.84 L 33.04 290.85 L 32.88 290.87 L 32.78 290.90 L 32.66 290.95 L 32.62 290.95 L 32.58 290.91 L 32.35 290.90 L 32.28 290.95 L 32.12 291.02 L 32.01 291.09 L 31.89 291.18 L 31.93 291.23 L 31.82 291.24 L 31.80 291.29 L 31.88 291.32 L 31.76 291.35 L 31.62 291.38 L 31.50 291.40 L 31.39 291.43 L 31.34 291.41 L 31.35 291.36 L 31.41 291.32 L 31.31 291.23 L 31.16 291.24 L 31.01 291.26 L 31.04 291.22 L 30.95 291.16 L 30.86 291.22 L 30.79 291.26 L 30.63 291.28 L 30.61 291.27 L 30.57 291.25 L 30.46 291.24 L 30.40 291.27 L 30.33 291.24 L 30.23 291.25 L 30.14 291.23 L 30.04 291.26 L 29.99 291.32 L 29.88 291.36 L 29.79 291.29 L 29.69 291.34 L 29.67 291.40 L 29.75 291.42 L 29.73 291.49 L 29.63 291.46 L 29.53 291.49 L 29.51 291.56 L 29.42 291.49 L 29.34 291.50 L 29.26 291.56 L 29.13 291.64 L 28.98 291.73 L 28.96 291.77 L 28.90 291.80 L 28.87 291.85 L 28.83 291.85 L 28.78 291.77 L 28.76 291.74 L 28.68 291.75 L 28.65 291.81 L 28.58 291.89 L 28.54 291.90 L 28.43 291.87 L 28.34 291.89 L 28.37 291.93 L 28.31 291.96 L 28.26 291.97 L 28.13 291.99 L 27.97 291.98 L 27.91 291.97 L 27.78 291.95 L 27.82 292.06 L 27.59 292.11 L 27.40 292.05 L 27.34 291.97 L 27.27 291.92 L 27.29 291.85 L 27.37 291.77 L 27.51 291.73 L 27.74 291.67 L 27.93 291.62 L 28.05 291.56 L 27.96 291.50 L 27.81 291.55 L 27.61 291.55 L 27.51 291.51 L 27.38 291.43 L 27.44 291.35 L 27.50 291.28 L 27.54 291.18 L 27.65 291.09 L 27.83 290.98 L 27.87 290.90 L 27.89 290.82 L 27.95 290.81 L 27.97 290.70 L 27.95 290.63 L 27.91 290.56 L 27.85 290.48 L 27.89 290.46 L 27.99 290.42 L 28.19 290.40 L 28.36 290.34 L 28.55 290.25 L 28.76 290.18 L 28.86 290.15 L 28.92 290.17 L 29.07 290.29 L 29.15 290.30 L 29.27 290.31 L 29.36 290.25 L 29.41 290.22 L 29.51 290.19 L 29.54 290.18 L 29.43 290.11 L 29.25 290.05 L 29.19 290.04 L 28.99 290.06 L 29.03 290.03 L 29.04 290.00 L 29.05 289.93 L 28.83 289.94 L 28.72 289.92 L 28.58 289.92 L 28.43 289.96 L 28.32 289.98 L 28.28 290.00 L 28.21 290.03 L 28.13 290.11 L 28.09 290.14 L 28.00 290.15 L 27.91 290.18 L 27.78 290.18 L 27.65 290.23 L 27.53 290.29 L 27.45 290.34 L 27.48 290.38 L 27.55 290.46 L 27.54 290.48 L 27.36 290.47 L 27.21 290.53 L 27.12 290.61 L 26.99 290.65 L 26.92 290.72 L 26.95 290.78 L 27.02 290.80 L 26.88 290.85 L 26.84 290.91 L 26.71 290.95 L 26.68 290.99 L 26.67 291.02 L 26.70 291.08 L 26.68 291.15 L 26.57 291.23 L 26.55 291.27 L 26.39 291.32 L 26.28 291.31 L 26.24 291.36 L 26.23 291.44 L 26.20 291.50 L 26.10 291.54 L 26.01 291.56 L 25.94 291.57 L 25.84 291.56 L 25.71 291.56 L 25.70 291.60 L 25.67 291.64 L 25.56 291.64 L 25.49 291.65 L 25.55 291.73 L 25.50 291.77 L 25.39 291.77 L 25.32 291.79 L 25.25 291.81 L 25.22 291.87 L 25.12 291.91 L 25.11 291.98 L 25.07 292.02 L 25.07 292.07 L 25.18 292.12 L 25.32 292.13 L 25.45 292.13 L 25.55 292.12 L 25.65 292.20 L 25.77 292.20 L 25.86 292.25 L 25.93 292.29 L 25.98 292.33 L 25.96 292.34 L 25.88 292.38 L 25.85 292.46 L 25.80 292.49 L 25.70 292.51 L 25.66 292.56 L 25.52 292.59 L 25.40 292.59 L 25.34 292.64 L 25.32 292.70 L 25.25 292.71 L 25.18 292.76 L 25.26 292.81 L 25.17 292.85 L 25.14 292.92 L 25.10 292.99 L 25.02 293.07 L 24.91 293.11 L 24.77 293.15 L 24.66 293.18 L 24.48 293.20 L 24.37 293.17 L 24.22 293.20 L 24.13 293.25 L 24.18 293.30 L 24.15 293.34 L 23.97 293.38 L 23.96 293.44 L 23.89 293.49 L 23.74 293.44 L 23.63 293.42 L 23.63 293.51 L 23.61 293.54 L 23.52 293.57 L 23.51 293.65 L 23.33 293.67 L 23.20 293.68 L 23.23 293.75 L 23.15 293.76 L 23.02 293.76 L 22.88 293.80 L 22.90 293.87 L 22.90 293.95 L 22.91 294.02 L 22.90 294.02 L 22.80 294.08 L 22.76 294.13 L 22.69 294.22 L 22.60 294.21 L 22.54 294.22 L 22.41 294.31 L 22.30 294.28 L 22.20 294.32 L 22.17 294.37 L 22.06 294.43 L 21.95 294.40 L 21.83 294.43 L 21.71 294.45 L 21.67 294.50 L 21.79 294.56 L 21.74 294.59 L 21.63 294.58 L 21.56 294.59 L 21.52 294.55 L 21.45 294.53 L 21.32 294.56 L 21.37 294.64 L 21.42 294.69 L 21.37 294.75 L 21.26 294.73 L 21.11 294.74 L 20.99 294.74 L 20.95 294.72 L 20.86 294.74 L 20.80 294.78 L 20.75 294.86 L 20.82 294.87 L 20.95 294.89 L 21.03 294.91 L 21.12 294.97 L 20.95 295.03 L 20.86 295.07 L 20.84 295.14 L 20.80 295.21 L 20.72 295.23 L 20.60 295.21 L 20.58 295.25 L 20.49 295.25 L 20.34 295.25 L 20.14 295.29 L 20.15 295.37 L 19.84 295.49 L 19.70 295.53 L 19.67 295.57 L 19.66 295.58 L 19.53 295.63 L 19.50 295.64 L 19.47 295.59 L 19.55 295.55 L 19.56 295.46 L 19.60 295.40 L 19.55 295.37 L 19.46 295.35 L 19.38 295.40 L 19.29 295.40 L 19.20 295.41 L 19.17 295.48 L 19.10 295.53 L 18.95 295.57 L 18.84 295.60 L 18.76 295.67 L 18.77 295.70 L 18.71 295.73 L 18.57 295.69 L 18.56 295.75 L 18.45 295.76 L 18.39 295.73 L 18.25 295.73 L 18.15 295.80 L 17.97 295.85 L 17.74 295.85 L 17.71 295.82 L 17.75 295.77 L 17.76 295.71 L 17.85 295.64 L 17.83 295.58 L 17.74 295.57 L 17.64 295.59 L 17.57 295.65 L 17.53 295.69 L 17.54 295.80 L 17.45 295.88 L 17.36 295.94 L 17.41 296.03 L 17.51 296.05 L 17.65 296.10 L 17.68 296.14 L 17.54 296.13 L 17.43 296.16 L 17.32 296.11 L 17.27 296.10 L 17.17 296.13 L 17.11 296.11 L 17.03 296.14 L 17.00 296.18 L 16.99 296.25 L 16.99 296.33 L 16.94 296.37 L 16.87 296.37 L 16.80 296.31 L 16.79 296.28 L 16.81 296.17 L 16.75 296.16 L 16.65 296.20 L 16.63 296.24 L 16.51 296.25 L 16.39 296.28 L 16.31 296.26 L 16.26 296.22 L 16.16 296.28 L 16.07 296.32 L 15.97 296.37 L 15.87 296.40 L 15.94 296.43 L 16.04 296.43 L 16.15 296.50 L 16.18 296.56 L 16.00 296.53 L 15.83 296.55 L 15.65 296.59 L 15.42 296.57 L 15.18 296.59 L 14.96 296.64 L 14.88 296.69 L 14.86 296.75 L 14.76 296.79 L 14.58 296.82 L 14.47 296.82 L 14.35 296.78 L 14.31 296.71 L 14.27 296.68 L 14.27 296.63 L 14.35 296.59 L 14.47 296.56 L 14.54 296.51 L 14.64 296.38 L 14.64 296.31 L 14.78 296.28 L 14.87 296.31 L 15.01 296.28 L 15.10 296.24 L 15.22 296.23 L 15.32 296.17 L 15.45 296.15 L 15.69 296.17 L 15.79 296.25 L 15.88 296.23 L 15.94 296.18 L 15.91 296.08 L 16.09 296.03 L 16.19 296.04 L 16.36 296.01 L 16.32 295.96 L 16.41 295.91 L 16.58 295.82 L 16.66 295.74 L 16.86 295.60 L 17.00 295.50 L 17.10 295.46 L 17.17 295.42 L 17.33 295.37 L 17.42 295.31 L 17.51 295.30 L 17.78 295.25 L 18.07 295.19 L 18.26 295.18 L 18.42 295.18 L 18.42 295.26 L 18.43 295.32 L 18.66 295.34 L 18.72 295.34 L 18.77 295.29 L 18.70 295.25 L 18.64 295.22 L 18.74 295.13 L 18.82 295.00 L 18.84 294.93 L 19.01 294.86 L 19.08 294.80 L 19.24 294.75 L 19.40 294.66 L 19.70 294.58 L 20.01 294.46 L 20.26 294.36 L 20.34 294.39 L 20.38 294.41 L 20.49 294.41 L 20.58 294.39 L 20.59 294.36 L 20.55 294.29 L 20.56 294.21 L 20.70 294.07 L 20.92 293.92 L 21.01 293.88 L 21.15 293.84 L 21.30 293.73 L 21.46 293.65 L 21.56 293.64 L 21.55 293.59 L 21.53 293.54 L 21.55 293.45 L 21.60 293.33 L 21.64 293.11 L 21.68 293.05 L 21.76 292.98 L 21.69 292.92 L 21.70 292.82 L 21.76 292.72 L 21.92 292.63 L 22.00 292.58 L 22.10 292.52 L 22.18 292.46 L 22.25 292.36 L 22.22 292.33 L 22.14 292.33 L 22.12 292.33 L 22.04 292.35 L 21.85 292.39 L 21.67 292.45 L 21.46 292.49 L 21.10 292.58 L 21.00 292.58 L 20.90 292.53 L 20.86 292.45 L 20.81 292.43 L 20.67 292.39 L 20.71 292.34 L 20.61 292.29 L 20.47 292.33 L 20.44 292.39 L 20.45 292.44 L 20.37 292.50 L 20.41 292.57 L 20.53 292.72 L 20.44 292.79 L 20.35 292.81 L 20.17 292.78 L 20.00 292.60 L 19.82 292.42 L 19.70 292.36 L 19.59 292.35 L 19.63 292.31 L 19.62 292.27 L 19.52 292.27 L 19.48 292.32 L 19.44 292.37 L 19.32 292.42 L 19.25 292.36 L 19.08 292.33 L 19.00 292.30 L 18.91 292.24 L 18.97 292.20 L 18.91 292.13 L 18.71 292.19 L 18.50 292.28 L 18.40 292.37 L 18.36 292.32 L 18.23 292.35 L 18.20 292.36 L 18.15 292.37 L 18.00 292.42 L 17.89 292.45 L 17.89 292.46 L 17.85 292.53 L 17.68 292.59 L 17.47 292.65 L 17.42 292.59 L 17.20 292.59 L 17.05 292.55 L 17.23 292.51 L 17.40 292.46 L 17.46 292.35 L 17.42 292.21 L 17.31 292.10 L 17.23 292.02 L 17.18 291.94 L 17.23 291.86 L 17.38 291.76 L 17.43 291.73 L 17.52 291.70 L 17.45 291.63 L 17.35 291.55 L 17.34 291.50 L 17.18 291.34 L 17.12 291.27 L 17.08 291.23 L 17.00 291.14 L 16.85 291.03 L 16.77 291.02 L 16.73 291.06 L 16.73 291.11 L 16.74 291.17 L 16.71 291.22 L 16.60 291.22 L 16.48 291.22 L 16.41 291.26 L 16.29 291.29 L 16.05 291.35 L 15.76 291.38 L 15.45 291.40 L 15.29 291.39 L 15.08 291.35 L 15.01 291.26 L 15.04 291.23 L 15.09 291.20 L 14.95 291.15 L 14.81 291.10 L 14.70 290.99 L 14.60 290.96 L 14.52 290.90 L 14.44 290.90 L 14.23 290.84 L 14.09 290.76 L 14.15 290.73 L 14.20 290.72 L 14.26 290.66 L 14.23 290.65 L 14.12 290.66 L 14.02 290.69 L 13.94 290.69 L 13.85 290.69 L 13.79 290.64 L 13.85 290.61 L 14.01 290.58 L 14.14 290.51 L 14.22 290.49 L 14.21 290.45 L 14.17 290.42 L 14.19 290.35 L 14.13 290.28 L 14.11 290.26 L 14.02 290.22 L 14.08 290.18 L 14.16 290.13 L 14.08 290.10 L 14.01 290.04 L 13.89 290.02 L 13.83 290.11 L 13.76 290.11 L 13.66 290.10 L 13.57 290.05 L 13.58 289.96 L 13.59 289.91 L 13.43 289.88 L 13.38 289.88 L 13.29 289.79 L 13.34 289.76 L 13.42 289.74 L 13.47 289.70 L 13.35 289.65 L 13.30 289.63 L 13.21 289.65 L 13.14 289.70 L 13.06 289.68 L 13.00 289.58 L 13.07 289.46 L 13.16 289.42 L 13.12 289.37 L 13.27 289.34 L 13.41 289.36 L 13.57 289.34 L 13.56 289.31 L 13.47 289.23 L 13.46 289.13 L 13.54 289.05 L 13.76 288.90 L 13.95 288.76 L 14.12 288.66 L 14.16 288.59 L 14.25 288.53 L 14.38 288.50 L 14.35 288.43 L 14.34 288.38 L 14.40 288.28 L 14.53 288.16 L 14.61 288.07 L 14.78 287.98 L 15.01 287.93 L 15.15 287.92 L 15.33 287.96 L 15.49 287.97 L 15.60 288.04 L 15.69 288.05 L 15.90 288.15 L 16.17 288.13 L 16.30 288.06 L 16.38 288.03 L 16.40 287.98 L 16.50 287.97 L 16.62 287.91 L 16.70 287.87 L 16.80 287.78 L 16.87 287.73 L 16.66 287.65 L 16.51 287.61 L 16.64 287.56 L 16.82 287.55 L 16.97 287.64 L 17.15 287.67 L 17.24 287.74 L 17.55 287.72 L 17.81 287.72 L 18.04 287.69 L 18.15 287.62 L 18.44 287.43 L 18.46 287.35 L 18.33 287.18 L 18.29 287.12 L 18.27 286.96 L 18.05 286.84 L 17.96 286.78 L 17.72 286.76 L 17.76 286.67 L 17.84 286.63 L 18.03 286.68 L 18.23 286.64 L 18.43 286.56 L 18.44 286.46 L 18.29 286.36 L 18.15 286.31 L 18.09 286.28 L 18.01 286.30 L 17.90 286.35 L 17.85 286.41 L 17.71 286.43 L 17.58 286.40 L 17.45 286.43 L 17.35 286.47 L 17.16 286.49 L 17.04 286.51 L 16.99 286.56 L 16.68 286.65 L 16.62 286.70 L 16.59 286.80 L 16.45 286.85 L 16.39 286.74 L 16.36 286.68 L 16.28 286.64 L 16.19 286.66 L 16.19 286.70 L 16.13 286.74 L 16.09 286.80 L 15.97 286.72 L 15.81 286.66 L 15.53 286.61 L 15.39 286.61 L 15.24 286.63 L 15.07 286.62 L 14.91 286.62 L 14.67 286.66 L 14.41 286.73 L 14.21 286.75 L 13.92 286.70 L 13.39 286.64 L 12.98 286.60 L 12.80 286.53 L 12.73 286.43 L 12.73 286.38 L 12.80 286.33 L 12.78 286.30 L 12.63 286.22 L 12.51 286.19 L 12.47 286.15 L 12.30 286.05 L 12.32 286.04 L 12.58 286.05 L 12.73 286.01 L 12.76 285.94 L 12.86 285.90 L 12.77 285.86 L 12.61 285.84 L 12.46 285.85 L 12.31 285.82 L 12.14 285.79 L 11.86 285.78 L 11.73 285.77 L 11.52 285.69 L 11.36 285.64 L 11.16 285.61 L 11.08 285.52 Z M 9.92 298.43 L 10.16 298.32 L 10.24 298.28 L 10.34 298.20 L 10.42 298.17 L 10.40 298.09 L 10.44 298.03 L 10.62 297.93 L 10.76 297.95 L 10.79 297.89 L 10.81 297.82 L 10.86 297.74 L 10.97 297.69 L 11.18 297.65 L 11.29 297.69 L 11.42 297.69 L 11.40 297.74 L 11.35 297.78 L 11.37 297.83 L 11.25 297.87 L 11.11 297.93 L 10.91 297.99 L 10.86 298.04 L 10.79 298.10 L 10.75 298.16 L 10.59 298.21 L 10.52 298.25 L 10.45 298.31 L 10.35 298.31 L 10.20 298.39 L 10.03 298.44 L 9.94 298.46 L 9.92 298.43 Z M 9.38 294.57 L 9.59 294.58 L 9.73 294.58 L 9.75 294.62 L 9.62 294.67 L 9.52 294.66 L 9.38 294.57 Z M 9.03 298.43 L 9.11 298.30 L 9.17 298.27 L 9.34 298.31 L 9.44 298.24 L 9.38 298.15 L 9.45 298.12 L 9.52 298.18 L 9.54 298.26 L 9.54 298.35 L 9.50 298.44 L 9.38 298.42 L 9.25 298.43 L 9.12 298.50 L 8.99 298.51 L 9.03 298.43 Z M 8.78 293.99 L 8.90 293.96 L 9.06 293.96 L 9.07 294.02 L 8.91 294.07 L 8.78 294.04 L 8.78 293.99 Z M 8.38 298.58 L 8.53 298.52 L 8.67 298.54 L 8.61 298.63 L 8.51 298.63 L 8.41 298.68 L 8.36 298.66 L 8.38 298.58 Z M 7.88 298.72 L 7.94 298.69 L 8.00 298.72 L 7.97 298.78 L 7.89 298.77 L 7.88 298.72 Z M 7.36 287.62 L 7.40 287.56 L 7.39 287.47 L 7.45 287.40 L 7.58 287.40 L 7.61 287.47 L 7.64 287.52 L 7.89 287.56 L 8.25 287.61 L 8.34 287.60 L 8.59 287.51 L 8.71 287.49 L 8.86 287.49 L 8.93 287.51 L 9.02 287.56 L 9.11 287.57 L 9.15 287.65 L 9.19 287.71 L 9.34 287.74 L 9.55 287.75 L 9.64 287.80 L 9.74 287.82 L 10.12 287.84 L 10.27 287.85 L 10.52 287.89 L 10.45 287.97 L 10.36 288.03 L 10.27 288.05 L 10.13 288.01 L 9.97 288.01 L 9.77 288.07 L 9.67 288.11 L 9.63 288.16 L 9.63 288.21 L 9.56 288.25 L 9.44 288.23 L 9.41 288.14 L 9.32 288.08 L 9.15 288.02 L 9.01 288.00 L 8.94 288.01 L 8.90 287.95 L 8.77 287.87 L 8.54 287.81 L 8.30 287.77 L 8.13 287.76 L 7.97 287.79 L 7.91 287.82 L 7.76 287.88 L 7.67 287.86 L 7.53 287.83 L 7.44 287.80 L 7.35 287.70 L 7.36 287.62 Z M 6.58 298.91 L 6.65 298.86 L 6.75 298.82 L 6.87 298.85 L 6.89 298.89 L 6.78 298.94 L 6.67 298.96 L 6.55 298.97 L 6.58 298.91 Z M 6.12 290.49 L 6.28 290.59 L 6.35 290.68 L 6.65 290.78 L 6.81 290.81 L 6.96 290.86 L 6.94 290.90 L 6.78 290.88 L 6.56 290.86 L 6.30 290.74 L 6.13 290.69 L 6.08 290.53 L 6.12 290.49 Z M 3.88 299.16 L 4.16 299.13 L 4.30 299.09 L 4.47 299.09 L 4.63 299.06 L 4.73 299.00 L 4.73 298.90 L 4.86 298.84 L 5.00 298.80 L 5.12 298.83 L 5.20 298.90 L 5.14 298.98 L 5.17 299.08 L 5.29 299.08 L 5.54 299.07 L 5.66 299.06 L 5.82 299.11 L 6.02 299.09 L 6.24 299.11 L 6.21 299.15 L 6.02 299.17 L 5.80 299.19 L 5.68 299.19 L 5.50 299.16 L 5.37 299.17 L 5.29 299.17 L 5.09 299.15 L 4.91 299.13 L 4.81 299.14 L 4.78 299.20 L 4.63 299.18 L 4.45 299.21 L 4.29 299.20 L 4.17 299.21 L 4.03 299.21 L 3.86 299.21 L 3.88 299.16 Z M 2.23 299.53 L 2.26 299.42 L 2.40 299.39 L 2.42 299.35 L 2.37 299.29 L 2.41 299.25 L 2.48 299.25 L 2.60 299.21 L 2.63 299.26 L 2.63 299.31 L 2.61 299.38 L 2.75 299.36 L 2.87 299.35 L 3.01 299.34 L 3.01 299.27 L 3.00 299.22 L 2.97 299.15 L 3.03 299.10 L 3.13 299.11 L 3.18 299.15 L 3.30 299.22 L 3.38 299.23 L 3.52 299.22 L 3.73 299.20 L 3.76 299.25 L 3.54 299.28 L 3.40 299.30 L 3.22 299.37 L 3.19 299.42 L 3.02 299.45 L 2.89 299.48 L 2.72 299.49 L 2.64 299.52 L 2.53 299.56 L 2.47 299.60 L 2.37 299.60 L 2.24 299.63 L 2.19 299.61 L 2.23 299.53 Z M 1.51 299.47 L 1.69 299.45 L 1.87 299.44 L 1.95 299.41 L 1.98 299.31 L 2.00 299.27 L 2.08 299.28 L 2.14 299.32 L 2.08 299.39 L 2.08 299.50 L 1.99 299.52 L 1.90 299.54 L 1.83 299.52 L 1.70 299.54 L 1.53 299.56 L 1.47 299.52 L 1.51 299.47 Z M 0.98 299.31 L 1.09 299.30 L 1.23 299.30 L 1.29 299.37 L 1.42 299.37 L 1.56 299.36 L 1.53 299.42 L 1.42 299.45 L 1.35 299.51 L 1.31 299.54 L 1.27 299.62 L 1.13 299.59 L 1.06 299.54 L 1.12 299.51 L 1.20 299.50 L 1.18 299.44 L 1.09 299.41 L 0.95 299.35 L 0.98 299.31 Z M 0.29 299.65 L 0.50 299.59 L 0.62 299.61 L 0.59 299.65 L 0.44 299.68 L 0.35 299.67 L 0.29 299.65 Z M 0.30 299.38 L 0.40 299.37 L 0.44 299.43 L 0.38 299.47 L 0.28 299.44 L 0.30 299.38 Z M 0.00 299.94 L 0.18 299.80 L 0.25 299.84 L 0.27 299.88 L 0.10 299.97 L 0.05 300.00 L 0.00 299.94 Z" fill="none" stroke="currentColor" stroke-width="2" opacity="0.8" class="state-boundary" transform="translate(-0.00, -119.90)"/>
  <circle cx="29.36" cy="170.07" r="12.0" fill="currentColor" opacity="0.2" class="metro-pulse rank-1"/>
  <circle cx="29.36" cy="170.07" r="8.0" fill="currentColor" opacity="0.9" class="metro-dot rank-1" data-city="Anchorage" data-rank="1"/>
  <circle cx="31.55" cy="166.44" r="10.8" fill="currentColor" opacity="0.2" class="metro-pulse rank-2"/>
  <circle cx="31.55" cy="166.44" r="6.8" fill="currentColor" opacity="0.9" class="metro-dot rank-2" data-city="Fairbanks" data-rank="2"/>
  <circle cx="44.89" cy="172.99" r="9.6" fill="currentColor" opacity="0.2" class="metro-pulse rank-3"/>
  <circle cx="44.89" cy="172.99" r="5.6" fill="currentColor" opacity="0.9" class="metro-dot rank-3" data-city="Juneau" data-rank="3"/>
</svg>