<svg xmlns="http://www.w3.org/2000/svg" viewBox="0 0 400 300" class="state-outline-svg">
  <path d="M 0.66 242.17 L 0.22 241.09 L 2.26 239.61 L 4.33 236.43 L 4.97 235.39 L 6.73 235.72 L 9.02 235.41 L 11.16 235.12 L 12.95 233.51 L 15.83 230.64 L 16.10 228.04 L 15.48 227.04 L 15.26 224.82 L 13.88 222.46 L 13.60 222.40 L 10.96 221.86 L 8.52 222.11 L 6.57 221.80 L 4.95 218.71 L 6.18 216.22 L 6.24 212.98 L 6.40 211.82 L 4.17 210.33 L 4.87 208.71 L 4.90 206.27 L 4.08 204.97 L 6.43 204.36 L 8.21 204.16 L 8.48 203.66 L 9.94 201.04 L 13.28 198.22 L 13.07 195.72 L 13.25 193.21 L 14.18 191.76 L 14.56 190.57 L 14.18 188.67 L 13.47 185.59 L 14.15 183.91 L 14.01 182.24 L 12.80 180.97 L 13.97 179.65 L 16.48 177.19 L 17.36 175.74 L 17.61 174.07 L 17.70 173.44 L 18.72 172.58 L 21.37 171.52 L 23.90 170.05 L 26.80 169.12 L 29.17 166.69 L 30.95 165.79 L 30.87 163.79 L 30.87 163.66 L 29.40 161.87 L 25.21 159.29 L 21.95 157.06 L 19.96 157.04 L 19.99 154.01 L 17.96 151.07 L 16.00 146.00 L 14.82 144.46 L 10.90 140.31 L 8.24 137.67 L 8.46 134.45 L 8.28 131.76 L 8.67 128.70 L 8.91 126.27 L 9.86 126.29 L 11.07 125.48 L 10.41 119.81 L 8.58 113.07 L 6.86 111.23 L 6.93 107.80 L 7.37 103.84 L 5.72 101.98 L 5.36 98.20 L 5.07 94.50 L 6.62 92.18 L 5.22 90.50 L 3.81 88.57 L 3.27 85.54 L 3.25 82.97 L 3.25 82.76 L 3.58 81.21 L 6.77 80.61 L 8.54 79.53 L 11.10 79.04 L 13.87 79.07 L 15.00 80.06 L 16.76 80.20 L 18.21 79.31 L 20.27 79.43 L 21.87 81.04 L 22.84 83.10 L 24.92 84.36 L 27.53 85.28 L 30.37 84.87 L 30.99 83.56 L 32.75 80.42 L 35.18 77.10 L 35.12 73.67 L 35.15 71.07 L 35.06 58.30 L 35.03 47.34 L 35.01 40.13 L 38.89 40.15 L 84.71 40.14 L 87.80 40.13 L 90.99 40.13 L 104.03 40.11 L 104.33 40.11 L 112.62 40.10 L 155.95 40.08 L 156.26 40.08 L 162.11 40.13 L 171.82 40.04 L 186.30 40.00 L 199.16 40.24 L 220.69 40.24 L 243.86 40.19 L 264.49 40.19 L 264.48 45.90 L 264.47 80.63 L 264.46 85.87 L 264.46 91.51 L 264.44 103.68 L 264.42 115.17 L 264.44 123.80 L 264.46 133.68 L 264.46 133.69 L 264.45 151.13 L 264.45 153.74 L 264.44 183.42 L 264.43 187.89 L 264.40 204.75 L 264.40 213.96 L 264.40 213.96 L 264.41 233.72 L 264.41 233.73 L 264.38 249.84 L 264.35 265.53 L 264.31 278.71 L 264.27 299.99 L 228.53 299.92 L 199.64 299.96 L 171.44 300.00 L 158.06 295.76 L 112.29 281.25 L 67.87 267.54 L 48.76 261.64 L 0.03 246.72 L 0.12 245.41 L 0.85 244.12 L 0.00 243.49 L 0.66 242.17 Z" fill="none" stroke="currentColor" stroke-width="2" opacity="0.8" class="state-boundary" transform="translate(47.75, -0.00)"/>
  <circle cx="173.38" cy="202.98" r="12.0" fill="currentColor" opacity="0.2" class="metro-pulse rank-1"/>
  <circle cx="173.38" cy="202.98" r="8.0" fill="currentColor" opacity="0.9" class="metro-dot rank-1" data-city="Phoenix" data-rank="1"/>
  <circle cx="223.78" cy="259.18" r="10.8" fill="currentColor" opacity="0.2" class="metro-pulse rank-2"/>
  <circle cx="223.78" cy="259.18" r="6.8" fill="currentColor" opacity="0.9" class="metro-dot rank-2" data-city="Tucson" data-rank="2"/>
  <circle cx="180.17" cy="200.88" r="9.6" fill="currentColor" opacity="0.2" class="metro-pulse rank-3"/>
  <circle cx="180.17" cy="200.88" r="5.6" fill="currentColor" opacity="0.9" class="metro-dot rank-3" data-city="Scottsdale" data-rank="3"/>
  <circle cx="184.50" cy="204.50" r="8.4" fill="currentColor" opacity="0.2" class="metro-pulse rank-4"/>
  <circle cx="184.50" cy="204.50" r="4.4" fill="currentColor" opacity="0.9" class="metro-dot rank-4" data-city="Mesa" data-rank="4"/>
  <circle cx="184.05" cy="209.50" r="8.0" fill="currentColor" opacity="0.2" class="metro-pulse rank-5"/>
  <circle cx="184.05" cy="209.50" r="4.0" fill="currentColor" opacity="0.9" class="metro-dot rank-5" data-city="Chandler" data-rank="5"/>
</svg>