<svg xmlns="http://www.w3.org/2000/svg" viewBox="0 0 400 300" class="state-outline-svg">
  <path d="M 0.00 46.85 L 18.59 46.84 L 39.17 46.88 L 47.71 46.90 L 54.41 46.89 L 66.47 46.87 L 74.86 46.89 L 86.25 46.91 L 94.34 46.93 L 95.95 46.94 L 108.05 46.96 L 127.75 46.95 L 128.85 46.95 L 133.67 46.95 L 148.74 46.94 L 151.28 46.94 L 164.23 46.97 L 178.72 46.94 L 180.88 46.94 L 190.63 46.92 L 213.33 46.86 L 215.49 46.86 L 229.44 46.99 L 232.56 47.02 L 232.70 47.02 L 252.86 46.97 L 260.73 46.95 L 277.67 46.92 L 279.00 46.92 L 292.72 46.92 L 298.63 46.93 L 318.47 47.10 L 323.31 47.15 L 324.21 49.72 L 324.96 52.96 L 329.66 55.05 L 329.85 57.17 L 329.82 61.07 L 326.13 63.79 L 323.16 67.52 L 320.76 68.61 L 318.49 69.64 L 317.39 72.92 L 313.12 74.84 L 309.88 79.61 L 307.75 83.33 L 313.52 83.27 L 326.93 83.16 L 337.40 83.09 L 341.61 83.07 L 353.78 82.98 L 357.13 86.81 L 359.64 88.71 L 359.87 89.92 L 360.00 90.63 L 354.54 92.17 L 354.04 94.06 L 354.48 96.83 L 349.15 98.76 L 344.31 101.30 L 340.57 100.77 L 337.60 105.08 L 341.77 108.31 L 343.39 110.06 L 339.34 111.42 L 338.45 114.87 L 337.46 116.21 L 331.73 115.59 L 331.14 119.49 L 332.86 122.32 L 331.17 125.36 L 329.34 124.79 L 326.31 125.74 L 328.09 129.14 L 325.63 133.39 L 322.39 135.56 L 327.36 137.34 L 327.70 140.72 L 327.23 143.54 L 327.89 146.88 L 322.86 146.12 L 321.32 148.83 L 320.18 151.77 L 315.24 152.53 L 312.68 153.36 L 312.05 155.76 L 316.75 159.97 L 316.34 162.16 L 311.90 164.66 L 311.75 164.74 L 305.37 167.38 L 304.91 167.38 L 300.86 167.40 L 300.16 170.74 L 297.84 172.50 L 294.91 177.02 L 294.61 179.82 L 292.82 182.12 L 291.92 183.28 L 294.67 186.73 L 293.22 189.86 L 293.21 189.90 L 292.18 194.64 L 292.78 197.80 L 288.00 200.07 L 286.62 203.55 L 281.65 201.49 L 279.04 203.04 L 279.94 206.92 L 275.58 207.63 L 273.62 210.77 L 269.66 211.62 L 270.52 214.52 L 269.68 216.22 L 266.51 217.10 L 266.08 219.18 L 266.02 219.44 L 265.92 219.95 L 269.19 221.02 L 271.11 222.65 L 269.82 225.93 L 266.18 226.56 L 263.48 227.86 L 261.67 229.54 L 258.53 228.95 L 255.60 230.67 L 259.42 231.95 L 260.12 234.54 L 257.59 236.74 L 258.20 240.61 L 260.21 241.93 L 260.09 244.99 L 255.84 244.07 L 253.95 244.20 L 251.65 246.19 L 256.57 248.56 L 254.71 252.46 L 249.11 253.14 L 252.55 256.05 L 248.34 258.56 L 247.08 260.78 L 246.41 261.95 L 246.41 261.95 L 248.31 264.59 L 249.59 266.81 L 251.33 269.36 L 253.79 271.83 L 251.73 275.02 L 252.94 280.00 L 255.79 280.48 L 257.05 283.43 L 255.92 287.20 L 254.47 290.77 L 250.95 290.51 L 248.93 293.17 L 253.31 296.35 L 250.47 299.48 L 250.00 300.00 L 242.87 299.95 L 230.46 299.87 L 228.69 299.86 L 226.60 299.85 L 198.65 299.74 L 184.61 299.68 L 184.60 299.68 L 173.47 299.64 L 153.29 299.42 L 137.20 299.26 L 137.11 299.26 L 119.27 299.05 L 117.99 299.05 L 102.88 299.00 L 99.89 298.99 L 89.86 298.98 L 81.65 298.95 L 79.45 298.94 L 64.79 298.89 L 58.72 298.89 L 58.18 298.89 L 41.64 298.91 L 41.66 288.69 L 41.64 280.65 L 41.63 276.36 L 41.64 268.73 L 41.61 260.36 L 39.49 258.85 L 34.39 258.46 L 31.47 257.41 L 29.28 258.97 L 27.45 258.53 L 22.75 259.41 L 20.24 259.23 L 19.10 260.00 L 16.65 259.34 L 14.40 258.49 L 9.56 254.10 L 9.86 243.15 L 10.19 232.16 L 10.36 226.45 L 10.70 214.10 L 11.04 201.83 L 11.35 191.12 L 11.62 181.89 L 11.84 175.08 L 12.23 163.37 L 12.34 160.22 L 12.67 150.92 L 13.23 135.47 L 13.50 128.68 L 13.32 127.38 L 13.26 127.01 L 12.18 119.47 L 10.49 109.20 L 9.04 100.46 L 8.94 99.80 L 6.22 83.90 L 4.78 75.63 L 4.03 71.29 L 2.30 61.30 L 0.00 46.85 Z" fill="none" stroke="currentColor" stroke-width="2" opacity="0.8" class="state-boundary" transform="translate(0.00, -3.42)"/>
  <circle cx="168.63" cy="170.39" r="12.0" fill="currentColor" opacity="0.2" class="metro-pulse rank-1"/>
  <circle cx="168.63" cy="170.39" r="8.0" fill="currentColor" opacity="0.9" class="metro-dot rank-1" data-city="Little Rock" data-rank="1"/>
  <circle cx="33.35" cy="75.07" r="10.8" fill="currentColor" opacity="0.2" class="metro-pulse rank-2"/>
  <circle cx="33.35" cy="75.07" r="6.8" fill="currentColor" opacity="0.9" class="metro-dot rank-2" data-city="Fayetteville" data-rank="2"/>
  <circle cx="15.89" cy="124.08" r="9.6" fill="currentColor" opacity="0.2" class="metro-pulse rank-3"/>
  <circle cx="15.89" cy="124.08" r="5.6" fill="currentColor" opacity="0.9" class="metro-dot rank-3" data-city="Fort Smith" data-rank="3"/>
  <circle cx="29.63" cy="52.60" r="8.4" fill="currentColor" opacity="0.2" class="metro-pulse rank-4"/>
  <circle cx="29.63" cy="52.60" r="4.4" fill="currentColor" opacity="0.9" class="metro-dot rank-4" data-city="Bentonville" data-rank="4"/>
</svg>