<svg xmlns="http://www.w3.org/2000/svg" viewBox="0 0 400 300" class="state-outline-svg">
  <path d="M 159.58 274.40 L 162.58 273.84 L 165.72 275.99 L 168.03 277.57 L 166.96 279.01 L 165.60 278.43 L 163.11 278.27 L 162.64 277.07 L 160.42 275.30 L 159.58 274.40 Z M 159.58 286.23 L 161.06 287.74 L 163.62 290.09 L 166.18 292.10 L 164.20 292.69 L 162.49 291.48 L 159.92 289.09 L 158.28 286.75 L 159.58 286.23 Z M 132.55 279.57 L 134.43 278.79 L 136.72 279.92 L 136.65 280.96 L 135.69 281.31 L 133.46 280.81 L 132.55 279.57 Z M 123.30 258.18 L 124.92 257.82 L 128.15 258.42 L 132.89 258.31 L 135.52 258.30 L 136.29 258.29 L 138.45 258.38 L 138.48 259.76 L 137.70 259.92 L 135.06 259.87 L 133.23 259.84 L 130.25 260.16 L 128.65 260.89 L 126.60 260.79 L 124.48 260.32 L 124.38 259.13 L 123.30 258.18 Z M 110.90 257.68 L 114.35 258.21 L 117.27 259.06 L 119.49 258.74 L 121.43 260.22 L 121.72 261.36 L 119.64 262.12 L 117.66 262.64 L 116.09 261.75 L 115.51 260.96 L 110.99 260.00 L 108.54 259.01 L 110.90 257.68 Z M 0.62 81.28 L 2.97 77.03 L 6.39 71.99 L 8.00 67.99 L 7.80 66.36 L 7.00 65.30 L 6.74 63.89 L 7.87 62.49 L 8.71 59.80 L 9.51 55.63 L 9.39 54.94 L 8.99 52.66 L 8.06 50.44 L 7.30 48.23 L 7.01 47.70 L 6.00 47.50 L 4.52 45.95 L 5.21 44.47 L 5.66 41.87 L 5.43 40.30 L 11.21 40.36 L 16.12 40.37 L 20.65 40.39 L 24.44 40.28 L 26.75 40.21 L 29.14 40.28 L 32.34 40.12 L 34.67 40.00 L 37.44 40.17 L 44.17 40.14 L 52.37 40.02 L 58.17 40.04 L 58.18 40.04 L 63.32 40.10 L 70.33 40.17 L 75.03 40.24 L 81.28 40.33 L 81.50 40.33 L 86.67 40.32 L 92.59 40.44 L 96.86 40.43 L 102.01 40.43 L 107.25 40.42 L 116.02 40.40 L 121.02 40.40 L 121.02 43.69 L 121.05 50.71 L 121.00 62.65 L 121.02 71.37 L 121.07 75.35 L 121.11 86.32 L 121.08 91.67 L 121.07 96.33 L 121.00 102.75 L 120.95 107.79 L 120.92 110.36 L 120.87 113.89 L 120.86 114.58 L 120.91 118.03 L 120.93 119.48 L 120.95 120.72 L 120.97 122.59 L 123.63 124.40 L 132.32 130.40 L 132.38 130.45 L 139.38 135.32 L 140.78 136.30 L 144.17 138.67 L 149.82 142.64 L 162.14 151.41 L 164.14 152.86 L 175.27 160.92 L 180.45 164.70 L 184.65 167.76 L 196.60 176.63 L 198.77 178.25 L 203.30 181.63 L 217.36 192.30 L 220.45 194.67 L 228.19 200.62 L 233.70 204.90 L 234.98 205.90 L 240.42 210.12 L 240.43 210.13 L 247.10 215.39 L 249.87 217.57 L 253.81 220.70 L 257.00 223.23 L 263.57 228.50 L 268.26 232.29 L 268.36 233.90 L 268.24 235.82 L 269.82 237.40 L 272.17 239.89 L 272.88 240.81 L 274.05 243.84 L 275.26 245.60 L 275.25 247.42 L 276.44 247.43 L 278.39 248.76 L 280.90 250.31 L 281.78 251.38 L 281.78 251.46 L 281.83 252.65 L 280.76 253.19 L 279.34 254.65 L 277.61 255.20 L 276.09 256.09 L 274.50 256.72 L 273.90 257.23 L 273.84 257.61 L 273.69 258.61 L 273.16 259.48 L 271.66 260.95 L 270.96 261.74 L 271.68 262.50 L 271.77 263.50 L 271.36 264.50 L 271.79 266.35 L 272.02 267.48 L 271.79 268.20 L 271.23 269.06 L 271.12 270.57 L 271.25 272.06 L 269.25 273.75 L 268.38 275.32 L 268.21 275.62 L 267.15 275.74 L 265.74 276.10 L 266.23 276.88 L 266.22 278.34 L 265.80 279.31 L 267.13 280.20 L 267.04 280.90 L 267.00 282.84 L 266.27 284.33 L 267.24 286.17 L 268.40 286.36 L 269.86 286.21 L 271.44 286.54 L 271.61 286.57 L 272.44 287.98 L 272.56 289.31 L 272.93 289.91 L 272.77 291.47 L 271.05 293.19 L 269.98 294.15 L 268.70 294.32 L 267.33 294.51 L 266.28 294.31 L 265.90 294.93 L 258.18 295.46 L 245.44 296.35 L 229.48 297.55 L 227.85 297.68 L 215.93 298.64 L 213.56 298.84 L 207.24 299.36 L 199.90 300.00 L 199.70 298.59 L 199.57 297.68 L 198.69 296.22 L 198.46 296.08 L 197.92 295.76 L 196.57 296.29 L 196.32 295.45 L 196.33 293.06 L 195.61 292.09 L 195.58 291.62 L 195.81 291.29 L 196.11 291.35 L 196.29 291.07 L 196.29 291.07 L 196.34 289.96 L 195.85 287.89 L 195.62 286.88 L 194.67 284.65 L 193.37 282.60 L 191.09 279.85 L 188.29 277.19 L 186.97 276.61 L 186.96 276.60 L 185.61 275.12 L 183.69 274.58 L 183.39 273.95 L 183.23 273.83 L 180.98 272.06 L 180.26 271.48 L 177.88 270.60 L 175.87 269.26 L 173.44 267.19 L 172.72 266.81 L 172.24 266.55 L 170.84 267.02 L 169.52 267.59 L 168.78 267.91 L 167.18 267.66 L 166.74 267.43 L 166.15 267.12 L 165.00 267.02 L 164.13 265.96 L 165.06 265.15 L 164.56 262.96 L 163.24 260.62 L 161.63 259.02 L 159.32 258.71 L 157.24 258.86 L 155.44 258.90 L 153.79 259.74 L 152.43 258.84 L 149.96 258.49 L 149.68 258.45 L 146.52 257.29 L 145.43 257.18 L 142.19 255.34 L 141.39 253.92 L 141.03 252.84 L 140.85 252.74 L 139.85 252.21 L 138.13 250.97 L 135.79 249.51 L 135.33 249.38 L 133.71 248.92 L 131.51 248.22 L 129.65 248.57 L 128.98 248.93 L 126.88 248.36 L 125.51 248.37 L 124.46 248.56 L 121.77 247.58 L 119.61 247.11 L 117.13 246.79 L 112.90 246.86 L 108.61 247.51 L 106.97 245.43 L 105.91 244.88 L 105.05 244.49 L 103.92 244.57 L 103.28 243.83 L 104.48 240.79 L 104.13 239.73 L 103.81 239.52 L 104.25 236.23 L 102.59 234.97 L 103.16 233.02 L 103.62 231.43 L 103.72 230.19 L 103.55 228.94 L 102.48 228.14 L 101.40 227.51 L 100.25 227.93 L 97.77 226.73 L 96.39 225.53 L 96.87 224.26 L 97.34 222.44 L 96.72 220.53 L 94.77 219.89 L 93.47 219.69 L 90.43 216.65 L 88.99 214.90 L 86.09 214.04 L 84.93 212.76 L 84.44 210.85 L 84.04 210.52 L 82.40 209.16 L 80.88 208.03 L 80.22 205.71 L 78.97 204.50 L 77.79 204.21 L 76.49 202.16 L 74.90 200.35 L 72.16 198.66 L 70.88 198.26 L 69.18 196.59 L 68.78 194.10 L 67.72 191.57 L 66.93 188.90 L 68.21 187.48 L 69.95 188.13 L 71.21 186.16 L 71.70 183.56 L 71.84 182.53 L 71.26 181.57 L 69.90 179.33 L 68.69 178.31 L 67.45 178.24 L 65.37 178.80 L 64.27 178.73 L 63.21 178.66 L 60.46 177.07 L 58.97 175.46 L 58.30 174.66 L 58.04 174.57 L 57.26 174.29 L 56.68 173.50 L 55.22 172.32 L 54.64 170.64 L 54.99 168.81 L 55.11 168.21 L 54.89 167.17 L 53.95 165.49 L 53.88 164.79 L 52.57 163.95 L 51.94 163.15 L 51.90 161.65 L 52.49 160.66 L 52.49 158.62 L 52.38 158.02 L 52.25 157.27 L 52.07 156.30 L 53.35 155.48 L 55.19 155.35 L 55.55 155.76 L 55.79 157.19 L 56.33 157.44 L 56.19 157.84 L 55.42 158.02 L 55.33 158.04 L 56.24 161.20 L 59.41 162.14 L 61.50 163.62 L 62.57 163.15 L 63.05 162.94 L 62.16 161.49 L 61.92 159.87 L 61.65 159.15 L 61.65 159.13 L 60.25 158.28 L 59.27 157.52 L 59.19 156.73 L 57.53 156.13 L 56.96 155.23 L 57.78 154.68 L 57.10 152.93 L 56.94 152.52 L 55.73 152.62 L 54.45 151.23 L 56.03 150.61 L 56.00 149.80 L 56.71 149.76 L 57.29 149.73 L 58.91 148.60 L 58.73 148.36 L 57.84 147.13 L 55.32 146.08 L 55.21 146.12 L 52.72 147.02 L 52.64 147.05 L 52.41 149.13 L 53.69 150.12 L 52.71 150.93 L 52.77 152.16 L 53.82 152.94 L 54.64 154.06 L 52.85 154.77 L 51.38 154.67 L 49.62 153.44 L 47.50 152.58 L 46.84 152.93 L 45.41 151.78 L 44.24 150.66 L 42.62 149.56 L 40.33 149.14 L 39.38 150.22 L 38.36 149.92 L 39.75 146.92 L 39.95 145.19 L 39.03 143.50 L 39.06 142.52 L 38.59 141.90 L 38.57 141.87 L 37.21 141.80 L 36.80 140.82 L 36.33 139.30 L 34.11 136.98 L 31.83 135.99 L 29.57 134.50 L 29.09 133.64 L 26.56 130.81 L 24.55 129.66 L 23.84 128.95 L 22.98 128.11 L 21.16 126.86 L 20.57 126.07 L 19.18 124.96 L 18.57 123.81 L 19.73 121.99 L 18.88 119.14 L 17.66 117.26 L 16.76 115.13 L 16.03 112.67 L 16.32 110.32 L 17.65 107.41 L 17.21 105.52 L 16.93 103.80 L 15.92 102.73 L 15.31 99.74 L 13.77 98.89 L 12.48 97.26 L 10.55 95.10 L 10.25 94.77 L 9.35 94.55 L 8.85 92.98 L 7.40 91.94 L 6.08 91.55 L 4.15 90.08 L 1.83 88.44 L 1.27 87.97 L 1.55 86.04 L 1.21 84.85 L 0.00 83.11 L 0.62 81.28 Z" fill="none" stroke="currentColor" stroke-width="2" opacity="0.8" class="state-boundary" transform="translate(39.09, -0.00)"/>
  <circle cx="208.28" cy="258.34" r="12.0" fill="currentColor" opacity="0.2" class="metro-pulse rank-1"/>
  <circle cx="208.28" cy="258.34" r="8.0" fill="currentColor" opacity="0.9" class="metro-dot rank-1" data-city="Los Angeles" data-rank="1"/>
  <circle cx="93.70" cy="156.19" r="10.8" fill="currentColor" opacity="0.2" class="metro-pulse rank-2"/>
  <circle cx="93.70" cy="156.19" r="6.8" fill="currentColor" opacity="0.9" class="metro-dot rank-2" data-city="San Francisco" data-rank="2"/>
  <circle cx="237.99" cy="295.02" r="9.6" fill="currentColor" opacity="0.2" class="metro-pulse rank-3"/>
  <circle cx="237.99" cy="295.02" r="5.6" fill="currentColor" opacity="0.9" class="metro-dot rank-3" data-city="San Diego" data-rank="3"/>
  <circle cx="119.08" cy="134.06" r="8.4" fill="currentColor" opacity="0.2" class="metro-pulse rank-4"/>
  <circle cx="119.08" cy="134.06" r="4.4" fill="currentColor" opacity="0.9" class="metro-dot rank-4" data-city="Sacramento" data-rank="4"/>
  <circle cx="108.33" cy="168.18" r="8.0" fill="currentColor" opacity="0.2" class="metro-pulse rank-5"/>
  <circle cx="108.33" cy="168.18" r="4.0" fill="currentColor" opacity="0.9" class="metro-dot rank-5" data-city="San Jose" data-rank="5"/>
  <circle cx="165.93" cy="184.65" r="8.0" fill="currentColor" opacity="0.2" class="metro-pulse rank-6"/>
  <circle cx="165.93" cy="184.65" r="4.0" fill="currentColor" opacity="0.9" class="metro-dot rank-6" data-city="Fresno" data-rank="6"/>
</svg>