<svg xmlns="http://www.w3.org/2000/svg" viewBox="0 0 400 300" class="state-outline-svg">
  <path d="M 0.01 222.67 L 0.44 190.55 L 0.45 178.21 L 0.46 171.49 L 0.47 163.14 L 0.48 152.14 L 0.47 136.45 L 0.48 134.30 L 0.61 112.20 L 0.61 111.74 L 0.60 103.35 L 0.51 94.40 L 41.52 94.42 L 58.56 94.37 L 86.82 94.27 L 89.37 94.28 L 112.83 94.39 L 140.49 94.52 L 145.81 94.55 L 147.19 94.55 L 194.05 94.52 L 194.06 94.52 L 211.17 94.53 L 215.69 94.53 L 234.06 94.34 L 256.83 94.36 L 281.38 94.34 L 281.42 94.34 L 291.23 94.33 L 306.93 94.31 L 328.63 94.32 L 330.29 94.32 L 333.59 94.32 L 359.50 94.31 L 359.50 94.31 L 359.52 107.28 L 359.52 109.94 L 359.52 123.16 L 359.52 127.81 L 359.52 128.37 L 359.49 145.57 L 359.52 155.01 L 359.58 167.57 L 359.59 167.88 L 359.64 177.85 L 359.73 190.19 L 359.76 194.61 L 359.80 212.53 L 359.81 216.76 L 359.84 228.60 L 359.86 234.53 L 359.86 234.86 L 359.88 242.52 L 360.00 261.73 L 360.00 262.48 L 360.00 266.56 L 360.00 279.65 L 360.00 286.37 L 359.99 294.15 L 360.00 297.81 L 359.98 299.97 L 343.92 299.89 L 326.34 299.86 L 318.96 299.63 L 310.74 299.61 L 306.44 299.62 L 273.24 299.71 L 259.15 299.82 L 242.18 299.94 L 222.01 299.95 L 202.07 299.85 L 200.31 299.84 L 196.95 299.84 L 195.37 299.84 L 186.75 299.82 L 180.87 299.82 L 171.51 299.82 L 171.41 299.82 L 157.10 299.85 L 156.64 299.85 L 139.37 299.91 L 132.54 299.93 L 112.35 300.00 L 111.97 299.60 L 84.08 299.61 L 80.96 299.61 L 54.34 299.61 L 34.92 299.63 L 22.56 299.65 L 0.76 299.66 L 0.84 274.74 L 0.90 254.42 L 0.94 240.47 L 0.94 239.87 L 0.00 234.18 L 0.01 222.67 Z" fill="none" stroke="currentColor" stroke-width="2" opacity="0.8" class="state-boundary" transform="translate(0.00, -27.14)"/>
  <circle cx="208.76" cy="131.97" r="12.0" fill="currentColor" opacity="0.2" class="metro-pulse rank-1"/>
  <circle cx="208.76" cy="131.97" r="8.0" fill="currentColor" opacity="0.9" class="metro-dot rank-1" data-city="Denver" data-rank="1"/>
  <circle cx="217.42" cy="178.40" r="10.8" fill="currentColor" opacity="0.2" class="metro-pulse rank-2"/>
  <circle cx="217.42" cy="178.40" r="6.8" fill="currentColor" opacity="0.9" class="metro-dot rank-2" data-city="Colorado Springs" data-rank="2"/>
  <circle cx="216.88" cy="132.47" r="9.6" fill="currentColor" opacity="0.2" class="metro-pulse rank-3"/>
  <circle cx="216.88" cy="132.47" r="5.6" fill="currentColor" opacity="0.9" class="metro-dot rank-3" data-city="Aurora" data-rank="3"/>
  <circle cx="194.39" cy="117.82" r="8.4" fill="currentColor" opacity="0.2" class="metro-pulse rank-4"/>
  <circle cx="194.39" cy="117.82" r="4.4" fill="currentColor" opacity="0.9" class="metro-dot rank-4" data-city="Boulder" data-rank="4"/>
  <circle cx="203.93" cy="88.57" r="8.0" fill="currentColor" opacity="0.2" class="metro-pulse rank-5"/>
  <circle cx="203.93" cy="88.57" r="4.0" fill="currentColor" opacity="0.9" class="metro-dot rank-5" data-city="Fort Collins" data-rank="5"/>
</svg>