<svg xmlns="http://www.w3.org/2000/svg" viewBox="0 0 400 300" class="state-outline-svg">
  <path d="M 5.91 275.84 L 45.51 257.73 L 32.84 242.38 L 34.11 229.18 L 34.26 227.58 L 34.28 227.34 L 34.29 227.27 L 35.44 215.33 L 36.79 199.34 L 38.58 178.16 L 38.97 173.42 L 41.37 144.26 L 44.66 102.31 L 92.25 103.18 L 111.53 103.70 L 125.24 104.08 L 133.53 104.30 L 135.24 104.35 L 163.55 104.68 L 170.43 111.84 L 176.99 111.13 L 178.48 110.97 L 184.28 104.77 L 207.98 105.81 L 222.80 105.16 L 226.32 105.20 L 247.06 105.43 L 261.98 105.60 L 283.95 105.94 L 295.67 106.12 L 301.91 106.21 L 323.23 106.54 L 342.30 106.87 L 357.90 107.15 L 358.16 110.03 L 359.37 147.37 L 359.94 162.56 L 359.94 162.65 L 359.98 178.38 L 360.00 186.39 L 360.00 186.40 L 358.46 219.82 L 358.45 219.86 L 350.66 220.71 L 351.35 231.51 L 346.78 237.77 L 342.00 234.77 L 328.91 235.98 L 316.81 238.40 L 303.34 238.90 L 295.95 241.64 L 283.47 238.62 L 277.14 241.45 L 266.46 245.24 L 257.73 245.64 L 256.13 245.72 L 249.08 248.63 L 245.49 245.54 L 233.12 247.08 L 221.60 250.11 L 219.25 250.72 L 209.81 247.34 L 199.45 247.86 L 199.35 247.91 L 192.65 251.43 L 179.67 252.44 L 174.88 248.07 L 157.18 252.19 L 153.00 250.97 L 147.11 249.24 L 140.64 252.44 L 137.98 253.75 L 137.72 253.88 L 131.36 258.91 L 120.41 261.21 L 116.37 266.84 L 115.04 268.70 L 110.97 269.98 L 103.06 268.75 L 97.52 267.88 L 86.44 275.42 L 85.05 275.58 L 79.96 276.14 L 73.75 276.82 L 66.02 277.93 L 69.37 281.34 L 63.25 286.43 L 56.76 288.41 L 48.20 287.71 L 39.16 290.05 L 30.79 294.13 L 24.53 294.28 L 13.08 300.00 L 13.07 299.93 L 12.71 296.50 L 12.67 293.93 L 0.00 278.54 L 5.91 275.84 Z" fill="none" stroke="currentColor" stroke-width="2" opacity="0.8" class="state-boundary" transform="translate(0.00, -31.15)"/>
  <circle cx="195.82" cy="123.87" r="12.0" fill="currentColor" opacity="0.2" class="metro-pulse rank-1"/>
  <circle cx="195.82" cy="123.87" r="8.0" fill="currentColor" opacity="0.9" class="metro-dot rank-1" data-city="Hartford" data-rank="1"/>
  <circle cx="148.55" cy="208.83" r="10.8" fill="currentColor" opacity="0.2" class="metro-pulse rank-2"/>
  <circle cx="148.55" cy="208.83" r="6.8" fill="currentColor" opacity="0.9" class="metro-dot rank-2" data-city="New Haven" data-rank="2"/>
  <circle cx="35.11" cy="256.17" r="9.6" fill="currentColor" opacity="0.2" class="metro-pulse rank-3"/>
  <circle cx="35.11" cy="256.17" r="5.6" fill="currentColor" opacity="0.9" class="metro-dot rank-3" data-city="Stamford" data-rank="3"/>
  <circle cx="98.91" cy="231.46" r="8.4" fill="currentColor" opacity="0.2" class="metro-pulse rank-4"/>
  <circle cx="98.91" cy="231.46" r="4.4" fill="currentColor" opacity="0.9" class="metro-dot rank-4" data-city="Bridgeport" data-rank="4"/>
</svg>