<svg xmlns="http://www.w3.org/2000/svg" viewBox="0 0 400 300" class="state-outline-svg">
  <path d="M 232.84 297.18 L 235.25 293.79 L 238.41 291.95 L 241.92 290.46 L 242.46 289.68 L 247.56 287.40 L 253.10 289.72 L 255.57 292.97 L 251.61 294.42 L 249.22 294.99 L 247.54 294.22 L 244.61 295.08 L 241.49 296.20 L 237.89 297.58 L 232.80 298.11 L 232.84 297.18 Z M 224.71 298.20 L 225.95 296.70 L 230.56 296.56 L 228.55 300.00 L 224.19 299.98 L 224.71 298.20 Z M 217.79 296.94 L 219.55 295.03 L 221.84 296.32 L 221.28 298.59 L 218.13 298.75 L 217.79 296.94 Z M 1.71 41.97 L 1.44 40.13 L 1.44 40.13 L 4.61 40.13 L 8.36 40.11 L 12.90 40.09 L 18.84 40.07 L 18.88 40.07 L 28.27 40.12 L 32.11 40.13 L 33.96 40.15 L 37.85 40.18 L 42.84 40.22 L 49.83 40.25 L 50.78 40.25 L 57.88 40.26 L 63.97 40.28 L 69.62 40.29 L 75.38 40.22 L 82.19 40.15 L 85.44 40.11 L 85.83 40.11 L 92.03 40.05 L 99.52 40.00 L 104.11 40.00 L 105.26 40.00 L 105.11 40.95 L 106.01 42.55 L 107.93 44.88 L 107.98 46.66 L 108.63 49.14 L 110.77 51.56 L 110.82 51.56 L 112.83 51.64 L 126.37 52.31 L 130.12 52.47 L 133.92 52.63 L 140.34 52.90 L 141.99 52.98 L 145.04 53.14 L 152.50 53.52 L 155.59 53.68 L 160.87 53.96 L 165.33 54.20 L 171.02 54.54 L 172.96 54.65 L 179.86 55.07 L 180.07 55.08 L 190.23 55.66 L 197.74 56.11 L 201.96 56.36 L 206.92 56.65 L 206.93 56.65 L 208.56 56.78 L 216.57 57.45 L 216.14 59.19 L 217.27 61.04 L 216.90 63.04 L 218.11 65.27 L 219.58 65.48 L 221.52 65.59 L 223.27 65.28 L 223.68 65.21 L 223.63 63.89 L 224.18 62.12 L 224.57 58.77 L 224.68 55.95 L 223.33 53.80 L 223.64 52.33 L 224.00 50.00 L 225.51 48.58 L 227.58 46.93 L 229.07 47.17 L 229.21 47.19 L 230.56 48.31 L 232.96 48.42 L 234.77 49.07 L 236.02 50.04 L 238.57 50.24 L 239.97 50.84 L 242.83 51.40 L 244.17 51.09 L 245.01 51.11 L 247.54 51.63 L 248.20 52.10 L 247.58 55.98 L 247.94 59.12 L 248.14 59.77 L 248.26 60.15 L 248.87 60.74 L 249.44 66.42 L 250.32 69.90 L 253.74 83.40 L 254.48 84.69 L 254.82 87.12 L 255.03 88.62 L 256.88 93.18 L 258.75 97.79 L 261.18 102.92 L 263.43 107.69 L 266.65 114.08 L 269.00 117.43 L 273.81 124.98 L 276.19 128.35 L 279.40 132.88 L 281.93 136.08 L 284.28 141.61 L 281.77 143.55 L 281.01 146.53 L 281.12 149.68 L 281.69 152.86 L 283.38 158.03 L 287.38 165.56 L 289.94 170.37 L 292.04 176.07 L 292.61 177.68 L 295.13 184.78 L 297.36 189.45 L 299.14 193.20 L 299.74 195.51 L 300.61 197.07 L 301.96 201.14 L 303.43 205.59 L 303.78 207.76 L 303.93 208.69 L 303.99 209.10 L 303.85 212.92 L 303.86 214.16 L 303.86 215.46 L 303.72 217.18 L 303.26 219.57 L 302.81 222.90 L 302.24 227.12 L 301.86 229.98 L 300.93 236.22 L 300.90 236.46 L 300.76 239.27 L 300.68 240.94 L 300.67 241.04 L 300.56 243.32 L 300.70 244.98 L 300.70 245.04 L 300.88 247.22 L 300.33 249.43 L 299.08 253.32 L 298.20 252.54 L 296.12 250.64 L 294.65 253.61 L 293.22 255.41 L 292.73 258.38 L 292.64 258.64 L 291.80 261.32 L 292.87 264.35 L 295.89 263.06 L 298.24 259.10 L 298.75 261.85 L 296.11 266.25 L 295.74 266.87 L 290.96 273.81 L 285.41 279.96 L 279.24 285.29 L 266.64 291.61 L 261.16 293.15 L 259.35 291.51 L 263.74 289.03 L 271.39 285.86 L 280.85 279.65 L 284.62 276.12 L 285.26 273.67 L 285.47 271.94 L 283.59 271.68 L 279.27 272.37 L 276.86 273.83 L 275.38 274.04 L 272.80 272.49 L 270.96 272.84 L 270.27 272.96 L 268.65 274.28 L 264.91 274.92 L 262.10 275.18 L 259.60 272.62 L 258.46 270.10 L 259.37 266.63 L 259.42 263.64 L 256.97 259.74 L 255.68 255.98 L 253.70 253.00 L 251.06 251.80 L 249.95 248.88 L 247.61 247.81 L 246.41 247.27 L 240.71 244.19 L 239.69 244.85 L 238.40 245.68 L 236.22 243.66 L 235.01 239.93 L 232.95 233.86 L 231.52 226.85 L 231.45 226.74 L 228.36 222.49 L 227.04 221.86 L 224.75 221.87 L 222.31 223.07 L 220.24 222.50 L 218.08 220.91 L 215.50 215.91 L 214.74 212.02 L 214.73 209.69 L 214.09 208.39 L 212.74 205.63 L 210.55 202.12 L 207.21 196.79 L 204.65 191.65 L 203.73 189.80 L 200.90 186.02 L 199.39 184.38 L 197.65 182.48 L 195.60 178.73 L 196.53 178.82 L 199.29 179.05 L 201.93 176.13 L 203.20 174.16 L 204.75 171.75 L 206.21 171.06 L 208.04 169.25 L 207.36 167.58 L 206.38 167.27 L 205.72 167.07 L 203.16 166.04 L 202.66 166.52 L 201.86 167.31 L 200.41 168.78 L 200.32 170.67 L 199.22 171.96 L 197.12 174.96 L 196.00 175.46 L 195.78 172.84 L 195.47 170.72 L 193.71 168.31 L 191.46 165.81 L 191.69 162.49 L 192.19 159.22 L 192.20 159.18 L 191.29 155.88 L 190.95 153.10 L 190.94 153.02 L 194.76 150.21 L 196.06 146.98 L 197.42 143.18 L 197.69 142.66 L 198.72 140.61 L 199.05 138.20 L 198.59 135.09 L 198.57 132.23 L 198.57 132.17 L 196.83 131.15 L 196.80 127.98 L 196.11 125.99 L 197.77 123.77 L 196.37 121.86 L 195.10 119.96 L 194.95 119.73 L 194.93 117.83 L 192.38 116.04 L 193.37 115.42 L 192.24 113.66 L 188.24 113.24 L 185.48 112.88 L 184.68 114.98 L 183.20 114.76 L 182.17 112.12 L 182.34 110.08 L 181.03 109.24 L 178.71 108.44 L 178.54 108.39 L 178.31 106.21 L 177.23 104.23 L 175.71 102.68 L 173.54 102.49 L 173.02 101.25 L 169.27 99.07 L 169.13 96.18 L 168.77 93.36 L 168.74 93.19 L 165.99 92.07 L 163.83 91.09 L 162.01 88.52 L 160.33 85.73 L 158.17 83.27 L 153.79 80.93 L 148.08 78.45 L 145.65 76.44 L 145.31 76.17 L 142.82 75.96 L 142.30 76.05 L 140.35 76.39 L 138.18 77.09 L 137.02 76.62 L 133.76 77.72 L 130.70 79.67 L 131.53 81.22 L 131.69 81.52 L 132.00 83.06 L 131.38 84.14 L 128.39 83.89 L 126.53 83.03 L 123.91 83.61 L 122.25 84.50 L 122.75 87.60 L 121.19 88.57 L 117.65 89.49 L 114.27 92.32 L 110.29 93.78 L 103.55 96.53 L 99.07 94.29 L 96.55 93.35 L 94.97 92.76 L 91.26 93.62 L 89.25 89.66 L 88.70 86.30 L 89.97 83.17 L 89.80 83.05 L 88.32 82.02 L 85.85 81.56 L 82.49 78.95 L 81.32 77.76 L 77.49 76.14 L 72.92 72.88 L 65.53 69.26 L 65.37 69.19 L 61.77 67.87 L 56.47 66.27 L 49.48 64.92 L 48.90 64.80 L 40.06 64.17 L 33.40 64.64 L 31.36 64.78 L 28.63 65.26 L 19.17 66.91 L 16.24 67.23 L 14.68 67.40 L 12.61 67.30 L 8.60 68.13 L 4.66 68.80 L 7.30 66.25 L 8.12 63.89 L 10.73 62.55 L 8.81 61.73 L 7.61 59.72 L 8.14 58.01 L 9.35 55.85 L 9.39 53.73 L 7.70 52.32 L 4.45 50.49 L 3.71 49.32 L 0.00 45.39 L 1.71 41.97 Z" fill="none" stroke="currentColor" stroke-width="2" opacity="0.8" class="state-boundary" transform="translate(28.00, -0.00)"/>
  <circle cx="325.61" cy="249.48" r="12.0" fill="currentColor" opacity="0.2" class="metro-pulse rank-1"/>
  <circle cx="325.61" cy="249.48" r="8.0" fill="currentColor" opacity="0.9" class="metro-dot rank-1" data-city="Miami" data-rank="1"/>
  <circle cx="278.13" cy="138.46" r="10.8" fill="currentColor" opacity="0.2" class="metro-pulse rank-2"/>
  <circle cx="278.13" cy="138.46" r="6.8" fill="currentColor" opacity="0.9" class="metro-dot rank-2" data-city="Orlando" data-rank="2"/>
  <circle cx="235.03" cy="161.96" r="9.6" fill="currentColor" opacity="0.2" class="metro-pulse rank-3"/>
  <circle cx="235.03" cy="161.96" r="5.6" fill="currentColor" opacity="0.9" class="metro-dot rank-3" data-city="Tampa" data-rank="3"/>
  <circle cx="267.08" cy="66.73" r="8.4" fill="currentColor" opacity="0.2" class="metro-pulse rank-4"/>
  <circle cx="267.08" cy="66.73" r="4.4" fill="currentColor" opacity="0.9" class="metro-dot rank-4" data-city="Jacksonville" data-rank="4"/>
  <circle cx="327.79" cy="235.05" r="8.0" fill="currentColor" opacity="0.2" class="metro-pulse rank-5"/>
  <circle cx="327.79" cy="235.05" r="4.0" fill="currentColor" opacity="0.9" class="metro-dot rank-5" data-city="Fort Lauderdale" data-rank="5"/>
  <circle cx="331.15" cy="211.35" r="8.0" fill="currentColor" opacity="0.2" class="metro-pulse rank-6"/>
  <circle cx="331.15" cy="211.35" r="4.0" fill="currentColor" opacity="0.9" class="metro-dot rank-6" data-city="West Palm Beach" data-rank="6"/>
</svg>