<svg xmlns="http://www.w3.org/2000/svg" viewBox="0 0 400 300" class="state-outline-svg">
  <path d="M 0.00 40.90 L 7.33 40.95 L 12.34 40.99 L 13.52 40.97 L 18.36 40.88 L 19.06 40.87 L 31.38 40.77 L 35.04 40.75 L 35.20 40.75 L 41.68 40.72 L 44.53 40.72 L 46.47 40.71 L 49.18 40.71 L 55.12 40.69 L 61.42 40.71 L 71.91 40.69 L 82.69 40.71 L 89.65 40.73 L 93.50 40.74 L 93.51 40.74 L 111.24 40.79 L 115.21 40.66 L 118.92 40.55 L 127.90 40.27 L 139.90 40.00 L 139.01 42.55 L 138.10 44.24 L 134.71 46.50 L 131.83 48.25 L 130.02 49.95 L 127.83 51.82 L 128.05 53.51 L 126.19 55.24 L 126.39 55.89 L 126.93 57.61 L 127.00 57.86 L 130.41 59.94 L 133.58 61.89 L 137.32 63.11 L 140.22 65.96 L 140.55 66.29 L 143.15 68.33 L 143.28 68.43 L 146.26 69.60 L 146.47 69.57 L 150.14 69.07 L 153.05 69.65 L 154.84 73.67 L 155.88 75.96 L 158.29 79.45 L 158.61 79.91 L 160.27 82.35 L 160.78 84.00 L 161.93 87.77 L 166.00 91.52 L 168.68 95.32 L 168.85 95.57 L 170.47 98.51 L 170.82 99.13 L 173.27 99.60 L 177.86 103.52 L 183.84 106.16 L 188.62 111.15 L 189.92 113.57 L 190.83 115.26 L 192.95 117.89 L 194.04 118.18 L 195.59 118.60 L 196.06 118.73 L 200.44 121.57 L 201.09 122.46 L 202.53 124.41 L 206.15 126.17 L 206.49 129.09 L 205.79 132.86 L 210.64 135.08 L 210.62 138.25 L 210.62 138.56 L 215.27 140.70 L 215.33 141.05 L 215.74 143.62 L 221.16 146.33 L 223.54 147.10 L 224.34 147.36 L 227.57 149.62 L 229.92 151.26 L 230.06 155.26 L 232.05 157.83 L 234.48 161.57 L 234.90 166.44 L 234.93 166.73 L 235.99 171.53 L 235.80 174.21 L 236.37 174.58 L 239.63 176.70 L 242.13 177.49 L 242.65 177.65 L 247.14 182.08 L 247.13 185.09 L 248.33 186.58 L 250.60 189.38 L 250.88 192.66 L 249.45 194.83 L 249.78 195.41 L 251.37 198.22 L 251.70 201.80 L 255.91 203.41 L 257.68 202.48 L 261.24 204.90 L 264.47 206.21 L 266.84 206.79 L 266.55 208.80 L 263.03 211.30 L 261.34 213.02 L 258.04 216.17 L 255.99 218.64 L 253.74 221.52 L 250.73 223.68 L 250.47 224.36 L 250.24 224.96 L 250.57 229.25 L 248.36 233.03 L 248.26 233.94 L 248.12 235.21 L 246.09 238.25 L 243.56 241.52 L 242.40 244.50 L 243.43 247.15 L 243.24 247.67 L 242.20 250.49 L 240.97 252.63 L 237.42 256.53 L 235.52 257.15 L 235.57 260.10 L 234.49 263.24 L 234.94 264.69 L 235.16 265.43 L 235.35 269.32 L 233.39 274.19 L 232.27 277.07 L 233.17 280.45 L 229.63 279.71 L 228.45 279.68 L 226.58 280.12 L 222.57 279.33 L 220.61 278.49 L 217.02 278.21 L 215.28 276.85 L 212.75 275.95 L 209.38 275.79 L 207.49 274.22 L 207.29 274.19 L 205.20 273.85 L 202.30 276.17 L 200.19 278.15 L 199.67 281.42 L 199.24 283.48 L 201.14 286.50 L 200.99 290.45 L 200.44 295.15 L 199.66 297.62 L 199.73 299.47 L 199.16 299.57 L 196.71 300.00 L 193.99 299.85 L 191.93 299.56 L 190.23 296.42 L 190.76 293.63 L 189.16 291.03 L 189.77 288.59 L 178.54 287.66 L 176.27 287.48 L 176.25 287.48 L 169.29 287.06 L 163.38 286.71 L 152.86 286.09 L 138.62 285.27 L 138.33 285.26 L 128.65 284.68 L 125.94 284.51 L 117.97 284.04 L 111.71 283.71 L 104.31 283.31 L 99.98 283.09 L 89.53 282.56 L 85.25 282.34 L 82.94 282.22 L 73.95 281.84 L 68.61 281.62 L 63.36 281.40 L 44.39 280.45 L 41.56 280.35 L 41.49 280.34 L 38.50 276.95 L 37.59 273.48 L 37.51 270.98 L 34.82 267.71 L 33.57 265.47 L 33.77 264.14 L 33.27 261.18 L 32.73 259.95 L 31.92 258.12 L 27.89 253.73 L 27.85 249.69 L 28.88 247.65 L 28.93 246.88 L 28.98 246.16 L 28.73 243.85 L 30.21 240.01 L 29.90 237.93 L 31.01 235.07 L 31.56 233.66 L 30.66 232.19 L 30.65 229.43 L 26.88 225.24 L 27.25 223.12 L 26.88 221.43 L 26.67 220.46 L 25.96 217.15 L 27.52 214.12 L 30.11 209.97 L 30.35 208.60 L 31.03 204.66 L 31.27 203.25 L 30.62 200.52 L 34.04 197.75 L 37.83 195.87 L 38.40 195.21 L 39.97 193.38 L 36.39 191.00 L 33.46 189.28 L 34.84 187.79 L 34.97 186.90 L 35.49 183.33 L 33.92 179.73 L 33.85 179.56 L 33.51 178.79 L 30.00 175.47 L 29.65 174.07 L 28.95 171.28 L 27.51 167.21 L 26.93 166.03 L 24.89 161.82 L 23.58 159.88 L 23.48 159.39 L 20.89 146.05 L 20.65 144.85 L 17.42 128.13 L 16.82 125.06 L 16.31 122.42 L 14.96 115.51 L 13.71 109.08 L 12.24 101.58 L 11.56 98.08 L 10.32 91.54 L 9.84 89.06 L 7.96 80.04 L 7.29 76.81 L 5.75 69.48 L 5.16 66.71 L 4.39 63.09 L 3.97 61.12 L 2.45 54.04 L 1.25 47.86 L 0.56 44.29 L 0.00 40.90 Z" fill="none" stroke="currentColor" stroke-width="2" opacity="0.8" class="state-boundary" transform="translate(46.58, -0.00)"/>
  <circle cx="114.78" cy="110.14" r="12.0" fill="currentColor" opacity="0.2" class="metro-pulse rank-1"/>
  <circle cx="114.78" cy="110.14" r="8.0" fill="currentColor" opacity="0.9" class="metro-dot rank-1" data-city="Atlanta" data-rank="1"/>
  <circle cx="299.52" cy="203.61" r="10.8" fill="currentColor" opacity="0.2" class="metro-pulse rank-2"/>
  <circle cx="299.52" cy="203.61" r="6.8" fill="currentColor" opacity="0.9" class="metro-dot rank-2" data-city="Savannah" data-rank="2"/>
  <circle cx="248.01" cy="125.58" r="9.6" fill="currentColor" opacity="0.2" class="metro-pulse rank-3"/>
  <circle cx="248.01" cy="125.58" r="5.6" fill="currentColor" opacity="0.9" class="metro-dot rank-3" data-city="Augusta" data-rank="3"/>
  <circle cx="81.18" cy="182.31" r="8.4" fill="currentColor" opacity="0.2" class="metro-pulse rank-4"/>
  <circle cx="81.18" cy="182.31" r="4.4" fill="currentColor" opacity="0.9" class="metro-dot rank-4" data-city="Columbus" data-rank="4"/>
  <circle cx="172.52" cy="98.77" r="8.0" fill="currentColor" opacity="0.2" class="metro-pulse rank-5"/>
  <circle cx="172.52" cy="98.77" r="4.0" fill="currentColor" opacity="0.9" class="metro-dot rank-5" data-city="Athens" data-rank="5"/>
</svg>