<svg xmlns="http://www.w3.org/2000/svg" viewBox="0 0 400 300" class="state-outline-svg">
  <path d="M 278.18 242.84 L 281.06 240.38 L 283.02 238.20 L 284.83 237.77 L 287.06 235.77 L 288.59 232.79 L 290.97 230.36 L 292.60 229.44 L 293.03 226.58 L 291.38 224.16 L 288.72 220.11 L 287.91 216.57 L 288.71 211.39 L 291.19 210.31 L 294.79 211.47 L 298.89 213.54 L 301.06 215.60 L 305.49 218.16 L 308.10 220.05 L 310.69 219.58 L 314.42 220.74 L 322.04 223.85 L 329.80 227.34 L 336.67 232.41 L 339.45 235.10 L 341.99 237.88 L 341.67 243.11 L 341.94 246.31 L 344.70 245.53 L 347.28 245.57 L 348.96 248.79 L 349.41 252.59 L 351.21 254.47 L 357.47 258.16 L 360.00 259.42 L 359.89 261.37 L 355.88 265.84 L 351.40 269.24 L 346.35 272.59 L 340.21 275.28 L 337.13 276.76 L 334.07 277.25 L 330.18 276.37 L 326.95 277.93 L 323.82 280.69 L 321.83 281.21 L 317.67 284.47 L 314.24 285.40 L 310.93 289.94 L 308.58 294.03 L 307.04 296.49 L 305.45 298.39 L 303.20 300.00 L 299.62 296.56 L 294.32 293.61 L 289.32 292.11 L 287.15 287.97 L 287.30 282.67 L 287.93 277.42 L 288.70 274.74 L 288.84 271.48 L 287.49 267.02 L 286.46 264.47 L 284.69 262.30 L 283.50 257.71 L 282.92 254.25 L 281.62 251.96 L 279.55 251.47 L 279.27 250.21 L 277.21 246.13 L 278.18 242.84 Z M 235.12 167.32 L 236.37 163.37 L 240.43 160.22 L 244.20 160.99 L 247.12 165.07 L 249.61 168.81 L 254.76 167.64 L 259.43 165.61 L 265.41 166.18 L 268.58 169.22 L 272.69 171.25 L 277.51 174.61 L 281.24 175.61 L 282.44 179.00 L 281.35 182.06 L 278.57 184.26 L 272.87 186.73 L 267.55 186.67 L 262.64 188.79 L 256.46 189.99 L 252.87 188.68 L 252.09 184.85 L 251.11 179.50 L 250.86 178.36 L 250.11 175.92 L 247.96 175.35 L 245.85 176.74 L 244.74 176.23 L 239.63 173.90 L 235.92 169.30 L 235.12 167.32 Z M 237.06 191.21 L 241.02 188.97 L 243.91 188.23 L 245.51 189.87 L 245.73 193.35 L 242.64 194.41 L 237.17 194.87 L 234.96 193.03 L 237.06 191.21 Z M 211.32 167.80 L 214.58 166.72 L 219.38 167.01 L 223.64 169.04 L 226.03 171.10 L 227.92 173.96 L 225.95 177.66 L 222.50 178.96 L 221.26 179.32 L 217.36 179.61 L 215.86 176.91 L 215.78 173.55 L 214.52 171.70 L 211.29 169.70 L 211.32 167.80 Z M 196.88 151.57 L 198.70 149.85 L 197.97 147.12 L 201.85 147.54 L 206.75 148.72 L 212.59 149.42 L 214.29 148.77 L 216.30 148.01 L 217.70 148.01 L 220.46 150.87 L 220.68 150.87 L 225.73 150.94 L 232.31 150.39 L 234.51 151.55 L 232.50 154.69 L 228.34 157.62 L 223.38 158.80 L 218.29 157.68 L 213.50 156.17 L 209.90 155.31 L 203.87 156.06 L 198.51 156.26 L 194.66 155.33 L 196.88 151.57 Z M 133.62 123.39 L 140.68 123.20 L 143.71 120.46 L 145.65 117.61 L 149.51 115.17 L 151.08 114.86 L 154.00 118.93 L 157.13 123.96 L 159.80 126.96 L 159.24 131.15 L 161.33 132.90 L 164.60 131.51 L 167.38 131.65 L 167.26 135.35 L 168.17 138.32 L 172.07 141.27 L 171.85 141.57 L 170.66 143.24 L 168.87 144.58 L 165.08 143.65 L 163.58 144.49 L 161.61 144.99 L 158.87 143.22 L 156.29 141.76 L 152.27 141.36 L 150.23 141.14 L 147.38 141.58 L 143.15 142.27 L 142.16 142.33 L 140.43 139.22 L 140.33 138.95 L 139.71 137.30 L 137.13 135.28 L 136.91 133.58 L 133.57 129.77 L 133.69 127.37 L 130.61 123.73 L 133.62 123.39 Z M 30.86 91.53 L 33.41 89.37 L 34.38 86.56 L 36.04 85.28 L 42.26 82.49 L 44.28 81.03 L 46.74 81.14 L 48.94 82.35 L 50.45 80.63 L 54.17 81.26 L 56.11 80.42 L 58.82 81.65 L 62.08 83.70 L 63.36 87.68 L 61.69 91.76 L 60.61 93.07 L 60.74 95.87 L 60.40 99.06 L 57.25 101.63 L 53.30 104.53 L 47.87 103.52 L 44.71 102.93 L 42.81 102.97 L 39.73 100.21 L 35.89 98.40 L 32.77 97.30 L 30.66 94.58 L 30.86 91.53 Z M 0.00 108.07 L 1.37 103.17 L 3.69 100.97 L 7.46 99.23 L 8.43 98.29 L 9.07 96.14 L 11.76 95.61 L 12.66 96.07 L 13.15 97.08 L 11.88 98.22 L 10.85 100.64 L 11.30 102.71 L 8.30 103.99 L 6.19 104.58 L 4.96 105.97 L 3.96 107.59 L 2.90 110.43 L 1.27 109.76 L 0.00 108.07 Z" fill="none" stroke="currentColor" stroke-width="2" opacity="0.8" class="state-boundary" transform="translate(0.00, -20.21)"/>
  <circle cx="158.39" cy="121.52" r="12.0" fill="currentColor" opacity="0.2" class="metro-pulse rank-1"/>
  <circle cx="158.39" cy="121.52" r="8.0" fill="currentColor" opacity="0.9" class="metro-dot rank-1" data-city="Honolulu" data-rank="1"/>
  <circle cx="259.49" cy="155.21" r="10.8" fill="currentColor" opacity="0.2" class="metro-pulse rank-2"/>
  <circle cx="259.49" cy="155.21" r="6.8" fill="currentColor" opacity="0.9" class="metro-dot rank-2" data-city="Maui" data-rank="2"/>
  <circle cx="281.68" cy="231.93" r="9.6" fill="currentColor" opacity="0.2" class="metro-pulse rank-3"/>
  <circle cx="281.68" cy="231.93" r="5.6" fill="currentColor" opacity="0.9" class="metro-dot rank-3" data-city="Kona" data-rank="3"/>
</svg>