<svg xmlns="http://www.w3.org/2000/svg" viewBox="0 0 400 300" class="state-outline-svg">
  <path d="M 0.00 210.93 L 1.04 209.58 L 0.63 207.65 L 2.81 206.01 L 3.71 204.76 L 5.49 201.25 L 6.70 198.46 L 8.50 197.36 L 11.54 196.23 L 13.12 194.26 L 14.00 193.14 L 15.18 190.98 L 14.26 189.13 L 14.89 187.20 L 17.03 185.49 L 17.05 185.46 L 18.11 184.12 L 20.28 178.90 L 20.47 178.37 L 21.07 176.69 L 24.28 171.92 L 27.45 167.34 L 28.90 165.51 L 26.50 163.08 L 26.23 161.12 L 24.10 159.48 L 21.42 159.35 L 18.79 157.71 L 16.89 157.19 L 16.46 156.79 L 14.21 154.70 L 13.21 152.80 L 12.13 151.44 L 11.14 149.00 L 9.68 148.12 L 11.40 145.98 L 11.83 144.93 L 10.38 143.86 L 10.33 141.88 L 9.11 140.03 L 6.68 138.15 L 7.69 136.06 L 7.65 135.47 L 7.54 133.77 L 7.54 131.18 L 7.53 109.47 L 7.53 108.45 L 7.52 104.58 L 7.51 100.62 L 7.47 86.93 L 7.48 77.95 L 7.48 75.43 L 7.49 72.48 L 7.70 61.44 L 7.76 52.76 L 7.79 45.72 L 7.81 40.06 L 18.01 40.04 L 30.61 40.03 L 44.26 40.00 L 44.27 58.50 L 44.27 59.27 L 44.27 65.62 L 44.27 69.10 L 44.27 72.48 L 44.27 77.11 L 44.66 77.68 L 44.95 78.10 L 47.57 80.89 L 49.76 82.93 L 51.82 83.97 L 52.19 85.97 L 56.33 88.36 L 55.87 89.91 L 57.42 91.07 L 56.43 92.82 L 56.58 94.44 L 59.63 96.33 L 57.47 97.24 L 56.83 98.70 L 61.71 100.58 L 63.44 102.54 L 65.70 103.63 L 69.38 104.36 L 71.05 104.70 L 72.34 106.41 L 73.68 107.71 L 76.14 109.33 L 78.68 111.92 L 80.52 113.37 L 81.99 115.24 L 84.60 116.68 L 85.86 117.37 L 85.27 119.08 L 87.59 121.17 L 90.95 122.39 L 91.80 123.87 L 94.33 123.82 L 95.15 124.13 L 97.01 124.83 L 97.20 126.86 L 98.33 127.07 L 99.95 127.37 L 103.44 127.19 L 106.87 126.46 L 107.80 126.97 L 108.35 127.28 L 107.96 129.84 L 107.20 132.43 L 105.30 132.78 L 105.98 136.00 L 104.58 136.91 L 104.24 139.74 L 103.88 141.11 L 103.57 142.47 L 103.71 144.82 L 101.16 145.05 L 100.91 146.62 L 103.19 147.67 L 102.44 150.14 L 103.89 151.69 L 105.33 152.69 L 104.92 154.55 L 105.85 155.63 L 104.56 156.63 L 101.07 157.35 L 99.39 159.43 L 101.52 161.57 L 101.72 163.54 L 100.38 164.22 L 100.29 165.84 L 100.82 166.64 L 101.47 167.61 L 103.31 168.17 L 106.58 170.08 L 109.89 170.52 L 110.91 168.40 L 113.33 168.12 L 117.16 165.95 L 119.69 164.09 L 119.66 162.53 L 121.30 162.37 L 122.16 163.04 L 123.99 164.46 L 125.38 165.22 L 127.41 166.02 L 127.55 168.95 L 129.14 170.52 L 129.02 172.48 L 130.17 174.07 L 130.05 176.28 L 133.22 179.64 L 136.01 183.58 L 138.38 184.64 L 140.56 186.15 L 141.09 188.09 L 140.67 190.07 L 139.72 191.65 L 141.66 194.18 L 143.34 194.47 L 146.14 195.80 L 148.16 194.91 L 152.45 197.07 L 153.57 199.15 L 155.49 202.09 L 155.06 204.02 L 157.07 206.20 L 157.07 207.93 L 159.13 209.97 L 161.70 211.32 L 163.74 210.40 L 163.92 210.31 L 163.69 209.02 L 167.14 206.91 L 168.15 206.77 L 172.08 207.22 L 176.85 207.62 L 180.04 208.81 L 181.09 205.81 L 183.79 204.34 L 186.18 205.27 L 189.76 205.83 L 193.13 205.48 L 199.20 204.51 L 201.52 206.45 L 205.37 204.65 L 208.60 204.76 L 210.61 204.84 L 212.23 203.81 L 214.09 200.23 L 214.53 199.63 L 215.21 198.71 L 217.20 197.42 L 217.49 197.57 L 219.48 198.56 L 221.51 200.64 L 223.16 202.31 L 224.01 204.08 L 226.15 205.56 L 226.93 207.12 L 229.66 207.84 L 229.65 211.52 L 229.68 221.16 L 229.73 226.04 L 229.75 228.82 L 229.77 237.00 L 229.79 243.92 L 229.82 250.79 L 229.84 259.82 L 229.84 261.78 L 229.85 263.82 L 229.86 272.78 L 229.79 280.52 L 229.73 286.62 L 229.74 299.52 L 217.60 299.54 L 214.00 299.59 L 212.65 299.59 L 212.65 299.59 L 203.64 299.60 L 190.34 299.67 L 190.34 299.67 L 188.50 299.63 L 184.58 299.54 L 170.37 299.57 L 157.32 299.64 L 157.29 299.64 L 148.08 299.72 L 138.91 299.82 L 126.99 300.00 L 118.70 299.81 L 109.80 299.79 L 109.79 299.79 L 98.06 299.78 L 86.90 299.58 L 81.75 299.63 L 71.53 299.72 L 59.96 299.67 L 50.90 299.70 L 33.75 299.68 L 22.88 299.67 L 8.34 299.58 L 8.04 299.58 L 8.03 285.54 L 8.04 269.64 L 8.02 261.57 L 8.01 240.40 L 8.06 237.28 L 8.14 231.95 L 9.55 229.83 L 9.90 229.29 L 10.50 226.05 L 11.33 224.33 L 9.85 222.26 L 12.80 219.76 L 12.87 219.70 L 12.62 218.77 L 10.29 218.22 L 10.05 216.68 L 6.81 216.63 L 4.52 215.13 L 2.69 215.82 L 0.97 214.73 L 1.15 214.43 L 1.88 213.24 L 0.97 212.07 L 0.00 210.93 Z" fill="none" stroke="currentColor" stroke-width="2" opacity="0.8" class="state-boundary" transform="translate(65.07, -0.00)"/>
  <circle cx="103.66" cy="239.70" r="12.0" fill="currentColor" opacity="0.2" class="metro-pulse rank-1"/>
  <circle cx="103.66" cy="239.70" r="8.0" fill="currentColor" opacity="0.9" class="metro-dot rank-1" data-city="Boise" data-rank="1"/>
  <circle cx="96.64" cy="239.80" r="10.8" fill="currentColor" opacity="0.2" class="metro-pulse rank-2"/>
  <circle cx="96.64" cy="239.80" r="6.8" fill="currentColor" opacity="0.9" class="metro-dot rank-2" data-city="Meridian" data-rank="2"/>
  <circle cx="258.20" cy="245.20" r="9.6" fill="currentColor" opacity="0.2" class="metro-pulse rank-3"/>
  <circle cx="258.20" cy="245.20" r="5.6" fill="currentColor" opacity="0.9" class="metro-dot rank-3" data-city="Idaho Falls" data-rank="3"/>
  <circle cx="82.22" cy="89.06" r="8.4" fill="currentColor" opacity="0.2" class="metro-pulse rank-4"/>
  <circle cx="82.22" cy="89.06" r="4.4" fill="currentColor" opacity="0.9" class="metro-dot rank-4" data-city="Coeur d'Alene" data-rank="4"/>
</svg>