<svg xmlns="http://www.w3.org/2000/svg" viewBox="0 0 400 300" class="state-outline-svg">
  <path d="M 0.27 148.60 L 0.71 146.32 L 0.90 145.32 L 1.99 142.85 L 4.35 140.22 L 6.54 139.24 L 6.21 136.75 L 6.78 134.00 L 5.53 132.87 L 6.48 130.61 L 8.10 129.15 L 12.43 127.98 L 15.29 128.03 L 15.36 127.99 L 18.40 126.36 L 18.52 125.10 L 18.64 123.90 L 19.77 121.33 L 19.71 119.39 L 21.99 117.16 L 24.77 115.10 L 26.33 113.13 L 26.66 110.06 L 26.35 107.68 L 26.33 107.55 L 26.10 105.74 L 24.18 103.32 L 22.13 103.15 L 20.25 100.88 L 18.71 99.21 L 20.58 95.27 L 20.60 95.24 L 20.72 94.99 L 21.03 93.60 L 22.78 91.04 L 25.65 90.74 L 27.65 91.07 L 30.33 89.88 L 34.14 89.66 L 38.15 89.57 L 42.03 88.15 L 44.26 86.68 L 46.99 86.53 L 49.42 86.34 L 51.57 84.48 L 54.00 83.70 L 55.16 82.81 L 55.29 79.71 L 56.33 78.28 L 56.46 76.69 L 56.51 76.05 L 59.44 74.28 L 59.73 74.14 L 62.63 72.77 L 62.60 71.23 L 63.37 69.39 L 63.69 67.22 L 63.75 66.83 L 64.52 64.11 L 63.62 62.37 L 63.44 62.02 L 63.55 58.92 L 61.37 56.91 L 58.47 55.71 L 56.31 54.81 L 55.22 54.36 L 52.28 52.66 L 50.86 50.83 L 51.51 48.87 L 50.13 47.12 L 48.35 45.97 L 46.79 44.96 L 44.54 43.28 L 43.36 42.87 L 40.71 41.72 L 40.89 40.00 L 50.57 40.06 L 51.07 40.06 L 60.63 40.03 L 74.59 40.13 L 74.59 40.13 L 78.77 40.17 L 94.98 40.33 L 99.29 40.38 L 100.97 40.40 L 116.16 40.58 L 118.53 40.59 L 120.98 40.61 L 128.69 40.67 L 131.94 40.70 L 131.95 40.70 L 141.38 40.64 L 150.89 40.61 L 155.02 40.59 L 155.85 40.60 L 170.02 40.74 L 174.61 40.78 L 174.48 44.13 L 173.65 46.91 L 173.00 49.74 L 173.06 49.91 L 174.60 54.06 L 174.63 54.14 L 176.55 56.76 L 177.38 57.89 L 177.38 57.89 L 177.39 57.90 L 179.84 60.07 L 180.17 60.36 L 180.80 62.55 L 182.43 67.08 L 182.87 68.31 L 182.91 68.43 L 183.47 68.94 L 183.41 69.36 L 183.28 69.99 L 183.60 71.20 L 184.59 72.81 L 184.91 73.33 L 185.90 74.93 L 187.30 75.77 L 187.61 76.91 L 187.62 77.64 L 187.58 86.05 L 187.55 88.84 L 187.49 96.94 L 187.49 96.95 L 187.50 103.16 L 187.50 109.80 L 187.50 110.48 L 187.53 115.88 L 187.52 123.35 L 187.51 132.83 L 187.48 134.91 L 187.48 135.58 L 187.34 146.22 L 187.29 151.05 L 187.23 157.47 L 187.22 163.52 L 187.21 173.78 L 187.23 176.49 L 187.26 182.62 L 187.26 182.98 L 187.26 188.70 L 185.06 189.05 L 184.03 190.34 L 184.29 192.86 L 184.35 193.42 L 185.13 195.13 L 182.14 197.22 L 182.24 197.64 L 182.85 200.27 L 185.33 202.37 L 185.03 204.99 L 187.36 206.38 L 187.45 209.41 L 187.40 209.49 L 186.52 210.91 L 187.09 212.00 L 187.73 213.22 L 188.80 216.46 L 186.61 220.23 L 183.10 222.02 L 182.27 224.42 L 181.77 225.45 L 181.19 226.65 L 181.50 228.03 L 178.68 229.53 L 177.41 231.62 L 176.94 232.40 L 175.58 234.66 L 173.13 237.65 L 169.53 239.47 L 166.69 240.94 L 166.63 241.28 L 166.36 242.80 L 168.64 244.96 L 167.00 247.40 L 165.75 249.49 L 163.77 250.66 L 164.46 253.92 L 163.30 257.20 L 162.43 258.38 L 162.06 258.88 L 163.91 261.55 L 162.42 264.22 L 159.00 266.36 L 157.70 268.37 L 159.00 272.09 L 159.03 272.20 L 161.83 274.28 L 162.11 275.44 L 162.30 276.20 L 157.84 277.19 L 151.97 277.86 L 148.36 280.11 L 148.36 280.11 L 145.65 279.34 L 145.53 279.30 L 143.31 280.31 L 142.32 283.18 L 141.01 285.47 L 143.03 288.80 L 145.24 292.10 L 144.31 294.52 L 142.83 295.95 L 142.46 295.95 L 142.15 295.96 L 140.22 295.99 L 138.83 295.20 L 136.46 293.85 L 132.58 292.51 L 129.80 291.88 L 125.94 289.91 L 121.57 288.51 L 121.39 288.45 L 121.31 288.45 L 118.13 288.60 L 115.45 290.27 L 113.52 292.52 L 110.27 295.66 L 110.34 295.76 L 112.11 298.31 L 111.93 300.00 L 109.00 299.64 L 106.06 298.43 L 103.68 297.79 L 101.27 297.15 L 100.11 294.30 L 96.72 290.31 L 96.04 287.24 L 95.46 286.88 L 93.85 285.89 L 94.88 283.88 L 95.86 283.42 L 98.03 282.40 L 98.14 279.99 L 96.01 277.21 L 94.07 274.23 L 94.57 272.86 L 94.76 272.34 L 94.94 271.86 L 94.35 269.75 L 93.62 266.39 L 90.36 265.11 L 86.75 263.42 L 85.85 261.69 L 85.41 260.84 L 81.39 258.93 L 78.14 256.63 L 74.75 258.19 L 74.28 257.75 L 72.35 255.91 L 73.25 253.68 L 70.74 253.51 L 67.32 251.38 L 65.20 249.73 L 61.54 248.00 L 60.84 247.67 L 59.25 246.11 L 59.24 246.10 L 55.97 243.57 L 54.61 241.78 L 54.01 240.99 L 53.61 236.90 L 54.68 234.34 L 55.00 234.02 L 55.13 233.90 L 57.54 231.48 L 58.37 228.77 L 58.85 227.73 L 59.12 227.13 L 59.42 226.48 L 62.45 223.34 L 62.61 221.08 L 62.60 221.06 L 61.95 219.76 L 61.26 217.95 L 63.30 215.76 L 63.31 215.75 L 65.59 214.20 L 65.80 212.15 L 61.38 209.83 L 60.30 209.26 L 58.13 208.86 L 57.08 208.67 L 52.51 206.94 L 49.92 206.88 L 49.12 206.86 L 47.60 209.28 L 44.99 211.14 L 43.12 210.94 L 40.21 208.81 L 40.01 208.13 L 39.31 205.81 L 37.56 202.52 L 39.09 200.33 L 37.83 197.96 L 37.10 194.52 L 36.79 193.02 L 31.61 189.05 L 27.13 186.27 L 27.03 186.21 L 22.29 183.97 L 21.06 181.79 L 19.37 179.72 L 17.11 179.38 L 15.89 177.21 L 15.48 176.92 L 11.09 173.74 L 9.70 172.78 L 6.78 170.76 L 6.93 169.37 L 7.08 168.01 L 5.37 166.43 L 3.57 165.28 L 3.90 162.36 L 3.53 160.59 L 3.52 160.54 L 1.31 157.11 L 0.67 154.33 L 0.00 150.00 L 0.27 148.60 Z" fill="none" stroke="currentColor" stroke-width="2" opacity="0.8" class="state-boundary" transform="translate(85.60, -0.00)"/>
  <circle cx="268.24" cy="69.66" r="12.0" fill="currentColor" opacity="0.2" class="metro-pulse rank-1"/>
  <circle cx="268.24" cy="69.66" r="8.0" fill="currentColor" opacity="0.9" class="metro-dot rank-1" data-city="Chicago" data-rank="1"/>
  <circle cx="235.77" cy="75.19" r="10.8" fill="currentColor" opacity="0.2" class="metro-pulse rank-2"/>
  <circle cx="235.77" cy="75.19" r="6.8" fill="currentColor" opacity="0.9" class="metro-dot rank-2" data-city="Aurora" data-rank="2"/>
  <circle cx="243.60" cy="75.65" r="9.6" fill="currentColor" opacity="0.2" class="metro-pulse rank-3"/>
  <circle cx="243.60" cy="75.65" r="5.6" fill="currentColor" opacity="0.9" class="metro-dot rank-3" data-city="Naperville" data-rank="3"/>
  <circle cx="173.19" cy="168.29" r="8.4" fill="currentColor" opacity="0.2" class="metro-pulse rank-4"/>
  <circle cx="173.19" cy="168.29" r="4.4" fill="currentColor" opacity="0.9" class="metro-dot rank-4" data-city="Springfield" data-rank="4"/>
  <circle cx="199.36" cy="51.17" r="8.0" fill="currentColor" opacity="0.2" class="metro-pulse rank-5"/>
  <circle cx="199.36" cy="51.17" r="4.0" fill="currentColor" opacity="0.9" class="metro-dot rank-5" data-city="Rockford" data-rank="5"/>
</svg>