<svg xmlns="http://www.w3.org/2000/svg" viewBox="0 0 400 300" class="state-outline-svg">
  <path d="M 0.51 293.55 L 1.73 291.92 L 3.32 287.37 L 2.38 282.87 L 5.12 281.25 L 6.85 278.35 L 9.11 274.97 L 5.96 271.99 L 6.33 269.87 L 6.41 269.41 L 10.34 267.38 L 15.33 264.86 L 18.71 260.72 L 20.59 257.59 L 21.25 256.50 L 23.01 253.62 L 26.91 251.53 L 26.48 249.63 L 27.29 247.97 L 27.98 246.54 L 29.12 243.22 L 33.98 240.74 L 37.02 235.52 L 35.54 231.04 L 34.65 229.35 L 33.86 227.85 L 35.08 225.87 L 35.15 225.76 L 35.03 221.58 L 31.79 219.64 L 32.22 216.02 L 28.78 213.12 L 27.94 209.47 L 27.80 208.89 L 31.93 206.00 L 30.86 203.63 L 30.78 202.86 L 30.41 199.37 L 31.85 197.58 L 34.89 197.09 L 34.89 189.18 L 34.88 188.68 L 34.84 180.20 L 34.82 176.45 L 34.83 162.25 L 34.84 153.87 L 34.93 144.99 L 34.99 138.30 L 35.18 123.57 L 35.20 122.64 L 35.23 119.76 L 35.24 106.64 L 35.25 96.31 L 35.22 88.83 L 35.22 87.89 L 35.21 78.69 L 35.20 70.10 L 35.20 70.09 L 35.29 58.88 L 35.32 55.01 L 35.38 43.38 L 38.85 45.69 L 42.43 44.69 L 45.71 48.51 L 52.48 49.11 L 55.00 48.55 L 61.31 47.16 L 67.69 45.57 L 73.88 42.85 L 75.42 42.17 L 80.91 40.00 L 92.86 40.04 L 92.95 40.04 L 100.49 40.04 L 101.95 40.04 L 119.90 40.01 L 119.91 40.01 L 130.55 40.04 L 148.21 40.08 L 148.22 40.08 L 156.78 40.07 L 180.72 40.03 L 184.59 40.03 L 186.93 40.02 L 211.14 40.00 L 212.39 40.00 L 212.38 44.18 L 212.45 54.98 L 212.49 61.76 L 212.50 62.92 L 212.53 71.84 L 212.53 73.06 L 212.56 81.60 L 212.59 90.20 L 212.60 94.55 L 212.63 107.21 L 212.63 107.21 L 212.61 117.36 L 212.61 121.95 L 212.58 124.32 L 212.50 131.65 L 212.50 131.66 L 212.45 134.43 L 212.20 147.65 L 212.11 154.30 L 212.03 160.04 L 211.85 172.43 L 211.85 172.43 L 211.75 182.78 L 211.72 185.76 L 211.64 194.24 L 211.54 199.88 L 211.54 199.88 L 211.46 204.95 L 211.46 212.88 L 208.82 214.66 L 206.44 216.33 L 207.72 217.71 L 209.55 219.69 L 210.65 222.26 L 207.71 224.93 L 208.58 225.36 L 210.79 226.44 L 213.66 227.42 L 212.86 228.92 L 212.56 229.47 L 211.93 233.68 L 209.07 233.41 L 202.19 234.20 L 198.38 235.47 L 195.06 236.58 L 190.18 239.58 L 187.55 240.09 L 186.61 239.45 L 184.21 237.82 L 181.81 236.60 L 178.09 237.02 L 177.54 237.08 L 173.67 236.94 L 170.52 238.41 L 171.18 241.93 L 171.34 245.91 L 171.65 246.69 L 172.68 249.29 L 171.55 250.74 L 171.54 250.75 L 168.86 252.04 L 167.26 254.38 L 161.47 255.53 L 159.27 257.71 L 158.43 260.23 L 157.67 262.54 L 155.23 265.63 L 150.84 267.42 L 148.01 266.77 L 146.60 266.44 L 145.07 269.25 L 141.48 272.59 L 141.41 273.15 L 140.80 277.64 L 139.68 283.00 L 137.77 283.90 L 136.19 284.64 L 134.80 285.44 L 132.45 286.80 L 128.39 284.29 L 121.18 283.44 L 116.48 278.45 L 113.71 275.27 L 111.42 276.06 L 109.41 276.75 L 106.39 279.19 L 106.36 279.22 L 103.90 281.86 L 102.85 282.02 L 100.65 282.37 L 100.43 286.94 L 101.46 291.19 L 95.57 290.94 L 94.56 294.45 L 92.51 293.67 L 91.75 293.37 L 87.59 291.86 L 83.83 287.70 L 81.82 285.05 L 81.65 285.12 L 77.59 286.77 L 74.21 289.10 L 70.96 289.71 L 68.84 290.10 L 66.70 293.00 L 65.74 296.10 L 62.63 300.00 L 60.55 297.42 L 57.78 295.20 L 52.89 293.51 L 51.90 292.98 L 49.71 291.81 L 47.90 290.84 L 42.25 288.47 L 40.29 289.18 L 37.84 290.06 L 33.61 289.72 L 29.88 291.46 L 28.75 294.51 L 25.12 294.25 L 23.07 292.48 L 22.38 291.90 L 16.89 293.00 L 12.69 290.01 L 9.48 290.87 L 9.25 291.41 L 8.42 293.29 L 10.65 296.74 L 8.56 298.56 L 6.32 299.07 L 2.56 297.94 L 0.00 294.24 L 0.51 293.55 Z" fill="none" stroke="currentColor" stroke-width="2" opacity="0.8" class="state-boundary" transform="translate(73.17, -0.00)"/>
  <circle cx="197.50" cy="169.71" r="12.0" fill="currentColor" opacity="0.2" class="metro-pulse rank-1"/>
  <circle cx="197.50" cy="169.71" r="8.0" fill="currentColor" opacity="0.9" class="metro-dot rank-1" data-city="Indianapolis" data-rank="1"/>
  <circle cx="263.84" cy="84.34" r="10.8" fill="currentColor" opacity="0.2" class="metro-pulse rank-2"/>
  <circle cx="263.84" cy="84.34" r="6.8" fill="currentColor" opacity="0.9" class="metro-dot rank-2" data-city="Fort Wayne" data-rank="2"/>
  <circle cx="105.49" cy="286.72" r="9.6" fill="currentColor" opacity="0.2" class="metro-pulse rank-3"/>
  <circle cx="105.49" cy="286.72" r="5.6" fill="currentColor" opacity="0.9" class="metro-dot rank-3" data-city="Evansville" data-rank="3"/>
  <circle cx="191.39" cy="45.46" r="8.4" fill="currentColor" opacity="0.2" class="metro-pulse rank-4"/>
  <circle cx="191.39" cy="45.46" r="4.4" fill="currentColor" opacity="0.9" class="metro-dot rank-4" data-city="South Bend" data-rank="4"/>
  <circle cx="200.11" cy="156.03" r="8.0" fill="currentColor" opacity="0.2" class="metro-pulse rank-5"/>
  <circle cx="200.11" cy="156.03" r="4.0" fill="currentColor" opacity="0.9" class="metro-dot rank-5" data-city="Carmel" data-rank="5"/>
</svg>