<svg xmlns="http://www.w3.org/2000/svg" viewBox="0 0 400 300" class="state-outline-svg">
  <path d="M 0.16 166.70 L 2.60 164.01 L 4.82 161.19 L 4.68 159.51 L 4.61 158.74 L 6.91 156.69 L 5.80 155.68 L 7.33 154.16 L 6.28 152.22 L 9.24 150.69 L 9.58 149.86 L 10.29 148.12 L 9.21 146.48 L 8.28 142.17 L 5.70 142.17 L 3.98 140.71 L 3.65 140.14 L 2.55 138.28 L 5.24 137.78 L 5.58 135.16 L 5.73 133.03 L 1.69 130.34 L 2.23 128.37 L 1.43 126.65 L 9.52 126.66 L 23.66 126.66 L 31.73 126.67 L 42.40 126.68 L 43.88 126.68 L 63.18 126.67 L 64.97 126.66 L 68.67 126.65 L 78.27 126.63 L 94.95 126.65 L 97.19 126.65 L 98.28 126.65 L 121.14 126.65 L 124.04 126.65 L 131.96 126.67 L 147.35 126.70 L 165.24 126.71 L 169.23 126.71 L 173.63 126.71 L 188.54 126.70 L 198.51 126.70 L 199.89 126.70 L 208.45 126.70 L 226.05 126.66 L 226.06 126.66 L 231.84 126.66 L 246.84 126.64 L 252.34 126.64 L 266.49 126.64 L 271.74 126.64 L 278.37 126.64 L 285.02 126.64 L 300.20 126.65 L 299.39 129.40 L 300.59 131.15 L 301.22 132.06 L 300.77 133.69 L 303.69 135.85 L 306.33 137.03 L 309.07 140.34 L 307.43 142.12 L 304.84 144.76 L 302.56 146.96 L 302.57 149.98 L 302.59 152.29 L 303.45 155.14 L 303.65 155.78 L 304.62 159.78 L 306.80 161.97 L 308.36 166.90 L 311.33 170.01 L 315.53 171.99 L 318.01 172.52 L 320.48 173.05 L 326.52 174.12 L 328.90 175.18 L 330.46 177.95 L 332.12 181.73 L 331.90 183.76 L 335.03 185.12 L 336.42 185.60 L 339.07 187.58 L 340.92 188.77 L 343.03 190.14 L 344.65 192.20 L 343.88 194.51 L 345.56 196.67 L 349.03 198.67 L 350.31 199.21 L 352.87 200.27 L 356.29 201.68 L 358.86 204.05 L 358.73 207.72 L 358.94 208.12 L 360.00 210.18 L 359.10 213.39 L 359.03 213.86 L 358.64 216.41 L 357.74 218.59 L 357.78 220.40 L 354.35 222.02 L 354.00 222.19 L 350.56 224.27 L 350.49 225.03 L 350.34 226.90 L 349.11 228.59 L 348.96 232.24 L 347.59 233.30 L 344.72 234.23 L 342.19 236.41 L 339.32 236.64 L 336.10 236.81 L 333.47 238.55 L 328.88 240.23 L 324.15 240.34 L 319.65 240.60 L 316.49 242.00 L 314.14 241.60 L 310.74 241.96 L 308.67 244.99 L 308.31 246.62 L 308.17 246.92 L 308.15 246.96 L 305.95 251.60 L 307.76 253.58 L 309.98 256.26 L 312.40 256.46 L 314.66 259.31 L 314.94 261.44 L 314.96 261.60 L 315.32 264.41 L 314.94 268.03 L 313.09 270.36 L 309.81 272.79 L 307.12 275.41 L 307.20 277.71 L 305.86 280.74 L 305.72 282.16 L 305.58 283.65 L 301.99 285.57 L 301.91 285.62 L 298.53 285.56 L 293.43 286.94 L 291.51 288.66 L 290.38 291.32 L 291.86 292.66 L 291.19 295.90 L 291.58 298.84 L 289.00 300.00 L 284.63 298.69 L 283.46 296.97 L 280.98 295.41 L 278.51 293.24 L 277.92 291.07 L 275.03 290.41 L 274.23 288.86 L 272.50 287.48 L 271.81 286.93 L 260.14 287.35 L 259.92 287.35 L 246.78 287.66 L 237.29 287.84 L 231.57 287.95 L 221.35 288.19 L 218.64 288.25 L 217.09 288.27 L 204.49 288.37 L 195.84 288.59 L 193.71 288.64 L 182.07 288.77 L 180.46 288.78 L 170.33 288.82 L 168.08 288.83 L 158.25 288.94 L 154.56 288.98 L 144.86 289.13 L 140.67 289.19 L 132.83 289.24 L 128.47 289.27 L 119.56 289.30 L 116.08 289.31 L 110.63 289.26 L 100.20 289.15 L 94.93 289.08 L 86.38 288.97 L 78.97 288.89 L 71.57 288.81 L 69.44 288.78 L 60.60 288.67 L 47.70 288.51 L 48.64 287.50 L 46.79 284.73 L 43.23 283.10 L 40.86 280.12 L 43.89 277.53 L 43.89 277.49 L 43.49 274.05 L 45.19 271.77 L 44.75 271.15 L 43.69 269.66 L 44.22 267.01 L 42.13 264.51 L 42.19 262.55 L 42.24 260.84 L 41.97 258.56 L 42.35 256.58 L 42.64 255.09 L 39.70 255.24 L 39.69 254.85 L 39.60 252.27 L 40.78 250.03 L 38.81 247.59 L 38.64 244.93 L 38.72 243.83 L 38.99 240.18 L 35.63 239.40 L 35.02 237.34 L 34.40 235.28 L 30.21 236.16 L 29.59 234.33 L 28.13 231.42 L 28.49 228.36 L 28.69 227.92 L 29.82 225.39 L 31.10 221.45 L 28.69 218.82 L 27.64 217.39 L 25.85 214.95 L 27.33 211.37 L 22.27 208.70 L 19.53 207.34 L 19.75 203.65 L 15.38 200.70 L 15.96 198.03 L 16.01 197.81 L 16.03 195.26 L 15.14 194.36 L 12.03 191.23 L 11.82 187.15 L 13.51 184.33 L 9.95 182.72 L 8.18 181.67 L 7.31 181.24 L 8.20 179.09 L 8.03 178.80 L 5.44 174.36 L 1.84 171.76 L 0.00 169.68 L 0.16 166.70 Z" fill="none" stroke="currentColor" stroke-width="2" opacity="0.8" class="state-boundary" transform="translate(0.00, -43.32)"/>
  <circle cx="166.55" cy="189.59" r="12.0" fill="currentColor" opacity="0.2" class="metro-pulse rank-1"/>
  <circle cx="166.55" cy="189.59" r="8.0" fill="currentColor" opacity="0.9" class="metro-dot rank-1" data-city="Des Moines" data-rank="1"/>
  <circle cx="275.33" cy="167.87" r="10.8" fill="currentColor" opacity="0.2" class="metro-pulse rank-2"/>
  <circle cx="275.33" cy="167.87" r="6.8" fill="currentColor" opacity="0.9" class="metro-dot rank-2" data-city="Cedar Rapids" data-rank="2"/>
  <circle cx="335.74" cy="193.10" r="9.6" fill="currentColor" opacity="0.2" class="metro-pulse rank-3"/>
  <circle cx="335.74" cy="193.10" r="5.6" fill="currentColor" opacity="0.9" class="metro-dot rank-3" data-city="Davenport" data-rank="3"/>
  <circle cx="282.85" cy="185.46" r="8.4" fill="currentColor" opacity="0.2" class="metro-pulse rank-4"/>
  <circle cx="282.85" cy="185.46" r="4.4" fill="currentColor" opacity="0.9" class="metro-dot rank-4" data-city="Iowa City" data-rank="4"/>
</svg>