<svg xmlns="http://www.w3.org/2000/svg" viewBox="0 0 400 300" class="state-outline-svg">
  <path d="M 0.00 154.74 L 10.60 154.75 L 24.59 154.76 L 30.92 154.77 L 35.12 154.77 L 36.57 154.77 L 47.84 154.78 L 62.39 154.78 L 63.36 154.78 L 75.99 154.81 L 89.67 154.81 L 90.43 154.81 L 108.02 154.82 L 116.95 154.80 L 117.10 154.80 L 123.06 154.79 L 138.63 154.79 L 143.14 154.79 L 144.04 154.79 L 160.48 154.78 L 165.91 154.77 L 171.19 154.78 L 182.31 154.78 L 191.86 154.78 L 198.82 154.78 L 204.15 154.78 L 206.29 154.79 L 223.72 154.79 L 225.97 154.80 L 243.35 154.82 L 247.82 154.82 L 249.88 154.82 L 253.16 154.82 L 269.37 154.84 L 269.67 154.84 L 280.50 154.86 L 280.51 154.86 L 284.60 154.87 L 290.89 154.86 L 291.53 154.86 L 302.27 154.87 L 302.44 154.87 L 323.90 154.89 L 325.43 154.89 L 329.15 157.60 L 333.43 159.94 L 336.37 161.56 L 339.40 159.84 L 340.63 159.79 L 342.65 159.69 L 343.76 160.86 L 346.16 163.26 L 346.20 163.54 L 346.53 165.85 L 347.05 166.98 L 345.17 168.21 L 341.70 168.25 L 341.69 170.02 L 338.50 171.64 L 338.18 173.53 L 338.03 174.43 L 336.61 175.32 L 334.83 176.42 L 335.90 177.41 L 337.90 179.29 L 341.17 181.89 L 341.96 182.80 L 342.88 183.86 L 345.67 184.21 L 344.74 187.53 L 347.20 189.93 L 348.72 191.48 L 349.98 193.21 L 350.35 193.44 L 352.76 194.94 L 355.73 194.25 L 358.46 195.59 L 359.52 195.64 L 360.00 195.67 L 359.26 197.67 L 359.23 201.02 L 359.21 204.03 L 359.18 210.52 L 359.15 215.66 L 359.15 215.79 L 359.03 224.98 L 358.99 228.36 L 358.99 228.36 L 358.99 232.65 L 359.00 239.93 L 358.94 248.51 L 358.93 249.62 L 358.91 252.00 L 358.75 266.74 L 358.75 267.18 L 358.75 268.13 L 358.77 279.84 L 358.76 282.09 L 358.75 283.33 L 358.73 291.93 L 358.74 296.93 L 358.74 299.72 L 354.17 299.72 L 340.53 299.69 L 339.94 299.69 L 336.76 299.69 L 324.74 299.70 L 320.63 299.70 L 315.10 299.70 L 312.63 299.70 L 302.34 299.70 L 295.52 299.70 L 293.77 299.70 L 292.01 299.70 L 281.55 299.71 L 267.91 299.73 L 266.68 299.73 L 255.86 299.72 L 238.93 299.71 L 236.66 299.72 L 225.21 299.72 L 221.48 299.72 L 206.69 299.73 L 205.07 299.73 L 193.34 299.75 L 190.13 299.75 L 178.78 299.76 L 178.44 299.76 L 169.25 299.74 L 157.31 299.70 L 147.26 299.70 L 141.03 299.69 L 127.63 299.69 L 125.26 299.68 L 121.16 299.67 L 115.54 299.66 L 99.25 299.59 L 98.89 299.59 L 94.70 299.59 L 72.34 299.63 L 68.45 299.66 L 57.72 299.73 L 53.39 299.75 L 47.55 299.78 L 40.55 299.80 L 27.33 299.88 L 23.96 299.89 L 7.21 299.97 L 1.14 300.00 L 0.46 300.00 L 0.47 297.97 L 0.47 294.52 L 0.47 287.21 L 0.47 280.88 L 0.48 268.57 L 0.48 264.73 L 0.47 264.03 L 0.36 245.95 L 0.34 238.74 L 0.34 238.44 L 0.33 232.86 L 0.30 221.72 L 0.29 217.74 L 0.25 200.88 L 0.22 196.72 L 0.13 185.11 L 0.09 175.73 L 0.08 175.45 L 0.02 163.63 L 0.00 154.74 Z" fill="none" stroke="currentColor" stroke-width="2" opacity="0.8" class="state-boundary" transform="translate(0.00, -57.37)"/>
  <circle cx="227.86" cy="209.13" r="12.0" fill="currentColor" opacity="0.2" class="metro-pulse rank-1"/>
  <circle cx="227.86" cy="209.13" r="8.0" fill="currentColor" opacity="0.9" class="metro-dot rank-1" data-city="Wichita" data-rank="1"/>
  <circle cx="356.19" cy="146.64" r="10.8" fill="currentColor" opacity="0.2" class="metro-pulse rank-2"/>
  <circle cx="356.19" cy="146.64" r="6.8" fill="currentColor" opacity="0.9" class="metro-dot rank-2" data-city="Overland Park" data-rank="2"/>
  <circle cx="358.32" cy="140.20" r="9.6" fill="currentColor" opacity="0.2" class="metro-pulse rank-3"/>
  <circle cx="358.32" cy="140.20" r="5.6" fill="currentColor" opacity="0.9" class="metro-dot rank-3" data-city="Kansas City" data-rank="3"/>
  <circle cx="307.72" cy="143.50" r="8.4" fill="currentColor" opacity="0.2" class="metro-pulse rank-4"/>
  <circle cx="307.72" cy="143.50" r="4.4" fill="currentColor" opacity="0.9" class="metro-dot rank-4" data-city="Topeka" data-rank="4"/>
</svg>