<svg xmlns="http://www.w3.org/2000/svg" viewBox="0 0 400 300" class="state-outline-svg">
  <path d="M 1.28 296.37 L 4.36 296.77 L 7.75 296.95 L 9.13 294.11 L 11.56 294.03 L 11.69 294.03 L 13.85 296.22 L 16.30 296.62 L 17.63 293.95 L 18.74 292.74 L 19.22 292.21 L 17.47 289.65 L 19.63 287.78 L 19.67 286.35 L 19.68 286.21 L 20.07 283.47 L 21.35 281.35 L 22.18 278.84 L 22.38 278.22 L 20.77 277.08 L 20.96 275.38 L 19.17 272.81 L 19.10 272.71 L 22.37 269.55 L 24.31 267.29 L 27.01 265.60 L 30.21 265.46 L 30.29 265.45 L 30.47 265.51 L 34.87 266.92 L 38.75 268.90 L 41.55 269.54 L 45.46 270.89 L 47.84 272.25 L 49.24 273.05 L 51.18 273.01 L 51.50 273.00 L 51.86 273.00 L 53.36 271.56 L 54.29 269.13 L 52.07 265.80 L 50.04 262.45 L 51.35 260.15 L 52.35 257.26 L 54.59 256.25 L 54.70 256.28 L 57.43 257.06 L 57.44 257.06 L 61.07 254.80 L 66.97 254.12 L 71.46 253.13 L 71.27 252.36 L 70.99 251.19 L 68.18 249.10 L 68.14 248.99 L 66.83 245.25 L 68.14 243.22 L 71.59 241.07 L 73.08 238.39 L 75.82 239.21 L 77.44 238.84 L 78.96 237.51 L 77.34 235.00 L 77.94 233.63 L 78.11 233.24 L 80.44 232.62 L 83.50 234.79 L 87.49 233.99 L 87.99 234.42 L 89.48 235.70 L 92.12 235.89 L 92.95 233.67 L 95.65 232.41 L 98.73 232.66 L 100.51 232.01 L 101.94 231.49 L 106.05 233.22 L 107.36 233.93 L 108.95 234.78 L 109.67 235.16 L 113.23 236.39 L 115.25 238.01 L 116.76 239.88 L 119.02 237.05 L 119.72 234.80 L 121.27 232.68 L 122.81 232.40 L 125.18 231.96 L 127.63 230.26 L 130.58 229.07 L 130.71 229.01 L 132.17 230.94 L 134.91 233.96 L 137.93 235.06 L 138.48 235.28 L 139.98 235.85 L 140.70 233.29 L 144.99 233.48 L 144.24 230.38 L 144.40 227.06 L 146.00 226.81 L 146.76 226.69 L 148.55 224.77 L 148.58 224.75 L 150.77 222.98 L 152.23 222.47 L 153.89 221.90 L 155.91 224.22 L 159.33 227.84 L 164.57 228.46 L 167.52 230.28 L 169.23 229.29 L 170.24 228.71 L 171.39 228.17 L 172.78 227.52 L 173.59 223.62 L 174.03 220.36 L 174.09 219.96 L 176.70 217.53 L 177.81 215.48 L 178.83 215.72 L 180.90 216.20 L 184.09 214.89 L 185.86 212.64 L 186.41 210.96 L 187.02 209.13 L 188.62 207.55 L 192.83 206.71 L 193.99 205.01 L 195.94 204.07 L 195.95 204.06 L 196.78 203.01 L 196.03 201.12 L 195.80 200.55 L 195.68 197.66 L 195.20 195.10 L 197.49 194.03 L 200.31 194.13 L 200.70 194.09 L 203.41 193.79 L 205.15 194.67 L 206.90 195.86 L 207.59 196.32 L 209.50 195.95 L 213.05 193.77 L 215.46 192.96 L 218.23 192.04 L 223.23 191.46 L 225.31 191.66 L 225.77 188.60 L 225.98 188.20 L 226.57 187.11 L 224.48 186.40 L 222.88 185.61 L 222.24 185.30 L 224.38 183.36 L 223.58 181.49 L 222.25 180.05 L 221.32 179.05 L 223.05 177.83 L 224.97 176.54 L 228.25 174.55 L 229.99 175.25 L 231.74 176.88 L 234.35 177.82 L 235.02 178.06 L 237.72 176.83 L 239.82 176.71 L 240.17 176.69 L 240.42 176.68 L 241.03 176.00 L 241.92 175.77 L 242.72 176.11 L 243.30 177.56 L 244.82 179.34 L 248.34 180.23 L 248.59 180.56 L 249.73 182.02 L 250.16 183.62 L 252.81 187.19 L 252.80 187.46 L 252.76 188.98 L 253.09 189.59 L 253.72 190.73 L 257.41 191.50 L 261.31 192.34 L 261.36 192.35 L 264.80 191.61 L 267.19 192.20 L 268.33 192.55 L 270.81 193.30 L 271.66 194.98 L 274.05 195.94 L 274.59 197.72 L 277.73 198.67 L 278.98 199.05 L 280.52 198.49 L 280.71 198.42 L 281.47 196.71 L 285.90 195.64 L 290.30 197.19 L 293.33 197.56 L 295.97 199.39 L 297.58 200.51 L 298.64 199.85 L 299.81 199.12 L 302.98 199.51 L 305.04 198.57 L 305.83 197.08 L 309.15 195.34 L 309.71 194.94 L 310.59 194.31 L 313.84 193.69 L 316.40 193.08 L 316.72 193.77 L 317.25 194.87 L 317.32 196.77 L 318.19 200.26 L 320.07 201.78 L 320.61 202.21 L 324.18 202.48 L 326.50 204.47 L 327.05 204.84 L 329.22 206.29 L 330.39 208.91 L 330.28 210.84 L 330.19 212.55 L 331.42 213.93 L 330.95 217.11 L 330.81 217.49 L 330.14 219.36 L 328.85 222.50 L 332.49 225.89 L 336.48 229.97 L 335.80 231.79 L 335.41 232.81 L 338.67 234.92 L 339.63 236.31 L 340.98 238.27 L 343.00 240.14 L 343.32 240.91 L 344.48 243.74 L 347.79 245.30 L 351.80 248.05 L 355.45 250.45 L 360.00 250.76 L 348.95 258.47 L 343.85 262.02 L 343.61 262.20 L 341.67 263.67 L 337.23 264.68 L 332.28 266.69 L 332.07 266.78 L 331.73 266.95 L 324.11 270.93 L 324.30 273.48 L 322.95 275.09 L 319.87 275.89 L 317.34 277.45 L 317.53 279.97 L 316.65 281.10 L 316.10 281.81 L 310.55 283.46 L 307.57 283.30 L 305.72 285.88 L 304.69 288.39 L 299.96 289.16 L 292.87 291.07 L 290.48 292.03 L 289.32 292.04 L 286.19 292.04 L 282.05 293.56 L 279.17 295.13 L 278.45 295.99 L 268.80 295.81 L 267.08 295.75 L 264.39 295.66 L 264.38 295.66 L 253.04 295.54 L 253.04 295.54 L 251.43 295.51 L 240.13 295.32 L 226.94 295.02 L 226.62 295.01 L 226.61 295.01 L 219.11 294.57 L 217.64 294.48 L 211.90 294.10 L 203.37 293.93 L 202.69 293.91 L 202.45 293.93 L 195.79 294.31 L 193.33 294.46 L 181.80 294.20 L 179.12 294.14 L 175.08 294.05 L 170.25 293.81 L 165.22 293.56 L 159.37 293.31 L 149.62 292.88 L 145.06 292.68 L 143.00 293.37 L 142.49 293.24 L 140.39 292.70 L 132.96 292.86 L 130.61 292.91 L 118.88 293.05 L 116.31 293.08 L 105.85 293.20 L 105.29 293.21 L 91.40 293.37 L 88.89 293.42 L 81.36 293.59 L 81.53 292.15 L 73.85 291.52 L 71.07 291.47 L 71.77 293.72 L 72.81 297.45 L 72.02 299.90 L 71.88 299.90 L 68.38 299.97 L 51.25 299.84 L 50.17 299.83 L 49.96 299.83 L 35.73 299.81 L 35.24 299.81 L 34.89 299.81 L 28.74 299.80 L 17.05 299.64 L 10.71 299.84 L 7.30 299.95 L 1.53 300.00 L 0.00 298.10 L 1.28 296.37 Z" fill="none" stroke="currentColor" stroke-width="2" opacity="0.8" class="state-boundary" transform="translate(0.00, -67.28)"/>
  <circle cx="180.54" cy="149.64" r="12.0" fill="currentColor" opacity="0.2" class="metro-pulse rank-1"/>
  <circle cx="180.54" cy="149.64" r="8.0" fill="currentColor" opacity="0.9" class="metro-dot rank-1" data-city="Louisville" data-rank="1"/>
  <circle cx="239.95" cy="159.68" r="10.8" fill="currentColor" opacity="0.2" class="metro-pulse rank-2"/>
  <circle cx="239.95" cy="159.68" r="6.8" fill="currentColor" opacity="0.9" class="metro-dot rank-2" data-city="Lexington" data-rank="2"/>
  <circle cx="146.34" cy="210.44" r="9.6" fill="currentColor" opacity="0.2" class="metro-pulse rank-3"/>
  <circle cx="146.34" cy="210.44" r="5.6" fill="currentColor" opacity="0.9" class="metro-dot rank-3" data-city="Bowling Green" data-rank="3"/>
  <circle cx="239.72" cy="110.29" r="8.4" fill="currentColor" opacity="0.2" class="metro-pulse rank-4"/>
  <circle cx="239.72" cy="110.29" r="4.4" fill="currentColor" opacity="0.9" class="metro-dot rank-4" data-city="Covington" data-rank="4"/>
</svg>