<svg xmlns="http://www.w3.org/2000/svg" viewBox="0 0 400 300" class="state-outline-svg">
  <path d="M 0.00 60.77 L 0.00 54.13 L 0.01 48.81 L 0.01 40.02 L 14.54 40.00 L 15.02 40.00 L 20.35 40.00 L 33.22 40.05 L 35.16 40.05 L 42.38 40.08 L 51.19 40.09 L 53.82 40.10 L 67.09 40.14 L 68.22 40.14 L 83.90 40.33 L 83.97 40.33 L 98.11 40.46 L 115.84 40.66 L 125.62 40.70 L 125.63 40.70 L 137.96 40.75 L 162.52 40.84 L 164.36 40.86 L 165.91 40.87 L 176.82 40.94 L 183.09 40.98 L 185.10 42.48 L 189.07 45.19 L 189.16 48.32 L 184.88 50.85 L 183.37 53.17 L 183.62 55.49 L 186.42 57.79 L 190.03 58.70 L 187.37 61.27 L 188.59 66.65 L 190.13 68.02 L 190.52 68.37 L 190.55 68.42 L 192.94 72.00 L 189.80 72.27 L 190.29 76.97 L 195.82 77.84 L 194.50 82.49 L 198.67 83.11 L 196.97 86.84 L 194.21 91.22 L 186.75 91.63 L 191.14 98.00 L 191.45 98.44 L 188.62 101.68 L 188.51 103.38 L 186.18 105.70 L 182.36 106.58 L 182.13 109.96 L 178.71 112.71 L 178.13 113.17 L 175.19 115.46 L 171.65 114.88 L 170.78 117.64 L 173.26 120.92 L 173.38 121.08 L 169.46 121.89 L 169.41 121.90 L 168.47 127.52 L 164.14 129.03 L 164.54 131.12 L 165.81 133.76 L 162.50 134.51 L 160.74 136.80 L 161.18 140.58 L 159.78 143.68 L 159.54 146.98 L 161.27 149.95 L 157.75 151.86 L 154.11 151.47 L 152.65 153.60 L 156.10 156.19 L 156.04 156.29 L 154.09 159.80 L 155.81 162.69 L 157.99 165.36 L 153.67 168.19 L 153.12 168.55 L 179.39 168.57 L 182.44 168.56 L 189.83 168.56 L 204.74 168.54 L 209.00 168.54 L 221.20 168.52 L 222.45 168.51 L 235.19 168.49 L 235.27 168.49 L 240.77 168.47 L 263.81 168.39 L 267.73 168.38 L 274.59 168.36 L 274.59 168.37 L 273.20 174.05 L 270.54 179.94 L 267.71 185.87 L 268.35 189.59 L 268.63 191.17 L 270.55 197.05 L 275.59 201.76 L 276.39 203.26 L 277.75 205.80 L 280.57 212.53 L 282.26 218.34 L 287.55 220.65 L 282.42 223.06 L 279.12 224.62 L 277.42 227.31 L 271.13 229.26 L 267.15 230.98 L 267.14 231.11 L 266.67 235.16 L 270.28 236.35 L 273.57 237.39 L 276.27 240.16 L 279.75 240.83 L 282.87 239.70 L 284.37 233.19 L 289.49 229.54 L 292.63 228.27 L 299.15 228.38 L 301.65 226.32 L 306.09 223.56 L 309.27 222.65 L 309.11 228.08 L 307.20 232.56 L 306.22 236.89 L 305.89 239.97 L 302.27 244.68 L 303.68 247.66 L 295.53 246.75 L 295.22 252.40 L 291.30 254.31 L 289.05 255.48 L 288.81 255.60 L 286.87 254.51 L 282.61 256.95 L 285.00 261.18 L 284.68 264.35 L 287.06 268.13 L 290.24 269.94 L 296.75 270.86 L 301.07 271.09 L 304.52 274.35 L 308.18 273.87 L 312.38 278.01 L 313.51 281.82 L 319.28 282.10 L 320.02 285.17 L 316.69 290.02 L 313.51 291.07 L 311.46 293.90 L 311.84 296.32 L 307.01 294.36 L 304.42 292.07 L 300.44 295.14 L 295.41 300.00 L 295.25 294.71 L 297.95 291.22 L 296.08 287.92 L 293.38 286.30 L 290.20 282.10 L 285.00 280.35 L 282.32 279.75 L 280.22 277.30 L 274.72 276.44 L 267.31 275.50 L 264.71 276.24 L 263.48 277.14 L 260.06 279.64 L 253.57 284.10 L 251.57 285.32 L 249.48 286.61 L 243.06 290.37 L 235.98 291.73 L 231.22 292.07 L 229.12 292.22 L 226.23 292.05 L 215.79 292.11 L 209.67 293.24 L 205.58 293.11 L 202.06 292.22 L 201.44 289.11 L 197.35 285.45 L 193.65 285.00 L 187.67 283.84 L 183.59 281.91 L 175.91 280.02 L 172.34 276.77 L 176.05 274.80 L 176.76 272.82 L 176.71 272.79 L 172.40 270.87 L 170.49 269.02 L 171.54 267.51 L 168.56 264.15 L 164.32 265.88 L 162.75 264.03 L 159.86 261.96 L 159.45 259.78 L 159.16 257.96 L 155.46 255.62 L 152.68 255.66 L 153.96 251.29 L 151.20 248.33 L 146.74 248.10 L 142.23 249.64 L 139.37 251.05 L 138.76 253.32 L 138.08 255.87 L 142.51 257.86 L 148.40 259.56 L 144.76 264.58 L 141.37 265.63 L 135.41 262.79 L 128.10 259.34 L 127.29 259.04 L 125.91 258.52 L 119.92 258.78 L 113.99 261.46 L 109.43 261.96 L 103.93 260.95 L 99.88 260.08 L 93.87 259.04 L 90.81 258.32 L 86.46 257.29 L 74.02 252.50 L 66.82 249.72 L 60.77 248.12 L 55.12 246.76 L 47.57 246.46 L 40.22 246.96 L 32.11 247.21 L 19.16 248.93 L 15.52 250.27 L 13.05 251.84 L 11.45 249.71 L 9.69 247.32 L 7.25 244.69 L 10.86 241.59 L 12.14 240.29 L 13.54 238.87 L 14.97 235.04 L 19.22 230.78 L 21.44 228.82 L 21.58 228.70 L 21.68 224.98 L 21.59 221.08 L 20.98 217.82 L 21.13 216.62 L 21.38 214.62 L 17.99 211.16 L 18.95 206.89 L 19.40 206.53 L 21.66 204.79 L 21.19 199.92 L 19.98 197.48 L 22.83 194.44 L 22.78 192.36 L 26.29 188.88 L 27.07 185.16 L 30.15 181.05 L 30.83 176.82 L 31.09 176.31 L 32.59 173.32 L 31.39 170.61 L 32.05 167.97 L 32.57 165.22 L 32.00 160.31 L 32.33 156.70 L 31.22 156.75 L 28.16 156.89 L 28.04 156.90 L 27.31 152.01 L 23.40 149.36 L 23.86 144.64 L 21.99 141.25 L 18.68 138.69 L 20.18 136.43 L 16.25 134.95 L 13.25 131.21 L 14.40 128.90 L 15.25 123.92 L 12.07 117.26 L 10.49 114.79 L 8.50 111.68 L 4.18 109.56 L 0.87 106.17 L 0.08 105.36 L 0.03 96.10 L 0.02 92.40 L 0.02 81.74 L 0.02 79.91 L 0.00 68.97 L 0.00 60.77 Z" fill="none" stroke="currentColor" stroke-width="2" opacity="0.8" class="state-boundary" transform="translate(19.99, 0.00)"/>
  <circle cx="272.73" cy="235.26" r="12.0" fill="currentColor" opacity="0.2" class="metro-pulse rank-1"/>
  <circle cx="272.73" cy="235.26" r="8.0" fill="currentColor" opacity="0.9" class="metro-dot rank-1" data-city="New Orleans" data-rank="1"/>
  <circle cx="201.74" cy="203.42" r="10.8" fill="currentColor" opacity="0.2" class="metro-pulse rank-2"/>
  <circle cx="201.74" cy="203.42" r="6.8" fill="currentColor" opacity="0.9" class="metro-dot rank-2" data-city="Baton Rouge" data-rank="2"/>
  <circle cx="38.63" cy="71.45" r="9.6" fill="currentColor" opacity="0.2" class="metro-pulse rank-3"/>
  <circle cx="38.63" cy="71.45" r="5.6" fill="currentColor" opacity="0.9" class="metro-dot rank-3" data-city="Shreveport" data-rank="3"/>
  <circle cx="148.75" cy="217.89" r="8.4" fill="currentColor" opacity="0.2" class="metro-pulse rank-4"/>
  <circle cx="148.75" cy="217.89" r="4.4" fill="currentColor" opacity="0.9" class="metro-dot rank-4" data-city="Lafayette" data-rank="4"/>
</svg>