<svg xmlns="http://www.w3.org/2000/svg" viewBox="0 0 400 300" class="state-outline-svg">
  <path d="M 127.71 251.19 L 130.62 250.04 L 132.14 253.29 L 129.81 256.01 L 126.50 254.15 L 127.71 251.19 Z M 0.00 167.22 L 2.70 166.84 L 4.21 164.90 L 7.96 165.68 L 10.16 167.77 L 11.30 171.14 L 14.16 171.42 L 14.78 169.21 L 15.03 168.32 L 16.28 166.86 L 15.64 165.10 L 16.42 163.02 L 15.27 161.62 L 17.88 159.79 L 19.41 159.96 L 20.93 161.67 L 24.00 161.97 L 26.56 162.60 L 26.51 159.99 L 24.18 158.53 L 21.32 155.11 L 23.40 151.94 L 25.68 149.92 L 29.13 148.00 L 31.40 145.80 L 31.40 145.80 L 37.66 143.66 L 41.41 141.83 L 39.51 138.80 L 40.64 137.48 L 44.59 134.80 L 48.77 132.62 L 49.16 130.11 L 48.40 128.36 L 45.58 128.41 L 46.17 126.22 L 45.31 125.03 L 45.95 122.53 L 48.34 120.19 L 49.92 117.72 L 46.89 115.17 L 48.98 111.59 L 50.33 109.34 L 51.93 108.43 L 51.83 106.57 L 54.55 104.81 L 57.08 103.44 L 59.34 101.88 L 60.91 100.78 L 62.73 92.25 L 64.26 85.05 L 74.82 74.42 L 89.73 59.64 L 97.25 52.25 L 110.21 40.00 L 113.99 40.36 L 116.82 41.26 L 120.89 42.07 L 120.03 44.69 L 120.84 52.54 L 125.20 54.45 L 129.07 56.48 L 134.83 54.26 L 142.38 52.68 L 146.58 52.28 L 147.53 50.37 L 152.34 49.49 L 155.14 50.12 L 160.13 49.75 L 159.62 47.70 L 160.96 46.00 L 166.40 46.12 L 170.26 46.94 L 173.27 48.46 L 177.44 50.95 L 182.45 54.15 L 185.16 55.43 L 188.90 60.01 L 194.77 63.14 L 194.77 79.16 L 194.85 90.57 L 195.23 109.64 L 195.32 123.88 L 195.35 129.81 L 197.10 131.01 L 193.95 133.88 L 196.30 136.21 L 193.95 139.07 L 195.24 142.05 L 194.00 145.14 L 193.97 145.20 L 199.46 145.11 L 201.53 147.98 L 204.12 148.54 L 209.84 150.08 L 214.54 149.53 L 216.42 151.45 L 216.79 155.60 L 213.27 155.88 L 212.83 158.56 L 216.21 163.19 L 214.24 167.52 L 213.07 169.43 L 214.66 171.03 L 218.38 176.17 L 221.37 177.86 L 223.84 176.61 L 225.44 173.99 L 229.41 175.15 L 231.94 175.65 L 234.82 178.64 L 236.10 181.22 L 236.62 183.53 L 239.49 188.84 L 242.44 191.00 L 241.89 194.20 L 244.43 196.08 L 239.92 198.99 L 237.13 200.54 L 234.57 202.66 L 231.43 205.26 L 227.62 206.73 L 224.12 208.98 L 219.69 207.48 L 217.88 208.78 L 214.95 208.92 L 212.39 211.53 L 210.65 214.26 L 211.72 216.21 L 207.19 219.04 L 203.94 215.61 L 202.85 213.32 L 199.69 214.73 L 194.55 215.16 L 191.92 216.94 L 190.91 219.61 L 188.28 221.11 L 186.10 220.10 L 185.66 220.35 L 183.59 221.53 L 181.52 221.34 L 179.43 224.86 L 176.21 222.87 L 174.91 221.52 L 171.16 222.31 L 172.08 224.99 L 170.99 226.28 L 168.77 228.63 L 172.03 231.05 L 164.22 230.53 L 163.73 232.75 L 162.77 238.05 L 156.41 237.54 L 152.61 238.51 L 150.92 239.10 L 147.81 240.18 L 145.86 243.81 L 143.49 244.18 L 142.76 239.90 L 136.24 241.00 L 130.66 242.91 L 128.83 239.84 L 127.04 236.70 L 129.80 234.98 L 127.06 232.41 L 126.06 231.48 L 121.97 230.79 L 120.84 230.59 L 119.99 234.27 L 118.74 236.72 L 121.33 239.74 L 119.19 242.06 L 120.62 244.04 L 118.66 245.97 L 115.44 245.82 L 112.87 245.77 L 110.63 249.06 L 108.86 249.21 L 106.66 251.53 L 104.23 252.88 L 102.25 249.27 L 100.72 247.74 L 99.96 246.99 L 98.26 248.96 L 97.31 249.76 L 93.46 254.01 L 90.54 253.79 L 89.01 254.86 L 84.73 256.01 L 82.07 256.47 L 80.82 256.69 L 78.63 259.55 L 75.48 260.49 L 73.94 262.07 L 72.66 261.87 L 72.24 258.66 L 70.75 258.21 L 69.08 257.71 L 65.05 259.52 L 64.01 261.53 L 60.38 261.36 L 59.87 261.33 L 58.86 263.04 L 58.41 263.79 L 54.14 263.62 L 52.81 265.37 L 51.25 268.26 L 51.90 270.57 L 49.57 271.63 L 45.10 272.36 L 44.06 272.31 L 42.73 272.25 L 41.29 274.74 L 44.74 276.43 L 41.39 279.12 L 40.56 280.44 L 39.47 282.19 L 36.54 283.42 L 35.97 283.38 L 33.48 283.20 L 32.51 283.79 L 31.34 284.51 L 29.49 287.57 L 29.97 290.06 L 30.04 290.42 L 28.84 293.87 L 27.28 295.58 L 24.71 299.03 L 22.47 300.00 L 19.37 298.81 L 15.63 296.25 L 15.13 295.90 L 15.32 292.91 L 15.32 292.91 L 16.01 290.69 L 12.50 287.56 L 9.46 284.33 L 5.89 281.30 L 6.83 278.16 L 7.28 275.51 L 7.64 273.39 L 7.10 271.60 L 6.58 269.82 L 6.39 267.21 L 6.03 262.09 L 5.72 256.65 L 5.56 253.92 L 4.88 238.92 L 4.45 229.11 L 4.35 227.57 L 4.30 226.56 L 4.16 224.26 L 3.81 218.37 L 3.60 214.84 L 2.79 200.86 L 1.54 185.28 L 0.00 167.22 Z" fill="none" stroke="currentColor" stroke-width="2" opacity="0.8" class="state-boundary" transform="translate(57.78, -0.00)"/>
  <circle cx="106.69" cy="264.57" r="12.0" fill="currentColor" opacity="0.2" class="metro-pulse rank-1"/>
  <circle cx="106.69" cy="264.57" r="8.0" fill="currentColor" opacity="0.9" class="metro-dot rank-1" data-city="Portland" data-rank="1"/>
  <circle cx="109.17" cy="238.47" r="10.8" fill="currentColor" opacity="0.2" class="metro-pulse rank-2"/>
  <circle cx="109.17" cy="238.47" r="6.8" fill="currentColor" opacity="0.9" class="metro-dot rank-2" data-city="Lewiston" data-rank="2"/>
  <circle cx="194.53" cy="197.01" r="9.6" fill="currentColor" opacity="0.2" class="metro-pulse rank-3"/>
  <circle cx="194.53" cy="197.01" r="5.6" fill="currentColor" opacity="0.9" class="metro-dot rank-3" data-city="Bangor" data-rank="3"/>
</svg>