<svg xmlns="http://www.w3.org/2000/svg" viewBox="0 0 400 300" class="state-outline-svg">
  <path d="M 279.10 291.18 L 282.26 290.28 L 284.47 292.86 L 284.10 298.27 L 279.08 297.02 L 279.10 291.18 Z M 0.20 184.21 L 0.37 169.01 L 0.83 153.64 L 7.66 153.61 L 35.80 153.49 L 45.30 153.49 L 55.05 153.48 L 61.92 153.48 L 89.75 153.51 L 92.80 153.51 L 92.82 153.51 L 112.59 153.53 L 114.46 153.53 L 139.38 153.61 L 163.67 153.71 L 163.68 153.71 L 164.49 153.71 L 182.27 153.71 L 184.13 153.71 L 201.79 153.72 L 202.46 153.73 L 219.00 153.65 L 224.79 153.62 L 236.66 153.61 L 248.86 153.61 L 263.41 153.60 L 263.91 153.60 L 263.93 153.60 L 271.84 153.59 L 300.00 153.55 L 301.76 181.50 L 301.76 181.51 L 302.28 188.06 L 302.61 192.12 L 303.28 200.53 L 305.31 225.94 L 306.57 241.71 L 306.57 241.72 L 307.04 247.77 L 307.16 249.23 L 307.70 255.93 L 325.09 256.45 L 336.29 256.55 L 348.93 256.67 L 360.00 256.65 L 357.03 266.95 L 355.62 267.98 L 352.35 275.37 L 349.58 282.71 L 348.25 285.47 L 344.32 291.05 L 313.32 293.72 L 309.64 297.25 L 305.35 295.58 L 300.39 295.48 L 294.15 299.88 L 291.56 300.00 L 291.05 295.32 L 294.41 290.11 L 294.30 288.38 L 293.90 285.06 L 287.95 283.18 L 287.53 278.08 L 293.87 276.96 L 292.95 275.43 L 291.89 273.67 L 289.04 273.28 L 287.35 273.04 L 279.69 272.58 L 280.26 278.05 L 281.88 283.34 L 282.37 286.99 L 278.90 286.22 L 275.10 283.10 L 275.66 277.63 L 271.86 274.42 L 265.20 268.46 L 261.95 266.90 L 262.57 263.87 L 260.09 260.55 L 255.57 253.33 L 260.34 249.30 L 259.32 247.09 L 260.17 243.81 L 264.10 243.45 L 266.38 243.71 L 269.43 243.76 L 269.05 241.27 L 268.64 238.64 L 266.60 238.84 L 263.49 235.43 L 260.54 235.44 L 256.70 238.15 L 254.62 237.59 L 255.23 234.01 L 251.19 231.85 L 252.05 229.31 L 257.70 228.62 L 260.82 224.16 L 265.06 227.36 L 267.35 225.95 L 266.88 223.84 L 266.22 220.84 L 266.33 217.95 L 262.50 217.96 L 257.06 219.33 L 255.76 223.47 L 252.33 224.27 L 253.51 217.07 L 256.71 211.62 L 258.37 208.92 L 261.35 209.82 L 264.05 210.63 L 263.91 204.72 L 262.86 202.44 L 260.26 200.31 L 263.13 194.83 L 265.71 190.25 L 268.44 187.91 L 269.90 184.89 L 273.89 181.94 L 277.86 180.68 L 279.53 180.16 L 282.29 178.51 L 281.85 175.38 L 279.80 175.42 L 277.91 175.45 L 270.98 179.26 L 264.67 183.52 L 258.79 187.71 L 256.45 190.00 L 254.46 191.95 L 250.77 193.34 L 248.35 195.45 L 245.25 195.43 L 242.42 195.52 L 241.97 195.97 L 240.20 197.70 L 248.08 201.45 L 248.63 205.53 L 248.75 208.72 L 250.88 211.22 L 246.43 213.53 L 244.62 215.66 L 246.32 216.91 L 244.78 219.63 L 244.40 220.03 L 243.05 221.48 L 240.92 224.21 L 243.11 225.22 L 240.10 229.41 L 237.53 231.90 L 240.13 234.49 L 240.09 235.44 L 239.95 239.40 L 241.38 243.31 L 240.87 249.52 L 242.88 254.09 L 246.27 257.37 L 250.94 261.66 L 251.46 263.95 L 250.39 267.31 L 250.17 267.99 L 252.47 269.22 L 251.00 273.81 L 254.17 278.80 L 256.88 282.03 L 256.02 285.20 L 256.72 290.29 L 252.69 286.80 L 247.94 283.57 L 243.83 283.86 L 239.02 280.84 L 234.94 275.88 L 228.22 274.24 L 222.82 274.17 L 217.47 272.79 L 215.76 272.30 L 212.74 271.44 L 208.05 268.00 L 203.72 265.08 L 201.60 259.03 L 200.40 257.11 L 195.61 258.80 L 191.73 259.94 L 184.60 262.38 L 180.64 257.90 L 181.73 249.59 L 186.83 244.53 L 191.26 243.42 L 191.17 241.74 L 190.98 238.60 L 194.77 236.04 L 195.28 235.70 L 197.42 235.67 L 198.41 233.40 L 198.43 232.68 L 198.55 229.55 L 198.57 229.04 L 203.40 225.29 L 209.08 220.83 L 201.53 214.93 L 198.40 212.50 L 192.02 217.46 L 192.02 217.46 L 189.84 215.04 L 185.31 214.74 L 181.47 213.28 L 181.58 209.95 L 181.58 209.95 L 176.53 207.92 L 174.96 207.60 L 172.55 207.11 L 164.21 205.95 L 162.69 203.57 L 159.56 202.33 L 159.45 199.07 L 162.31 197.08 L 164.43 194.40 L 164.41 194.38 L 161.45 191.77 L 156.86 189.48 L 154.02 187.64 L 147.70 186.42 L 146.76 186.34 L 143.37 186.07 L 141.22 183.48 L 141.70 179.55 L 136.98 173.55 L 135.95 171.52 L 134.91 169.48 L 134.42 164.50 L 126.62 162.84 L 120.07 163.36 L 118.37 161.79 L 113.94 157.69 L 102.36 158.69 L 95.22 160.95 L 93.62 161.15 L 89.55 161.66 L 85.07 166.42 L 83.22 169.47 L 82.63 169.45 L 72.70 169.13 L 67.48 167.98 L 63.25 167.05 L 60.66 162.68 L 58.06 160.35 L 51.58 167.19 L 44.15 173.23 L 43.00 176.42 L 36.60 173.74 L 34.02 173.78 L 32.09 173.81 L 25.99 179.62 L 18.21 185.67 L 16.48 187.02 L 10.80 189.58 L 5.07 193.63 L 0.00 195.43 L 0.20 184.21 Z" fill="none" stroke="currentColor" stroke-width="2" opacity="0.8" class="state-boundary" transform="translate(0.00, -56.74)"/>
  <circle cx="233.19" cy="131.84" r="12.0" fill="currentColor" opacity="0.2" class="metro-pulse rank-1"/>
  <circle cx="233.19" cy="131.84" r="8.0" fill="currentColor" opacity="0.9" class="metro-dot rank-1" data-city="Baltimore" data-rank="1"/>
  <circle cx="213.01" cy="138.87" r="10.8" fill="currentColor" opacity="0.2" class="metro-pulse rank-2"/>
  <circle cx="213.01" cy="138.87" r="6.8" fill="currentColor" opacity="0.9" class="metro-dot rank-2" data-city="Columbia" data-rank="2"/>
  <circle cx="199.62" cy="156.15" r="9.6" fill="currentColor" opacity="0.2" class="metro-pulse rank-3"/>
  <circle cx="199.62" cy="156.15" r="5.6" fill="currentColor" opacity="0.9" class="metro-dot rank-3" data-city="Silver Spring" data-rank="3"/>
  <circle cx="194.05" cy="156.64" r="8.4" fill="currentColor" opacity="0.2" class="metro-pulse rank-4"/>
  <circle cx="194.05" cy="156.64" r="4.4" fill="currentColor" opacity="0.9" class="metro-dot rank-4" data-city="Bethesda" data-rank="4"/>
</svg>