<svg xmlns="http://www.w3.org/2000/svg" viewBox="0 0 400 300" class="state-outline-svg">
  <path d="M 325.08 292.71 L 333.31 292.38 L 344.83 291.80 L 347.85 284.54 L 354.31 287.85 L 356.79 297.33 L 351.25 300.00 L 343.03 299.71 L 331.52 298.91 L 325.08 292.71 Z M 268.94 288.39 L 276.58 287.15 L 283.71 279.55 L 292.09 275.42 L 297.15 278.38 L 302.89 281.20 L 306.14 281.78 L 307.71 288.37 L 294.72 288.82 L 283.03 289.45 L 275.49 293.39 L 270.20 298.69 L 268.98 292.07 L 268.94 288.39 Z M 0.00 214.69 L 9.80 188.00 L 15.65 172.08 L 20.23 159.75 L 24.46 148.35 L 36.75 148.61 L 48.79 148.85 L 49.22 148.86 L 56.24 149.01 L 58.13 149.05 L 58.42 149.05 L 64.75 149.18 L 70.30 149.30 L 99.70 150.11 L 105.55 150.27 L 106.29 150.29 L 110.23 150.40 L 123.20 150.76 L 131.19 150.98 L 139.14 151.20 L 140.49 151.24 L 143.48 151.32 L 158.80 151.74 L 161.84 151.82 L 171.23 152.08 L 174.53 152.17 L 177.22 152.24 L 188.24 152.48 L 197.67 152.71 L 213.31 153.08 L 216.84 153.16 L 222.64 153.28 L 226.52 149.32 L 226.57 149.31 L 227.55 149.30 L 233.94 149.19 L 233.51 143.85 L 233.97 143.54 L 235.70 142.36 L 237.17 141.36 L 240.52 141.72 L 245.77 142.29 L 247.32 139.79 L 249.09 136.98 L 255.59 135.98 L 259.18 134.41 L 265.82 135.85 L 270.60 135.65 L 271.81 144.75 L 273.76 148.94 L 275.13 151.86 L 279.39 156.03 L 284.24 156.76 L 287.91 154.04 L 292.20 155.22 L 293.05 159.51 L 286.95 164.82 L 282.54 165.30 L 271.92 166.89 L 267.46 168.04 L 267.71 169.21 L 268.72 174.04 L 263.64 176.08 L 262.36 178.12 L 261.68 179.21 L 260.95 180.36 L 256.73 180.58 L 255.49 180.65 L 253.93 180.73 L 253.98 181.11 L 254.75 187.58 L 254.65 187.74 L 253.92 188.83 L 252.44 191.07 L 252.92 191.90 L 255.51 196.40 L 257.40 194.97 L 260.52 192.63 L 264.17 193.13 L 267.20 196.39 L 268.73 196.74 L 273.47 197.83 L 274.19 198.36 L 279.32 202.16 L 283.87 209.99 L 284.48 210.66 L 288.58 215.16 L 288.47 215.83 L 287.99 218.75 L 284.52 222.81 L 286.17 227.33 L 291.63 229.33 L 294.10 228.40 L 297.84 231.74 L 299.93 237.57 L 298.38 241.90 L 298.84 242.31 L 303.10 246.11 L 308.37 248.22 L 320.22 249.91 L 325.40 251.39 L 331.06 249.21 L 340.52 247.62 L 350.30 244.75 L 352.40 242.62 L 352.17 238.21 L 345.85 234.94 L 345.34 229.54 L 344.36 222.16 L 337.63 220.70 L 333.60 221.35 L 328.11 216.96 L 333.75 215.09 L 334.96 214.83 L 338.81 214.03 L 347.82 216.86 L 353.38 223.44 L 354.77 228.80 L 355.32 230.90 L 359.23 242.53 L 360.00 254.37 L 359.71 261.31 L 356.31 268.51 L 351.66 269.23 L 351.58 261.60 L 352.08 256.39 L 347.20 257.07 L 336.83 258.52 L 325.67 261.81 L 320.45 260.52 L 312.50 262.95 L 308.01 264.42 L 304.89 267.77 L 296.50 268.79 L 287.01 271.74 L 285.50 272.35 L 278.94 275.02 L 273.31 279.05 L 266.55 281.11 L 257.41 282.78 L 258.76 278.20 L 271.65 273.89 L 279.77 269.30 L 282.57 267.72 L 282.86 263.34 L 280.79 262.18 L 276.18 259.62 L 275.81 259.41 L 271.94 263.44 L 270.13 265.32 L 266.99 264.87 L 266.54 264.95 L 261.37 265.88 L 261.26 265.90 L 258.08 269.61 L 254.06 272.64 L 250.18 273.43 L 248.65 273.74 L 243.61 272.71 L 240.10 273.91 L 238.40 263.34 L 238.86 257.55 L 232.55 256.04 L 231.98 255.37 L 231.25 254.51 L 225.94 248.28 L 220.31 245.77 L 219.10 245.23 L 218.07 240.26 L 218.10 234.09 L 213.84 234.11 L 213.86 228.18 L 213.87 224.87 L 213.87 221.48 L 206.16 221.67 L 202.12 221.77 L 195.97 221.93 L 192.78 222.01 L 191.21 222.05 L 171.85 222.56 L 171.71 221.00 L 163.26 220.85 L 152.94 220.67 L 141.39 220.49 L 138.01 220.44 L 131.67 220.34 L 119.77 220.16 L 111.69 220.07 L 100.46 219.94 L 98.55 219.92 L 90.53 220.27 L 77.70 219.71 L 74.56 223.07 L 73.75 223.15 L 70.20 223.54 L 66.47 219.66 L 51.15 219.48 L 50.22 219.46 L 45.73 219.33 L 38.31 219.13 L 27.86 218.85 L 2.09 218.38 L 1.86 217.96 L 0.00 214.69 Z" fill="none" stroke="currentColor" stroke-width="2" opacity="0.8" class="state-boundary" transform="translate(0.00, -47.21)"/>
  <circle cx="246.30" cy="139.95" r="12.0" fill="currentColor" opacity="0.2" class="metro-pulse rank-1"/>
  <circle cx="246.30" cy="139.95" r="8.0" fill="currentColor" opacity="0.9" class="metro-dot rank-1" data-city="Boston" data-rank="1"/>
  <circle cx="241.19" cy="138.59" r="10.8" fill="currentColor" opacity="0.2" class="metro-pulse rank-2"/>
  <circle cx="241.19" cy="138.59" r="6.8" fill="currentColor" opacity="0.9" class="metro-dot rank-2" data-city="Cambridge" data-rank="2"/>
  <circle cx="171.54" cy="149.75" r="9.6" fill="currentColor" opacity="0.2" class="metro-pulse rank-3"/>
  <circle cx="171.54" cy="149.75" r="5.6" fill="currentColor" opacity="0.9" class="metro-dot rank-3" data-city="Worcester" data-rank="3"/>
  <circle cx="92.35" cy="165.96" r="8.4" fill="currentColor" opacity="0.2" class="metro-pulse rank-4"/>
  <circle cx="92.35" cy="165.96" r="4.4" fill="currentColor" opacity="0.9" class="metro-dot rank-4" data-city="Springfield" data-rank="4"/>
</svg>