<svg xmlns="http://www.w3.org/2000/svg" viewBox="0 0 400 300" class="state-outline-svg">
  <path d="M 231.56 132.44 L 235.48 135.07 L 239.40 136.22 L 241.94 137.33 L 240.43 139.10 L 236.83 138.98 L 232.70 135.94 L 230.18 133.85 L 231.56 132.44 Z M 188.23 138.76 L 190.22 138.48 L 195.31 135.02 L 201.84 135.51 L 201.19 137.45 L 195.92 144.33 L 193.83 145.30 L 191.39 144.75 L 188.43 140.31 L 188.23 138.76 Z M 170.82 166.42 L 174.56 161.77 L 176.75 162.11 L 178.17 163.38 L 177.25 165.64 L 173.08 168.53 L 170.15 168.04 L 170.82 166.42 Z M 148.66 294.44 L 152.47 291.13 L 156.32 284.50 L 157.72 282.51 L 161.71 278.17 L 162.11 277.73 L 164.98 272.12 L 165.28 271.14 L 166.73 266.32 L 167.20 262.75 L 167.29 262.13 L 168.02 257.43 L 168.01 257.24 L 167.78 252.61 L 167.30 248.43 L 166.17 244.63 L 165.40 243.24 L 163.71 240.17 L 160.05 234.45 L 158.42 230.72 L 157.83 229.11 L 157.20 227.39 L 155.20 224.27 L 154.75 222.23 L 155.96 220.08 L 158.57 217.17 L 158.95 215.26 L 159.12 214.41 L 158.45 211.32 L 157.85 209.21 L 157.84 209.20 L 156.31 207.18 L 155.79 205.73 L 158.05 204.09 L 159.17 203.27 L 160.71 201.12 L 160.85 200.92 L 162.30 198.89 L 165.61 194.27 L 166.28 192.05 L 166.40 188.77 L 166.87 187.36 L 167.52 185.43 L 166.20 182.18 L 166.41 180.15 L 169.93 178.99 L 172.77 178.46 L 173.20 176.99 L 173.70 175.26 L 173.98 171.69 L 177.12 171.89 L 179.06 169.38 L 182.15 170.61 L 185.09 169.02 L 186.45 166.09 L 189.06 164.44 L 190.97 161.32 L 194.25 159.73 L 195.03 161.06 L 193.65 166.40 L 194.08 167.06 L 195.49 169.18 L 197.28 168.50 L 199.02 167.47 L 201.05 166.29 L 201.60 164.08 L 201.06 160.92 L 201.16 159.85 L 201.41 157.33 L 204.47 155.51 L 208.39 153.75 L 212.41 153.65 L 214.05 153.61 L 217.87 153.13 L 219.72 151.78 L 217.00 151.00 L 214.61 150.71 L 211.88 147.32 L 211.46 145.43 L 213.79 142.62 L 217.40 140.75 L 215.66 137.79 L 221.55 138.12 L 225.31 136.64 L 226.93 136.99 L 227.46 137.10 L 234.07 140.26 L 237.73 142.10 L 239.64 141.42 L 243.00 141.62 L 247.73 143.15 L 248.33 143.34 L 251.10 145.92 L 252.32 148.29 L 256.22 148.54 L 259.76 148.75 L 262.48 150.77 L 268.23 152.32 L 272.14 154.07 L 276.55 153.94 L 280.69 157.20 L 279.86 159.07 L 280.69 159.87 L 283.45 162.55 L 285.45 167.07 L 282.48 166.48 L 280.13 165.33 L 278.42 166.10 L 278.67 168.14 L 278.55 170.50 L 281.98 172.68 L 283.27 172.91 L 283.44 173.78 L 284.21 177.78 L 285.01 180.54 L 283.51 183.75 L 283.41 187.63 L 283.39 188.65 L 282.61 194.76 L 280.03 196.00 L 278.39 197.46 L 275.12 197.61 L 273.53 201.52 L 273.40 201.83 L 272.75 205.78 L 268.94 206.60 L 268.40 208.50 L 264.62 208.64 L 261.36 209.62 L 260.09 211.70 L 259.72 212.31 L 258.97 216.95 L 258.24 218.62 L 259.76 221.12 L 263.42 221.07 L 266.89 223.08 L 268.15 223.95 L 268.79 224.39 L 274.92 219.25 L 275.61 218.68 L 275.86 218.22 L 276.92 216.29 L 278.80 212.63 L 279.81 211.25 L 284.80 210.52 L 285.62 209.11 L 290.68 208.32 L 294.20 207.42 L 295.08 206.25 L 298.90 205.28 L 304.32 207.12 L 307.64 210.12 L 310.68 214.79 L 311.54 218.44 L 311.77 220.40 L 312.27 224.75 L 314.42 231.10 L 315.10 238.97 L 315.78 241.22 L 316.57 243.87 L 319.37 247.74 L 318.87 249.88 L 317.22 252.45 L 317.32 257.46 L 315.62 262.44 L 312.67 265.76 L 308.87 267.03 L 307.78 263.08 L 310.44 261.48 L 307.72 260.91 L 304.00 262.75 L 305.40 263.92 L 305.80 265.34 L 301.68 266.24 L 301.67 266.28 L 301.64 266.54 L 301.35 268.95 L 301.24 269.87 L 301.24 269.88 L 299.10 273.82 L 298.07 274.13 L 296.52 274.60 L 292.21 276.29 L 292.16 276.46 L 291.45 278.65 L 290.72 280.90 L 290.73 284.35 L 288.66 285.79 L 288.28 286.55 L 287.41 288.33 L 285.31 290.30 L 283.05 290.87 L 282.43 292.66 L 280.25 293.74 L 278.43 295.51 L 279.14 298.22 L 277.95 298.54 L 272.69 298.70 L 265.61 298.90 L 265.60 298.90 L 260.93 299.04 L 250.79 299.33 L 241.77 299.57 L 240.21 299.61 L 238.67 299.65 L 223.98 300.00 L 223.99 297.44 L 223.22 297.44 L 208.39 297.45 L 206.95 297.46 L 204.58 297.46 L 189.91 297.48 L 184.66 297.49 L 184.66 297.49 L 173.83 297.46 L 167.31 297.45 L 167.31 297.45 L 156.30 297.47 L 155.41 297.47 L 150.79 297.46 L 150.73 297.46 L 143.41 297.44 L 148.66 294.44 Z M 47.77 52.08 L 49.45 51.00 L 55.87 48.71 L 58.96 47.63 L 60.84 47.02 L 63.94 46.13 L 67.45 44.34 L 71.29 42.49 L 74.68 41.43 L 79.54 40.00 L 79.45 41.75 L 74.54 44.33 L 73.39 46.78 L 67.83 48.60 L 62.47 49.79 L 60.63 52.37 L 54.82 54.16 L 50.30 55.43 L 48.54 54.38 L 46.41 53.35 L 47.77 52.08 Z M 0.00 105.64 L 3.61 103.97 L 7.20 103.30 L 14.88 101.56 L 19.94 98.68 L 21.30 97.68 L 23.39 96.14 L 27.85 95.09 L 30.97 95.29 L 33.86 95.03 L 36.68 94.64 L 40.03 94.54 L 47.50 91.79 L 50.91 88.92 L 55.44 88.27 L 58.22 87.98 L 59.26 86.98 L 59.61 86.64 L 61.02 84.30 L 63.99 82.67 L 68.59 80.14 L 73.17 78.64 L 76.04 76.90 L 76.52 76.60 L 79.80 73.50 L 85.13 71.46 L 87.82 70.41 L 93.11 69.60 L 99.33 69.21 L 104.44 69.43 L 109.28 70.13 L 112.81 71.39 L 112.29 72.81 L 104.48 72.67 L 98.84 72.75 L 98.77 74.91 L 95.85 76.09 L 92.64 77.89 L 88.76 79.97 L 88.51 80.35 L 86.93 82.75 L 82.94 85.11 L 81.12 88.14 L 78.97 90.63 L 78.33 91.38 L 77.43 94.28 L 81.64 93.42 L 86.75 91.13 L 90.77 89.65 L 93.91 91.57 L 94.73 91.61 L 100.49 91.92 L 105.41 93.24 L 108.99 94.63 L 112.66 96.98 L 113.54 99.47 L 116.34 102.39 L 121.19 105.08 L 121.78 107.98 L 129.43 108.37 L 131.78 108.03 L 137.34 107.21 L 140.26 109.62 L 143.96 110.28 L 146.39 109.11 L 148.57 106.08 L 151.29 106.93 L 154.07 108.77 L 157.97 106.20 L 168.83 102.13 L 170.81 101.37 L 176.53 101.34 L 181.73 100.83 L 182.67 100.73 L 197.00 101.07 L 205.99 98.16 L 206.75 98.07 L 209.33 97.75 L 217.65 97.38 L 215.11 101.28 L 215.15 106.13 L 217.46 109.22 L 222.24 109.86 L 229.08 108.76 L 231.89 110.00 L 236.46 110.66 L 237.72 109.61 L 239.38 108.23 L 244.46 108.56 L 248.42 106.68 L 251.45 107.57 L 251.16 109.46 L 250.61 113.37 L 252.25 117.99 L 251.84 118.60 L 251.56 121.28 L 255.09 122.97 L 257.19 124.97 L 260.85 126.55 L 263.50 123.90 L 267.33 124.20 L 272.17 124.63 L 276.88 128.38 L 275.06 131.48 L 272.79 131.58 L 269.81 130.40 L 264.09 130.72 L 259.71 129.60 L 252.96 129.39 L 251.58 129.51 L 245.98 129.98 L 241.13 130.94 L 236.98 129.12 L 233.50 130.32 L 230.89 130.18 L 226.86 131.94 L 227.96 134.27 L 224.51 133.87 L 219.53 131.00 L 216.10 127.98 L 210.17 126.20 L 205.61 125.60 L 201.02 124.95 L 194.66 125.05 L 190.36 128.88 L 188.42 129.82 L 183.90 129.02 L 181.68 130.32 L 179.77 131.44 L 173.45 129.61 L 165.24 130.54 L 162.40 134.85 L 158.78 137.78 L 157.98 138.20 L 154.72 139.88 L 151.71 143.37 L 150.91 146.51 L 147.90 143.76 L 148.19 140.56 L 150.50 138.90 L 145.47 135.76 L 142.86 139.31 L 137.85 141.29 L 133.61 139.45 L 129.55 141.73 L 126.30 146.18 L 124.90 148.12 L 122.42 151.87 L 117.85 157.23 L 114.51 160.49 L 112.86 164.34 L 110.55 163.89 L 108.68 162.13 L 106.81 160.27 L 108.02 158.35 L 109.78 155.51 L 110.18 153.42 L 108.21 152.82 L 106.45 153.97 L 104.47 154.03 L 101.96 154.05 L 102.22 152.45 L 102.60 150.41 L 104.26 149.26 L 104.32 147.20 L 105.00 145.19 L 105.38 143.83 L 103.51 142.07 L 105.25 141.24 L 104.29 140.06 L 103.17 139.29 L 101.31 138.01 L 97.83 137.65 L 96.67 136.39 L 94.57 136.91 L 94.23 136.81 L 92.30 136.26 L 91.12 135.34 L 93.56 133.19 L 91.91 131.33 L 91.85 131.31 L 89.40 130.34 L 86.68 129.71 L 84.16 129.85 L 81.34 128.56 L 80.15 129.04 L 75.49 127.40 L 72.81 127.62 L 72.04 128.60 L 70.26 128.66 L 69.40 127.69 L 69.24 127.65 L 66.98 127.14 L 64.10 127.37 L 59.28 125.35 L 56.95 124.38 L 52.94 122.70 L 31.12 118.50 L 19.52 116.26 L 11.88 114.78 L 10.37 111.45 L 8.11 108.28 L 5.29 107.52 L 3.44 106.15 L 1.23 106.93 L 0.00 105.64 Z" fill="none" stroke="currentColor" stroke-width="2" opacity="0.8" class="state-boundary" transform="translate(20.31, -0.00)"/>
  <circle cx="314.55" cy="274.64" r="12.0" fill="currentColor" opacity="0.2" class="metro-pulse rank-1"/>
  <circle cx="314.55" cy="274.64" r="8.0" fill="currentColor" opacity="0.9" class="metro-dot rank-1" data-city="Detroit" data-rank="1"/>
  <circle cx="209.89" cy="249.42" r="10.8" fill="currentColor" opacity="0.2" class="metro-pulse rank-2"/>
  <circle cx="209.89" cy="249.42" r="6.8" fill="currentColor" opacity="0.9" class="metro-dot rank-2" data-city="Grand Rapids" data-rank="2"/>
  <circle cx="286.72" cy="276.66" r="9.6" fill="currentColor" opacity="0.2" class="metro-pulse rank-3"/>
  <circle cx="286.72" cy="276.66" r="5.6" fill="currentColor" opacity="0.9" class="metro-dot rank-3" data-city="Ann Arbor" data-rank="3"/>
  <circle cx="254.30" cy="258.64" r="8.4" fill="currentColor" opacity="0.2" class="metro-pulse rank-4"/>
  <circle cx="254.30" cy="258.64" r="4.4" fill="currentColor" opacity="0.9" class="metro-dot rank-4" data-city="Lansing" data-rank="4"/>
  <circle cx="211.79" cy="177.59" r="8.0" fill="currentColor" opacity="0.2" class="metro-pulse rank-5"/>
  <circle cx="211.79" cy="177.59" r="4.0" fill="currentColor" opacity="0.9" class="metro-dot rank-5" data-city="Traverse City" data-rank="5"/>
</svg>