<svg xmlns="http://www.w3.org/2000/svg" viewBox="0 0 400 300" class="state-outline-svg">
  <path d="M 0.00 56.95 L 13.17 56.98 L 36.39 56.98 L 55.39 56.98 L 83.42 57.04 L 84.35 57.04 L 91.69 57.03 L 91.71 48.81 L 91.71 43.32 L 91.71 40.00 L 95.90 41.38 L 98.97 40.68 L 100.60 40.69 L 103.85 42.26 L 106.60 42.80 L 107.44 47.51 L 108.46 51.46 L 109.52 52.57 L 110.90 56.98 L 112.48 62.11 L 112.37 64.05 L 111.99 66.29 L 115.31 68.58 L 120.18 70.22 L 122.93 70.55 L 123.66 70.31 L 125.48 69.71 L 130.21 70.00 L 131.57 70.96 L 131.61 72.17 L 138.63 72.72 L 145.89 73.27 L 149.56 73.36 L 151.27 75.97 L 150.83 77.90 L 157.04 78.35 L 162.01 77.80 L 166.19 77.05 L 166.33 75.02 L 170.45 74.43 L 171.49 73.48 L 177.68 72.78 L 180.55 73.55 L 182.93 73.47 L 188.84 73.26 L 191.50 74.88 L 198.86 77.34 L 202.97 77.18 L 203.14 78.71 L 201.99 80.53 L 205.59 81.69 L 208.28 81.36 L 210.86 82.86 L 210.26 85.62 L 212.63 88.11 L 214.72 91.43 L 217.12 90.54 L 217.96 88.88 L 217.97 86.85 L 219.44 85.48 L 223.86 85.11 L 228.59 85.29 L 231.02 86.96 L 231.88 90.21 L 235.73 90.66 L 239.98 92.07 L 240.69 92.31 L 243.62 92.36 L 244.62 95.89 L 250.50 96.38 L 251.24 98.81 L 254.64 98.21 L 260.34 98.09 L 264.16 97.45 L 268.31 94.96 L 273.64 92.79 L 273.76 92.74 L 279.32 90.68 L 282.12 90.40 L 283.86 93.31 L 285.11 95.76 L 288.30 96.92 L 294.38 95.75 L 298.58 96.48 L 305.37 96.58 L 313.37 96.21 L 318.08 97.29 L 320.56 100.26 L 325.21 101.61 L 330.46 100.13 L 335.95 100.65 L 341.96 100.52 L 339.05 102.27 L 334.38 103.32 L 330.98 104.78 L 328.51 105.96 L 322.76 107.26 L 320.52 108.65 L 316.21 109.51 L 311.10 110.97 L 305.10 112.04 L 300.77 112.86 L 295.66 114.28 L 290.77 116.35 L 286.87 117.76 L 281.03 120.74 L 274.19 124.80 L 268.71 128.49 L 263.61 133.00 L 258.11 137.07 L 255.02 139.20 L 249.86 141.37 L 246.73 144.17 L 242.64 146.10 L 240.11 147.88 L 239.56 148.27 L 235.16 150.15 L 230.43 152.69 L 228.28 154.00 L 230.35 158.31 L 228.78 158.13 L 226.60 157.08 L 224.69 157.20 L 222.94 158.81 L 221.95 160.16 L 218.12 160.22 L 218.11 167.63 L 218.09 171.09 L 218.05 178.74 L 218.04 182.57 L 218.04 186.24 L 216.08 187.22 L 215.48 188.83 L 213.68 188.66 L 211.16 189.43 L 210.14 190.72 L 206.92 190.85 L 205.38 191.90 L 202.04 192.86 L 199.17 194.66 L 197.47 196.80 L 196.72 198.80 L 194.53 201.16 L 193.88 201.48 L 192.60 202.11 L 191.85 205.25 L 191.80 205.47 L 192.10 208.37 L 195.61 208.84 L 197.58 209.08 L 198.86 210.48 L 200.68 212.84 L 202.45 214.36 L 201.93 216.21 L 200.14 218.85 L 197.97 220.63 L 197.37 221.12 L 197.18 224.43 L 197.14 225.09 L 198.16 228.24 L 198.31 228.70 L 195.55 230.82 L 197.36 232.71 L 197.85 236.29 L 197.14 239.80 L 197.13 239.83 L 197.07 240.14 L 195.45 243.94 L 196.02 244.36 L 198.70 246.30 L 200.25 247.43 L 203.72 250.81 L 206.76 252.36 L 213.39 253.22 L 215.05 253.19 L 217.02 254.06 L 217.15 254.12 L 218.17 256.44 L 220.19 257.82 L 220.76 258.21 L 226.12 259.60 L 227.29 260.01 L 232.63 261.89 L 234.73 263.83 L 235.77 267.68 L 237.45 269.17 L 239.10 270.63 L 243.44 272.20 L 246.58 275.06 L 249.88 276.70 L 250.50 276.82 L 255.74 277.82 L 256.49 278.58 L 259.42 281.54 L 262.35 284.39 L 262.50 284.64 L 264.43 287.92 L 263.85 290.01 L 263.13 292.62 L 264.03 295.54 L 264.92 297.11 L 265.59 299.95 L 253.51 299.95 L 248.22 299.95 L 242.95 299.95 L 238.76 299.95 L 227.50 299.95 L 223.12 299.95 L 211.19 299.96 L 206.59 299.97 L 206.59 299.97 L 192.58 300.00 L 185.77 300.00 L 184.67 300.00 L 176.73 300.00 L 164.87 300.00 L 161.36 300.00 L 158.19 300.00 L 143.96 300.00 L 131.71 299.97 L 125.41 299.96 L 123.10 299.96 L 104.91 299.95 L 104.04 299.95 L 102.25 299.95 L 88.99 299.94 L 81.35 299.96 L 78.40 299.96 L 76.97 299.97 L 61.62 299.98 L 60.44 299.98 L 51.95 299.97 L 45.53 299.96 L 34.27 299.96 L 34.27 297.67 L 34.29 284.54 L 34.29 284.54 L 34.31 269.19 L 34.31 269.19 L 34.32 261.98 L 34.27 253.87 L 34.25 249.99 L 34.21 242.30 L 34.16 234.71 L 34.09 221.83 L 34.08 220.12 L 33.53 219.27 L 32.98 218.41 L 31.25 217.11 L 29.46 216.65 L 27.01 215.68 L 24.46 215.58 L 22.90 214.40 L 21.50 212.56 L 19.79 210.03 L 17.39 207.81 L 17.01 207.46 L 16.67 206.34 L 17.80 204.80 L 21.38 202.71 L 24.58 201.35 L 26.44 199.19 L 28.36 197.64 L 29.03 195.19 L 29.40 192.39 L 28.93 188.79 L 29.00 188.56 L 29.80 185.82 L 27.98 179.81 L 27.75 175.41 L 25.70 173.69 L 22.97 170.29 L 21.41 164.52 L 19.58 161.71 L 19.41 161.44 L 19.37 161.39 L 19.54 158.92 L 19.45 155.17 L 20.55 149.21 L 17.48 144.90 L 18.11 141.76 L 17.78 138.69 L 17.36 134.83 L 17.18 133.11 L 16.42 125.88 L 16.48 123.29 L 16.57 120.07 L 15.32 116.67 L 14.82 115.65 L 13.28 112.43 L 10.28 108.04 L 8.47 104.11 L 7.07 100.00 L 5.45 97.13 L 3.64 93.72 L 3.68 93.51 L 3.85 92.61 L 4.40 89.77 L 4.03 85.94 L 3.97 82.14 L 3.53 77.64 L 3.58 77.27 L 3.59 77.13 L 3.81 75.37 L 5.70 71.65 L 4.76 69.64 L 3.38 67.03 L 1.84 62.83 L 0.05 59.37 L 0.00 56.95 Z" fill="none" stroke="currentColor" stroke-width="2" opacity="0.8" class="state-boundary" transform="translate(9.02, -0.00)"/>
  <circle cx="184.16" cy="234.69" r="12.0" fill="currentColor" opacity="0.2" class="metro-pulse rank-1"/>
  <circle cx="184.16" cy="234.69" r="8.0" fill="currentColor" opacity="0.9" class="metro-dot rank-1" data-city="Minneapolis" data-rank="1"/>
  <circle cx="191.89" cy="235.75" r="10.8" fill="currentColor" opacity="0.2" class="metro-pulse rank-2"/>
  <circle cx="191.89" cy="235.75" r="6.8" fill="currentColor" opacity="0.9" class="metro-dot rank-2" data-city="St. Paul" data-rank="2"/>
  <circle cx="218.83" cy="277.35" r="9.6" fill="currentColor" opacity="0.2" class="metro-pulse rank-3"/>
  <circle cx="218.83" cy="277.35" r="5.6" fill="currentColor" opacity="0.9" class="metro-dot rank-3" data-city="Rochester" data-rank="3"/>
  <circle cx="235.61" cy="154.77" r="8.4" fill="currentColor" opacity="0.2" class="metro-pulse rank-4"/>
  <circle cx="235.61" cy="154.77" r="4.4" fill="currentColor" opacity="0.9" class="metro-dot rank-4" data-city="Duluth" data-rank="4"/>
</svg>