<svg xmlns="http://www.w3.org/2000/svg" viewBox="0 0 400 300" class="state-outline-svg">
  <path d="M 0.00 52.18 L 12.55 52.34 L 21.15 52.44 L 23.22 52.47 L 30.42 52.55 L 37.62 52.63 L 45.94 52.73 L 51.06 52.80 L 61.21 52.90 L 66.51 52.96 L 69.90 52.95 L 78.56 52.92 L 82.80 52.89 L 90.42 52.84 L 94.51 52.78 L 103.93 52.63 L 107.53 52.59 L 117.09 52.49 L 119.27 52.48 L 129.13 52.44 L 130.69 52.43 L 142.01 52.30 L 144.09 52.25 L 152.50 52.04 L 164.75 51.94 L 166.26 51.93 L 168.89 51.87 L 178.84 51.63 L 184.40 51.53 L 193.63 51.35 L 206.41 51.05 L 206.62 51.05 L 217.97 50.64 L 218.64 51.18 L 220.33 52.52 L 221.11 54.03 L 223.91 54.67 L 224.49 56.78 L 226.89 58.89 L 229.31 60.41 L 230.44 62.07 L 234.69 63.35 L 231.98 66.37 L 230.72 69.20 L 230.50 70.35 L 230.00 72.97 L 229.69 74.57 L 230.47 79.55 L 231.20 82.73 L 233.74 86.67 L 233.75 86.74 L 234.18 88.76 L 233.79 92.12 L 235.86 93.44 L 237.82 95.25 L 237.65 96.81 L 237.48 98.41 L 240.83 100.72 L 242.43 101.83 L 247.46 105.47 L 247.93 105.81 L 249.33 108.30 L 251.92 108.69 L 253.87 111.07 L 255.27 113.56 L 260.72 116.13 L 260.83 116.21 L 265.97 119.39 L 271.92 123.96 L 272.28 125.68 L 273.11 129.63 L 274.56 132.35 L 272.80 134.86 L 274.81 138.64 L 275.61 141.30 L 275.85 142.08 L 279.19 144.52 L 281.33 144.75 L 284.33 142.62 L 286.08 139.84 L 286.99 139.86 L 289.96 139.94 L 295.21 141.91 L 296.41 142.13 L 298.90 142.59 L 300.15 143.25 L 305.22 145.91 L 304.98 148.27 L 302.36 150.05 L 302.35 150.05 L 300.00 152.57 L 300.80 154.65 L 301.55 156.14 L 301.56 156.16 L 301.38 158.75 L 297.90 162.36 L 297.55 163.11 L 297.24 163.79 L 296.69 164.99 L 295.74 168.10 L 292.97 170.87 L 292.82 171.02 L 292.45 171.39 L 291.22 174.32 L 291.69 179.01 L 292.38 179.92 L 293.93 181.97 L 297.69 184.88 L 297.70 184.89 L 299.53 186.68 L 300.33 187.06 L 304.53 189.05 L 306.97 190.94 L 310.89 193.39 L 313.77 193.58 L 312.73 196.14 L 314.95 198.25 L 315.49 198.76 L 319.38 196.96 L 323.11 199.60 L 327.72 201.80 L 328.23 202.77 L 329.27 204.76 L 333.41 206.70 L 337.15 208.17 L 337.98 212.02 L 338.66 214.45 L 338.46 215.00 L 338.24 215.60 L 337.67 217.17 L 339.89 220.59 L 342.34 223.77 L 342.22 226.54 L 339.72 227.71 L 338.60 228.24 L 337.42 230.55 L 339.26 231.68 L 339.93 232.09 L 340.71 235.62 L 344.59 240.20 L 345.93 243.47 L 348.70 244.21 L 351.43 244.94 L 354.81 246.33 L 358.16 246.74 L 360.00 248.05 L 359.77 248.76 L 358.83 251.61 L 357.36 254.03 L 356.92 257.16 L 356.91 257.31 L 356.86 258.95 L 354.40 261.08 L 356.40 264.00 L 355.85 264.60 L 354.58 265.99 L 353.06 269.03 L 350.28 268.58 L 347.81 266.08 L 347.66 266.08 L 344.89 266.17 L 343.31 269.41 L 339.45 269.20 L 335.94 268.75 L 334.48 270.72 L 336.22 272.89 L 337.20 274.83 L 336.05 277.09 L 337.78 279.34 L 337.11 281.16 L 335.91 281.18 L 332.91 281.25 L 332.30 283.08 L 335.41 284.78 L 332.81 286.92 L 328.72 286.37 L 327.94 287.63 L 331.45 289.76 L 331.65 289.89 L 333.36 292.45 L 330.62 294.18 L 328.62 295.32 L 327.95 298.67 L 325.75 299.74 L 316.67 299.81 L 313.53 299.83 L 305.73 299.87 L 295.73 299.96 L 291.43 300.00 L 293.01 297.23 L 295.44 293.67 L 298.62 292.24 L 299.44 289.80 L 301.13 289.03 L 302.92 288.21 L 305.13 285.43 L 307.88 283.41 L 307.91 280.50 L 307.77 278.92 L 304.26 277.36 L 303.70 274.94 L 303.03 273.03 L 299.42 272.99 L 284.63 272.86 L 280.23 272.86 L 269.99 272.86 L 269.00 272.86 L 256.37 272.88 L 250.51 272.89 L 235.47 272.93 L 235.37 272.93 L 233.04 272.91 L 222.64 272.81 L 221.03 272.81 L 204.11 272.86 L 196.84 272.87 L 195.22 272.87 L 184.43 272.89 L 174.77 272.87 L 172.87 272.87 L 161.64 272.88 L 158.04 272.88 L 157.23 272.88 L 142.54 272.89 L 133.52 272.87 L 132.31 272.87 L 126.28 272.85 L 117.79 272.83 L 111.53 272.82 L 102.54 272.84 L 97.55 272.84 L 91.18 272.83 L 75.84 272.80 L 61.98 272.81 L 61.98 266.69 L 61.97 263.71 L 61.95 258.38 L 61.97 245.83 L 61.97 242.71 L 61.95 237.12 L 61.98 227.50 L 61.99 226.11 L 62.00 223.59 L 61.98 210.48 L 61.98 209.43 L 61.98 208.94 L 62.16 192.43 L 62.18 189.78 L 62.19 188.53 L 62.26 178.94 L 62.25 170.79 L 62.25 165.99 L 62.25 165.99 L 62.30 162.20 L 62.43 151.92 L 62.43 151.78 L 62.46 146.03 L 62.49 138.76 L 62.52 135.40 L 62.55 131.65 L 63.38 129.41 L 62.84 129.38 L 61.65 129.32 L 58.61 127.82 L 55.28 128.59 L 52.58 126.91 L 52.16 126.65 L 50.76 124.72 L 49.06 122.99 L 46.31 120.30 L 47.34 116.59 L 44.22 116.19 L 43.19 115.01 L 42.31 113.99 L 38.65 111.08 L 36.41 108.98 L 35.21 107.86 L 37.20 106.63 L 38.80 105.64 L 38.97 104.64 L 39.32 102.52 L 42.89 100.71 L 42.91 98.73 L 46.78 98.68 L 48.88 97.30 L 48.30 96.04 L 47.94 93.46 L 47.90 93.15 L 45.21 90.46 L 43.96 89.15 L 41.70 89.26 L 40.33 89.32 L 36.94 91.25 L 33.65 89.43 L 28.86 86.81 L 24.70 83.78 L 22.51 82.20 L 20.66 82.31 L 18.95 80.01 L 20.06 77.93 L 18.01 76.16 L 15.37 73.60 L 15.83 71.03 L 11.80 69.79 L 11.76 69.59 L 11.74 69.50 L 11.47 68.06 L 9.02 67.05 L 6.04 66.36 L 6.73 63.99 L 6.28 62.39 L 4.39 58.76 L 3.83 57.12 L 2.88 55.50 L 2.77 55.31 L 0.46 55.38 L 0.00 52.18 Z" fill="none" stroke="currentColor" stroke-width="2" opacity="0.8" class="state-boundary" transform="translate(0.00, -5.32)"/>
  <circle cx="64.10" cy="127.07" r="12.0" fill="currentColor" opacity="0.2" class="metro-pulse rank-1"/>
  <circle cx="64.10" cy="127.07" r="8.0" fill="currentColor" opacity="0.9" class="metro-dot rank-1" data-city="Kansas City" data-rank="1"/>
  <circle cx="300.57" cy="152.60" r="10.8" fill="currentColor" opacity="0.2" class="metro-pulse rank-2"/>
  <circle cx="300.57" cy="152.60" r="6.8" fill="currentColor" opacity="0.9" class="metro-dot rank-2" data-city="St. Louis" data-rank="2"/>
  <circle cx="133.56" cy="229.17" r="9.6" fill="currentColor" opacity="0.2" class="metro-pulse rank-3"/>
  <circle cx="133.56" cy="229.17" r="5.6" fill="currentColor" opacity="0.9" class="metro-dot rank-3" data-city="Springfield" data-rank="3"/>
  <circle cx="185.30" cy="135.06" r="8.4" fill="currentColor" opacity="0.2" class="metro-pulse rank-4"/>
  <circle cx="185.30" cy="135.06" r="4.4" fill="currentColor" opacity="0.9" class="metro-dot rank-4" data-city="Columbia" data-rank="4"/>
</svg>