<svg xmlns="http://www.w3.org/2000/svg" viewBox="0 0 400 300" class="state-outline-svg">
  <path d="M 1.24 241.30 L 4.33 241.64 L 7.32 240.02 L 5.85 237.50 L 6.05 234.69 L 7.24 232.07 L 6.87 228.85 L 8.36 226.92 L 11.16 226.27 L 10.09 224.04 L 9.75 222.27 L 13.43 220.98 L 14.22 216.22 L 14.27 216.21 L 17.59 215.52 L 17.49 215.39 L 15.38 212.60 L 16.13 210.25 L 19.13 210.75 L 21.62 208.80 L 22.11 208.42 L 25.01 206.09 L 25.21 203.21 L 28.45 202.47 L 30.43 200.50 L 30.52 199.06 L 32.92 196.31 L 32.66 195.94 L 28.93 190.53 L 35.27 190.18 L 37.61 186.46 L 39.05 183.30 L 35.51 182.78 L 36.63 178.83 L 31.94 178.10 L 31.52 174.11 L 34.18 173.88 L 32.16 170.84 L 32.13 170.80 L 31.80 170.50 L 30.50 169.34 L 29.46 164.77 L 31.71 162.59 L 28.66 161.82 L 26.28 159.87 L 26.06 157.90 L 27.35 155.93 L 30.98 153.79 L 30.90 151.13 L 27.53 148.83 L 25.82 147.55 L 26.17 147.17 L 28.29 144.83 L 25.03 142.46 L 26.53 140.48 L 29.16 140.67 L 30.24 138.01 L 31.08 135.20 L 30.14 133.00 L 28.01 132.64 L 27.11 128.93 L 28.65 126.55 L 26.82 124.71 L 25.52 122.81 L 24.57 121.16 L 23.15 119.19 L 23.15 119.19 L 23.65 118.31 L 24.59 116.66 L 27.72 114.79 L 25.16 112.62 L 29.34 112.11 L 30.72 109.20 L 27.06 107.43 L 28.77 105.95 L 30.17 105.85 L 33.35 106.54 L 33.43 104.26 L 31.94 103.27 L 31.48 100.39 L 33.37 98.75 L 32.85 96.82 L 30.00 95.87 L 32.18 94.59 L 34.52 95.02 L 35.87 93.77 L 37.89 92.81 L 40.60 92.33 L 41.57 89.89 L 40.13 88.67 L 37.69 87.87 L 37.77 87.49 L 37.81 87.30 L 38.14 85.75 L 40.49 85.09 L 41.13 83.83 L 40.49 81.67 L 43.43 81.03 L 44.90 78.69 L 48.15 78.16 L 47.47 75.27 L 49.42 74.12 L 53.13 75.65 L 54.15 73.05 L 57.72 71.36 L 57.27 69.01 L 58.04 65.47 L 58.04 65.44 L 59.13 63.11 L 57.08 60.53 L 57.75 59.67 L 59.08 57.96 L 59.30 55.87 L 61.49 52.50 L 63.22 51.19 L 63.74 48.70 L 66.76 48.68 L 67.10 48.68 L 71.86 46.71 L 71.97 46.65 L 75.28 44.79 L 75.59 43.16 L 72.09 40.02 L 99.85 40.09 L 101.77 40.10 L 103.67 40.10 L 108.01 40.11 L 119.30 40.12 L 123.74 40.11 L 132.07 40.09 L 141.35 40.06 L 141.86 40.06 L 152.34 40.04 L 154.30 40.04 L 171.41 40.00 L 176.23 40.01 L 177.15 40.02 L 182.84 40.03 L 185.97 40.02 L 188.43 43.98 L 191.49 45.61 L 189.53 60.16 L 189.24 62.37 L 188.41 68.78 L 187.42 76.45 L 185.78 89.11 L 185.59 90.63 L 183.36 107.55 L 183.04 110.04 L 181.95 118.94 L 180.34 132.21 L 179.65 137.83 L 178.41 148.25 L 178.01 151.61 L 176.62 163.34 L 175.76 170.55 L 174.03 185.10 L 173.65 188.26 L 173.50 189.48 L 172.30 198.91 L 171.47 205.38 L 171.47 207.50 L 171.47 213.07 L 171.74 218.08 L 171.97 222.20 L 172.51 232.23 L 172.55 233.02 L 173.45 249.59 L 173.77 255.86 L 174.51 270.04 L 174.52 270.25 L 174.97 280.42 L 175.45 289.81 L 174.64 291.29 L 172.67 290.98 L 171.30 292.48 L 168.56 291.40 L 165.36 291.88 L 163.68 290.65 L 160.93 290.21 L 158.95 291.20 L 156.45 290.99 L 153.56 290.47 L 152.57 290.29 L 148.51 288.52 L 144.33 288.66 L 138.29 289.88 L 132.69 291.88 L 126.88 293.15 L 126.20 293.35 L 124.17 293.93 L 119.85 296.51 L 118.62 298.69 L 117.09 299.42 L 114.46 300.00 L 109.97 298.04 L 108.54 293.12 L 106.15 287.41 L 104.99 285.24 L 104.31 283.98 L 100.04 279.98 L 98.40 274.99 L 98.17 273.65 L 97.62 270.49 L 100.03 265.46 L 102.28 260.47 L 103.46 255.64 L 103.47 255.63 L 97.65 255.65 L 94.32 255.66 L 74.77 255.73 L 70.10 255.75 L 70.03 255.75 L 59.22 255.77 L 58.16 255.77 L 47.82 255.79 L 44.20 255.79 L 31.55 255.80 L 25.28 255.81 L 22.69 255.81 L 0.40 255.80 L 0.87 255.49 L 4.54 253.09 L 2.68 250.83 L 1.22 248.37 L 2.88 245.40 L 2.93 245.31 L 0.00 243.11 L 1.24 241.30 Z" fill="none" stroke="currentColor" stroke-width="2" opacity="0.8" class="state-boundary" transform="translate(84.25, -0.00)"/>
  <circle cx="163.06" cy="185.64" r="12.0" fill="currentColor" opacity="0.2" class="metro-pulse rank-1"/>
  <circle cx="163.06" cy="185.64" r="8.0" fill="currentColor" opacity="0.9" class="metro-dot rank-1" data-city="Jackson" data-rank="1"/>
  <circle cx="222.03" cy="289.92" r="10.8" fill="currentColor" opacity="0.2" class="metro-pulse rank-2"/>
  <circle cx="222.03" cy="289.92" r="6.8" fill="currentColor" opacity="0.9" class="metro-dot rank-2" data-city="Gulfport" data-rank="2"/>
  <circle cx="233.23" cy="288.38" r="9.6" fill="currentColor" opacity="0.2" class="metro-pulse rank-3"/>
  <circle cx="233.23" cy="288.38" r="5.6" fill="currentColor" opacity="0.9" class="metro-dot rank-3" data-city="Biloxi" data-rank="3"/>
  <circle cx="211.36" cy="238.10" r="8.4" fill="currentColor" opacity="0.2" class="metro-pulse rank-4"/>
  <circle cx="211.36" cy="238.10" r="4.4" fill="currentColor" opacity="0.9" class="metro-dot rank-4" data-city="Hattiesburg" data-rank="4"/>
</svg>