<svg xmlns="http://www.w3.org/2000/svg" viewBox="0 0 400 300" class="state-outline-svg">
  <path d="M 0.00 161.50 L 16.43 161.50 L 25.22 161.55 L 39.63 161.51 L 41.09 161.50 L 50.15 161.48 L 56.02 161.53 L 59.38 161.54 L 64.20 161.56 L 70.63 161.60 L 80.13 161.57 L 87.91 161.57 L 115.58 161.56 L 117.06 161.56 L 125.75 161.58 L 136.34 161.62 L 143.26 161.61 L 151.23 161.60 L 159.05 161.59 L 165.39 161.57 L 168.19 161.55 L 176.18 161.55 L 196.29 161.51 L 196.62 161.51 L 203.78 161.53 L 211.28 161.55 L 224.99 161.54 L 234.19 161.54 L 250.13 161.53 L 258.03 161.54 L 260.35 161.52 L 265.86 161.53 L 282.71 161.54 L 294.21 161.54 L 297.86 161.55 L 299.71 161.55 L 307.94 161.54 L 320.53 161.54 L 323.25 161.54 L 329.47 161.55 L 334.93 161.56 L 344.88 161.54 L 359.71 161.53 L 359.71 166.10 L 359.73 172.50 L 359.75 176.69 L 359.77 179.83 L 359.80 184.26 L 359.85 191.62 L 359.85 191.62 L 359.86 192.35 L 359.90 197.40 L 359.86 203.39 L 359.82 209.57 L 359.81 211.52 L 359.82 211.58 L 359.83 217.66 L 359.81 223.46 L 359.81 230.05 L 359.81 232.22 L 359.82 235.24 L 359.82 236.17 L 359.81 241.72 L 359.81 243.05 L 359.81 253.09 L 359.85 254.99 L 359.86 255.51 L 359.90 258.94 L 359.92 264.70 L 359.92 266.71 L 359.96 271.36 L 359.97 275.04 L 359.97 277.68 L 360.00 281.47 L 359.44 281.50 L 330.44 281.42 L 330.05 281.42 L 328.90 281.42 L 305.78 281.41 L 300.48 281.50 L 293.32 281.61 L 293.32 281.61 L 274.58 281.55 L 260.71 281.38 L 243.93 281.38 L 241.35 281.38 L 233.82 281.41 L 226.27 281.43 L 222.64 281.43 L 209.43 281.44 L 208.20 281.25 L 194.08 281.35 L 187.36 281.34 L 181.47 281.33 L 171.60 281.45 L 160.18 281.66 L 157.79 281.34 L 150.02 281.38 L 150.02 281.40 L 149.64 285.42 L 149.69 289.66 L 149.69 291.43 L 149.69 292.67 L 149.88 297.19 L 147.67 296.60 L 147.05 295.34 L 145.31 294.14 L 144.63 292.71 L 143.29 291.37 L 141.65 289.68 L 140.04 288.88 L 139.81 288.77 L 138.20 289.80 L 137.65 290.55 L 137.30 291.04 L 135.79 293.93 L 134.48 294.76 L 132.85 294.70 L 130.24 294.61 L 127.13 296.06 L 125.26 294.49 L 120.35 295.28 L 117.62 295.56 L 114.73 295.11 L 112.80 294.36 L 110.62 295.55 L 109.76 297.97 L 107.19 297.01 L 103.33 296.68 L 100.16 296.32 L 99.34 296.44 L 96.55 298.14 L 96.74 299.19 L 96.59 299.25 L 94.94 300.00 L 92.86 298.91 L 91.19 297.26 L 91.19 295.86 L 89.57 294.09 L 89.92 292.53 L 88.37 290.16 L 87.46 288.48 L 83.99 286.73 L 82.36 287.45 L 80.09 286.38 L 78.74 286.14 L 77.17 284.10 L 77.94 282.82 L 78.28 281.22 L 77.85 279.65 L 76.09 278.43 L 74.17 277.58 L 71.91 274.39 L 69.35 271.68 L 69.45 269.88 L 68.52 268.60 L 68.62 267.02 L 67.33 265.74 L 67.22 263.38 L 65.58 262.73 L 64.46 262.12 L 62.97 260.96 L 62.28 260.42 L 60.96 260.56 L 60.98 261.82 L 58.93 263.32 L 55.83 265.07 L 53.88 265.30 L 53.05 267.02 L 50.38 266.66 L 47.73 265.12 L 46.25 264.66 L 45.72 263.88 L 45.29 263.24 L 45.36 261.92 L 46.45 261.37 L 46.29 259.78 L 44.56 258.05 L 45.92 256.37 L 48.75 255.79 L 49.79 254.98 L 49.04 254.10 L 49.37 252.60 L 48.20 251.80 L 47.03 250.54 L 47.63 248.54 L 45.80 247.69 L 46.00 246.42 L 48.06 246.24 L 47.94 244.34 L 48.20 243.24 L 48.48 242.14 L 48.76 239.85 L 49.89 239.11 L 49.34 236.50 L 50.88 236.22 L 51.49 234.13 L 51.81 232.06 L 51.36 231.81 L 50.61 231.40 L 47.84 231.99 L 45.02 232.13 L 43.71 231.89 L 42.80 231.72 L 42.64 230.08 L 41.14 229.51 L 40.47 229.26 L 38.43 229.30 L 37.74 228.11 L 35.03 227.12 L 33.15 225.43 L 33.62 224.05 L 32.61 223.49 L 30.50 222.33 L 29.31 220.81 L 27.82 219.64 L 25.77 217.55 L 23.78 216.24 L 22.69 215.18 L 21.65 213.80 L 20.30 213.53 L 17.33 212.94 L 15.50 212.06 L 14.11 210.47 L 10.16 208.95 L 10.68 207.77 L 12.42 207.03 L 9.96 205.51 L 9.83 204.20 L 10.64 202.79 L 9.38 201.85 L 9.75 200.59 L 6.41 198.67 L 6.11 197.05 L 4.44 196.20 L 2.68 194.55 L 0.55 192.30 L 0.32 191.96 L 0.00 191.50 L 0.01 187.76 L 0.01 185.02 L 0.01 182.21 L 0.00 177.08 L 0.00 176.45 L 0.00 161.50 Z" fill="none" stroke="currentColor" stroke-width="2" opacity="0.8" class="state-boundary" transform="translate(0.00, -60.74)"/>
  <circle cx="226.27" cy="197.20" r="12.0" fill="currentColor" opacity="0.2" class="metro-pulse rank-1"/>
  <circle cx="226.27" cy="197.20" r="8.0" fill="currentColor" opacity="0.9" class="metro-dot rank-1" data-city="Billings" data-rank="1"/>
  <circle cx="61.60" cy="164.57" r="10.8" fill="currentColor" opacity="0.2" class="metro-pulse rank-2"/>
  <circle cx="61.60" cy="164.57" r="6.8" fill="currentColor" opacity="0.9" class="metro-dot rank-2" data-city="Missoula" data-rank="2"/>
  <circle cx="150.06" cy="200.39" r="9.6" fill="currentColor" opacity="0.2" class="metro-pulse rank-3"/>
  <circle cx="150.06" cy="200.39" r="5.6" fill="currentColor" opacity="0.9" class="metro-dot rank-3" data-city="Bozeman" data-rank="3"/>
  <circle cx="142.33" cy="145.74" r="8.4" fill="currentColor" opacity="0.2" class="metro-pulse rank-4"/>
  <circle cx="142.33" cy="145.74" r="4.4" fill="currentColor" opacity="0.9" class="metro-dot rank-4" data-city="Great Falls" data-rank="4"/>
</svg>