<svg xmlns="http://www.w3.org/2000/svg" viewBox="0 0 400 300" class="state-outline-svg">
  <path d="M 0.00 254.12 L 0.03 247.38 L 0.04 242.65 L 0.04 242.64 L 0.03 235.60 L 0.02 233.57 L 0.02 230.11 L 0.01 222.38 L 0.02 217.59 L 0.02 217.00 L 0.02 207.38 L 0.01 197.08 L 0.02 192.48 L 0.03 191.69 L 0.01 176.48 L 22.57 176.47 L 23.76 176.47 L 43.33 176.49 L 51.92 176.50 L 67.70 176.52 L 81.13 176.54 L 81.13 176.54 L 116.31 176.59 L 125.67 176.60 L 158.69 176.58 L 158.69 176.58 L 173.03 176.58 L 186.04 176.57 L 197.55 176.57 L 214.28 176.57 L 228.67 176.56 L 229.48 178.00 L 231.30 179.41 L 233.28 179.86 L 236.50 181.17 L 237.66 181.65 L 239.64 182.22 L 242.91 183.04 L 243.10 183.09 L 244.88 184.38 L 247.75 186.21 L 251.24 185.98 L 253.10 184.78 L 254.26 182.57 L 255.04 182.05 L 257.37 182.35 L 261.50 182.93 L 264.20 182.60 L 265.69 182.42 L 269.12 182.52 L 270.40 182.68 L 271.74 182.84 L 273.19 182.02 L 276.31 182.43 L 277.92 182.03 L 280.57 182.55 L 281.55 183.90 L 283.56 185.08 L 284.95 185.89 L 289.34 186.28 L 289.71 186.52 L 291.77 187.84 L 294.19 187.46 L 298.29 188.82 L 298.52 188.90 L 299.49 190.37 L 302.81 190.53 L 302.33 192.81 L 304.41 194.35 L 305.67 195.97 L 306.35 196.83 L 309.91 196.66 L 310.89 197.79 L 313.18 197.47 L 315.83 198.66 L 314.57 200.75 L 314.73 203.78 L 317.04 206.10 L 317.69 206.77 L 317.68 208.65 L 317.64 208.82 L 317.21 210.80 L 320.45 212.99 L 320.29 215.72 L 322.32 216.73 L 326.07 218.71 L 324.98 221.37 L 326.30 223.18 L 327.08 224.24 L 328.87 226.19 L 327.92 229.10 L 327.08 230.98 L 326.94 231.31 L 326.66 233.58 L 327.74 235.74 L 328.21 237.09 L 331.32 236.44 L 331.77 237.97 L 332.23 239.49 L 334.71 240.07 L 334.52 242.78 L 334.46 243.60 L 334.58 245.57 L 336.05 247.38 L 335.17 249.04 L 335.23 250.95 L 335.24 251.24 L 337.42 251.13 L 337.21 252.23 L 336.93 253.70 L 337.13 255.40 L 337.09 256.66 L 337.05 258.12 L 338.59 259.97 L 338.20 261.93 L 338.99 263.03 L 339.32 263.50 L 338.06 265.19 L 338.35 267.73 L 338.35 267.77 L 336.11 269.69 L 337.86 271.90 L 340.50 273.11 L 341.87 275.16 L 341.17 275.91 L 341.52 278.35 L 343.29 278.30 L 343.37 278.44 L 344.09 279.68 L 344.52 280.92 L 345.96 283.69 L 346.30 284.92 L 345.78 286.72 L 348.05 287.25 L 349.91 288.01 L 350.12 289.11 L 350.14 289.18 L 350.17 289.34 L 353.24 290.28 L 352.89 292.24 L 354.90 294.19 L 356.46 295.54 L 355.62 297.13 L 356.93 298.88 L 358.33 298.79 L 360.00 300.00 L 358.70 300.00 L 340.39 299.98 L 340.25 299.98 L 331.09 299.97 L 330.53 299.97 L 325.17 299.98 L 321.68 299.97 L 321.68 299.97 L 312.44 299.96 L 312.18 299.96 L 298.35 299.94 L 295.55 299.94 L 293.80 299.94 L 289.98 299.94 L 275.16 299.92 L 273.24 299.92 L 258.37 299.91 L 256.54 299.91 L 252.00 299.91 L 246.06 299.91 L 237.91 299.90 L 228.42 299.90 L 223.93 299.90 L 219.29 299.90 L 205.27 299.91 L 204.50 299.91 L 200.65 299.91 L 187.37 299.92 L 182.28 299.93 L 182.16 299.93 L 174.54 299.94 L 159.54 299.94 L 158.89 299.94 L 147.22 299.93 L 136.44 299.91 L 135.62 299.91 L 123.21 299.90 L 113.59 299.89 L 112.35 299.89 L 108.77 299.89 L 103.37 299.89 L 91.43 299.88 L 82.40 299.87 L 82.41 286.07 L 82.41 285.62 L 82.41 281.89 L 82.41 271.28 L 82.41 269.14 L 82.40 258.74 L 82.40 258.74 L 61.60 258.74 L 58.96 258.74 L 57.62 258.74 L 40.21 258.74 L 27.61 258.75 L 19.74 258.76 L 19.71 258.76 L 0.00 258.78 L 0.00 254.12 Z" fill="none" stroke="currentColor" stroke-width="2" opacity="0.8" class="state-boundary" transform="translate(-0.00, -68.23)"/>
  <circle cx="334.22" cy="180.04" r="12.0" fill="currentColor" opacity="0.2" class="metro-pulse rank-1"/>
  <circle cx="334.22" cy="180.04" r="8.0" fill="currentColor" opacity="0.9" class="metro-dot rank-1" data-city="Omaha" data-rank="1"/>
  <circle cx="303.32" cy="197.77" r="10.8" fill="currentColor" opacity="0.2" class="metro-pulse rank-2"/>
  <circle cx="303.32" cy="197.77" r="6.8" fill="currentColor" opacity="0.9" class="metro-dot rank-2" data-city="Lincoln" data-rank="2"/>
  <circle cx="335.04" cy="184.24" r="9.6" fill="currentColor" opacity="0.2" class="metro-pulse rank-3"/>
  <circle cx="335.04" cy="184.24" r="5.6" fill="currentColor" opacity="0.9" class="metro-dot rank-3" data-city="Bellevue" data-rank="3"/>
</svg>