<svg xmlns="http://www.w3.org/2000/svg" viewBox="0 0 400 300" class="state-outline-svg">
  <path d="M 0.01 139.71 L 0.08 134.93 L 0.13 131.45 L 0.19 124.63 L 0.28 115.93 L 0.30 109.62 L 0.33 102.38 L 0.28 87.53 L 0.22 82.15 L 0.20 70.33 L 0.25 54.18 L 0.22 44.66 L 0.22 40.22 L 10.38 40.15 L 23.96 40.23 L 25.30 40.24 L 29.60 40.27 L 37.30 40.24 L 45.67 40.29 L 55.88 40.18 L 67.16 40.13 L 67.17 40.13 L 79.19 40.08 L 88.47 40.07 L 96.65 40.04 L 104.29 40.00 L 110.67 40.02 L 110.97 40.02 L 125.54 40.11 L 136.43 40.12 L 153.62 40.13 L 162.69 40.11 L 174.28 40.16 L 184.53 40.06 L 189.69 40.02 L 200.87 40.22 L 212.62 40.23 L 212.63 40.23 L 221.55 40.25 L 221.61 49.16 L 221.60 58.90 L 221.56 69.45 L 221.53 77.17 L 221.53 77.17 L 221.48 87.33 L 221.40 95.90 L 221.38 99.52 L 221.37 109.97 L 221.37 110.68 L 221.34 117.80 L 221.32 121.96 L 221.34 131.30 L 221.35 132.89 L 221.27 151.26 L 221.31 155.97 L 221.26 163.45 L 221.23 167.33 L 221.23 167.33 L 221.23 173.59 L 221.23 179.33 L 221.24 183.09 L 221.24 183.10 L 221.25 193.02 L 221.17 198.05 L 221.15 203.30 L 221.14 207.49 L 221.16 215.20 L 221.17 222.48 L 221.22 225.75 L 221.23 231.59 L 221.26 240.48 L 221.33 250.82 L 221.30 252.93 L 221.36 255.71 L 219.38 258.40 L 217.96 260.94 L 217.46 262.01 L 215.16 262.34 L 213.04 261.59 L 211.35 260.57 L 210.57 258.91 L 209.27 257.60 L 207.61 257.50 L 206.43 258.22 L 205.00 258.11 L 204.08 257.31 L 201.84 257.29 L 199.77 257.68 L 198.33 258.56 L 195.75 259.04 L 195.48 260.30 L 195.48 260.47 L 195.50 262.55 L 195.93 265.00 L 197.08 266.57 L 198.22 267.93 L 196.95 269.81 L 197.19 272.81 L 197.48 275.87 L 198.82 277.38 L 198.46 280.58 L 198.41 283.37 L 199.80 284.86 L 201.28 290.32 L 201.82 294.92 L 200.84 295.57 L 200.07 295.55 L 199.87 297.52 L 199.56 300.00 L 193.22 294.88 L 184.32 287.73 L 180.00 284.31 L 174.66 280.07 L 170.92 277.12 L 161.88 270.00 L 161.87 269.99 L 154.51 264.27 L 152.77 262.92 L 145.32 257.13 L 134.83 249.08 L 130.66 245.86 L 111.61 231.43 L 105.48 226.84 L 102.54 224.64 L 86.36 212.64 L 80.68 208.49 L 73.67 203.38 L 58.59 192.47 L 55.88 190.51 L 39.21 178.63 L 31.55 173.26 L 26.97 170.04 L 25.07 168.72 L 15.59 162.12 L 15.51 162.06 L 3.75 153.94 L 0.15 151.48 L 0.12 148.96 L 0.09 147.28 L 0.07 145.31 L 0.00 140.65 L 0.01 139.71 Z" fill="none" stroke="currentColor" stroke-width="2" opacity="0.8" class="state-boundary" transform="translate(69.19, -0.00)"/>
  <circle cx="249.94" cy="256.61" r="12.0" fill="currentColor" opacity="0.2" class="metro-pulse rank-1"/>
  <circle cx="249.94" cy="256.61" r="8.0" fill="currentColor" opacity="0.9" class="metro-dot rank-1" data-city="Las Vegas" data-rank="1"/>
  <circle cx="255.82" cy="261.45" r="10.8" fill="currentColor" opacity="0.2" class="metro-pulse rank-2"/>
  <circle cx="255.82" cy="261.45" r="6.8" fill="currentColor" opacity="0.9" class="metro-dot rank-2" data-city="Henderson" data-rank="2"/>
  <circle cx="76.30" cy="131.79" r="9.6" fill="currentColor" opacity="0.2" class="metro-pulse rank-3"/>
  <circle cx="76.30" cy="131.79" r="5.6" fill="currentColor" opacity="0.9" class="metro-dot rank-3" data-city="Reno" data-rank="3"/>
  <circle cx="250.77" cy="255.53" r="8.4" fill="currentColor" opacity="0.2" class="metro-pulse rank-4"/>
  <circle cx="250.77" cy="255.53" r="4.4" fill="currentColor" opacity="0.9" class="metro-dot rank-4" data-city="North Las Vegas" data-rank="4"/>
  <circle cx="78.57" cy="131.59" r="8.0" fill="currentColor" opacity="0.2" class="metro-pulse rank-5"/>
  <circle cx="78.57" cy="131.59" r="4.0" fill="currentColor" opacity="0.9" class="metro-dot rank-5" data-city="Sparks" data-rank="5"/>
</svg>