<svg xmlns="http://www.w3.org/2000/svg" viewBox="0 0 400 300" class="state-outline-svg">
  <path d="M 0.00 224.93 L 2.60 223.07 L 5.32 218.90 L 8.76 215.81 L 10.71 210.37 L 15.46 206.51 L 15.94 206.21 L 23.30 201.78 L 28.48 201.49 L 36.23 200.17 L 37.28 199.59 L 40.29 197.93 L 44.75 196.66 L 45.60 196.41 L 45.48 193.65 L 45.36 190.97 L 45.73 190.56 L 47.12 189.01 L 53.45 186.16 L 53.57 186.11 L 60.97 181.31 L 62.79 180.33 L 67.14 177.98 L 74.46 176.50 L 78.52 172.04 L 84.56 171.48 L 89.50 168.94 L 89.69 168.84 L 86.81 165.51 L 85.51 164.01 L 78.74 159.45 L 75.25 155.61 L 70.24 151.52 L 67.58 148.93 L 65.67 147.06 L 63.14 142.51 L 57.23 142.12 L 53.88 140.77 L 52.33 136.58 L 53.22 133.77 L 51.48 126.61 L 45.25 123.68 L 39.90 124.35 L 39.74 121.87 L 39.63 120.11 L 39.43 117.01 L 39.27 108.67 L 40.89 103.50 L 47.97 100.74 L 48.27 100.62 L 50.15 94.40 L 52.88 90.50 L 49.43 86.11 L 46.69 81.97 L 45.64 80.38 L 52.34 76.27 L 54.28 74.77 L 58.25 71.71 L 60.70 68.30 L 61.70 66.91 L 62.04 66.44 L 70.03 61.60 L 74.08 53.88 L 79.61 46.56 L 85.54 41.83 L 92.54 40.00 L 117.95 51.69 L 127.64 56.40 L 134.60 59.78 L 141.83 62.96 L 141.83 62.97 L 144.28 64.03 L 162.54 71.94 L 178.28 78.56 L 176.85 83.45 L 175.44 86.98 L 175.28 87.39 L 173.90 90.82 L 173.56 91.67 L 172.55 93.48 L 170.59 97.02 L 170.35 97.45 L 170.01 97.92 L 168.58 99.93 L 165.45 104.31 L 164.41 106.36 L 164.19 106.82 L 163.62 107.93 L 162.52 110.09 L 161.89 111.34 L 161.87 111.39 L 159.68 113.54 L 159.32 113.90 L 157.64 115.55 L 149.79 116.15 L 148.67 116.23 L 145.50 117.67 L 145.28 117.77 L 145.13 121.86 L 143.72 125.51 L 140.25 126.96 L 139.03 131.52 L 138.90 135.56 L 142.88 137.28 L 144.86 138.13 L 150.11 137.39 L 155.34 137.80 L 161.80 140.46 L 164.86 134.86 L 167.15 134.28 L 169.39 141.58 L 169.99 148.05 L 168.89 155.39 L 166.82 162.08 L 163.70 172.16 L 163.19 174.32 L 160.06 187.54 L 158.66 194.83 L 157.19 206.72 L 156.27 210.59 L 156.07 211.40 L 146.49 225.43 L 135.78 237.93 L 135.72 238.00 L 134.35 241.88 L 127.65 249.31 L 122.75 253.73 L 111.07 258.76 L 109.04 260.23 L 104.74 263.36 L 97.72 269.65 L 95.06 273.10 L 90.46 279.52 L 91.37 281.33 L 83.57 289.88 L 80.45 293.85 L 74.39 298.73 L 67.00 300.00 L 63.39 299.48 L 64.66 292.21 L 70.20 282.99 L 72.10 276.97 L 70.04 273.62 L 68.97 273.43 L 60.10 271.88 L 54.70 269.31 L 50.17 269.78 L 45.26 272.88 L 42.04 268.52 L 37.14 264.22 L 33.73 261.77 L 29.34 261.07 L 24.91 256.76 L 21.83 255.12 L 17.14 251.73 L 15.24 250.72 L 12.53 249.29 L 10.09 245.36 L 2.46 243.05 L 3.36 239.03 L 3.40 235.05 L 5.00 230.48 L 1.66 228.55 L 0.00 224.93 Z" fill="none" stroke="currentColor" stroke-width="2" opacity="0.8" class="state-boundary" transform="translate(90.86, 0.00)"/>
  <circle cx="239.34" cy="106.55" r="12.0" fill="currentColor" opacity="0.2" class="metro-pulse rank-1"/>
  <circle cx="239.34" cy="106.55" r="8.0" fill="currentColor" opacity="0.9" class="metro-dot rank-1" data-city="Newark" data-rank="1"/>
  <circle cx="253.18" cy="108.47" r="10.8" fill="currentColor" opacity="0.2" class="metro-pulse rank-2"/>
  <circle cx="253.18" cy="108.47" r="6.8" fill="currentColor" opacity="0.9" class="metro-dot rank-2" data-city="Jersey City" data-rank="2"/>
  <circle cx="176.47" cy="161.69" r="9.6" fill="currentColor" opacity="0.2" class="metro-pulse rank-3"/>
  <circle cx="176.47" cy="161.69" r="5.6" fill="currentColor" opacity="0.9" class="metro-dot rank-3" data-city="Trenton" data-rank="3"/>
  <circle cx="212.52" cy="253.35" r="8.4" fill="currentColor" opacity="0.2" class="metro-pulse rank-4"/>
  <circle cx="212.52" cy="253.35" r="4.4" fill="currentColor" opacity="0.9" class="metro-dot rank-4" data-city="Atlantic City" data-rank="4"/>
  <circle cx="147.46" cy="192.28" r="8.0" fill="currentColor" opacity="0.2" class="metro-pulse rank-5"/>
  <circle cx="147.46" cy="192.28" r="4.0" fill="currentColor" opacity="0.9" class="metro-dot rank-5" data-city="Cherry Hill" data-rank="5"/>
</svg>