<svg xmlns="http://www.w3.org/2000/svg" viewBox="0 0 400 300" class="state-outline-svg">
  <path d="M 0.04 278.70 L 0.08 265.51 L 0.11 249.81 L 0.13 233.70 L 0.13 233.69 L 0.13 213.92 L 0.13 213.91 L 0.13 204.70 L 0.16 187.84 L 0.17 183.36 L 0.18 153.66 L 0.18 151.05 L 0.19 133.60 L 0.19 133.60 L 0.17 123.70 L 0.15 115.07 L 0.17 103.57 L 0.18 91.39 L 0.19 85.76 L 0.20 80.51 L 0.21 45.76 L 0.22 40.05 L 19.71 40.04 L 30.77 40.03 L 48.14 40.01 L 71.94 40.01 L 74.73 40.01 L 99.67 40.00 L 100.01 40.35 L 118.07 40.29 L 124.17 40.27 L 139.62 40.22 L 140.03 40.22 L 152.83 40.20 L 152.92 40.20 L 161.30 40.20 L 166.55 40.20 L 174.26 40.21 L 175.67 40.21 L 178.68 40.21 L 180.25 40.22 L 198.08 40.31 L 216.12 40.30 L 231.30 40.19 L 243.90 40.10 L 273.58 40.01 L 277.43 40.00 L 277.44 44.15 L 277.42 54.91 L 277.43 58.23 L 277.42 62.92 L 275.61 62.92 L 275.66 83.35 L 275.64 97.83 L 275.63 103.20 L 275.58 123.35 L 275.57 125.11 L 275.57 133.86 L 275.57 143.34 L 275.56 149.19 L 275.52 160.21 L 275.52 163.28 L 275.52 163.74 L 275.54 172.45 L 275.54 173.98 L 275.36 185.67 L 275.12 197.32 L 275.12 197.32 L 274.94 205.68 L 274.78 213.44 L 274.62 225.37 L 274.56 230.41 L 274.56 242.40 L 274.57 245.42 L 274.58 262.72 L 274.58 265.38 L 274.58 269.35 L 262.56 269.35 L 244.37 269.36 L 232.57 269.37 L 230.54 269.37 L 202.14 269.35 L 192.77 269.35 L 189.53 269.35 L 178.72 269.35 L 151.36 269.27 L 140.01 269.28 L 130.71 269.29 L 122.61 269.31 L 111.54 269.35 L 111.01 270.69 L 111.32 273.31 L 110.74 275.27 L 113.25 277.91 L 115.68 279.32 L 115.52 279.28 L 94.34 279.29 L 80.43 279.30 L 74.67 279.30 L 38.61 279.30 L 38.60 292.32 L 38.60 299.95 L 15.71 299.96 L 8.67 300.00 L 0.00 299.99 L 0.04 278.70 Z" fill="none" stroke="currentColor" stroke-width="2" opacity="0.8" class="state-boundary" transform="translate(41.28, -0.00)"/>
  <circle cx="151.36" cy="127.88" r="12.0" fill="currentColor" opacity="0.2" class="metro-pulse rank-1"/>
  <circle cx="151.36" cy="127.88" r="8.0" fill="currentColor" opacity="0.9" class="metro-dot rank-1" data-city="Albuquerque" data-rank="1"/>
  <circle cx="184.05" cy="100.24" r="10.8" fill="currentColor" opacity="0.2" class="metro-pulse rank-2"/>
  <circle cx="184.05" cy="100.24" r="6.8" fill="currentColor" opacity="0.9" class="metro-dot rank-2" data-city="Santa Fe" data-rank="2"/>
  <circle cx="146.16" cy="254.70" r="9.6" fill="currentColor" opacity="0.2" class="metro-pulse rank-3"/>
  <circle cx="146.16" cy="254.70" r="5.6" fill="currentColor" opacity="0.9" class="metro-dot rank-3" data-city="Las Cruces" data-rank="3"/>
  <circle cx="150.78" cy="121.07" r="8.4" fill="currentColor" opacity="0.2" class="metro-pulse rank-4"/>
  <circle cx="150.78" cy="121.07" r="4.4" fill="currentColor" opacity="0.9" class="metro-dot rank-4" data-city="Rio Rancho" data-rank="4"/>
</svg>