<svg xmlns="http://www.w3.org/2000/svg" viewBox="0 0 400 300" class="state-outline-svg">
  <path d="M 352.59 264.86 L 356.79 264.13 L 357.22 265.90 L 351.87 266.65 L 352.59 264.86 Z M 0.01 219.52 L 6.13 217.02 L 14.05 213.09 L 17.31 210.57 L 21.80 208.53 L 25.90 206.95 L 28.39 206.10 L 28.51 205.89 L 29.63 203.88 L 31.80 202.45 L 32.48 200.43 L 35.96 199.20 L 39.04 197.83 L 41.47 195.75 L 41.22 195.14 L 40.82 194.16 L 40.05 192.32 L 38.69 191.44 L 38.84 189.31 L 37.98 188.42 L 36.44 188.20 L 33.79 186.51 L 34.46 183.67 L 33.87 183.27 L 33.81 183.25 L 31.31 182.73 L 31.96 180.59 L 32.19 180.18 L 32.67 179.29 L 32.30 176.16 L 31.49 174.32 L 42.26 171.81 L 55.31 169.44 L 59.04 169.38 L 65.24 169.28 L 73.63 169.17 L 80.44 169.64 L 80.47 169.64 L 88.59 170.63 L 88.97 170.64 L 91.16 170.74 L 95.70 173.39 L 100.68 175.54 L 102.97 174.87 L 108.65 173.79 L 110.24 173.49 L 113.75 173.64 L 119.84 173.27 L 125.79 173.91 L 127.95 173.95 L 132.98 172.37 L 136.29 171.77 L 138.43 170.90 L 140.13 170.21 L 142.59 167.45 L 143.21 167.14 L 147.82 164.82 L 152.30 162.54 L 154.42 162.34 L 154.51 162.33 L 156.75 162.95 L 160.57 162.17 L 162.05 160.09 L 162.36 156.68 L 162.14 155.29 L 161.60 151.96 L 160.87 149.66 L 157.80 147.24 L 154.87 146.54 L 151.19 146.07 L 152.54 144.12 L 158.59 141.99 L 157.30 139.59 L 154.21 139.30 L 154.83 137.43 L 154.43 136.16 L 155.11 134.67 L 156.07 133.23 L 158.26 131.46 L 161.89 130.97 L 163.83 129.83 L 163.94 127.95 L 166.88 127.10 L 171.26 124.91 L 173.61 124.84 L 177.63 122.29 L 178.86 121.50 L 180.06 119.26 L 181.96 117.25 L 191.01 110.74 L 197.54 106.30 L 201.65 104.02 L 205.21 101.68 L 210.34 99.74 L 213.83 98.38 L 216.61 97.10 L 217.18 96.23 L 221.04 95.96 L 224.37 94.53 L 228.47 95.63 L 229.33 95.57 L 233.02 95.34 L 234.56 95.24 L 242.49 95.37 L 251.72 95.56 L 261.13 95.32 L 268.09 95.15 L 278.79 95.04 L 292.29 94.71 L 292.22 96.55 L 292.48 98.95 L 290.62 101.71 L 291.27 103.10 L 292.69 104.21 L 292.63 104.35 L 291.63 106.54 L 291.27 108.85 L 290.16 112.52 L 291.19 114.89 L 291.36 115.08 L 292.07 115.87 L 293.67 117.64 L 294.55 120.68 L 293.30 123.31 L 292.68 124.49 L 293.15 126.62 L 293.46 128.74 L 293.50 129.00 L 291.98 130.25 L 289.91 133.14 L 289.71 133.78 L 288.96 136.21 L 288.02 138.80 L 289.43 140.21 L 289.19 141.85 L 289.35 143.93 L 290.88 146.40 L 290.14 149.05 L 290.50 149.47 L 291.95 151.19 L 291.47 151.97 L 289.99 154.43 L 289.04 156.30 L 288.57 159.01 L 289.90 160.40 L 292.99 157.77 L 294.62 159.66 L 296.90 161.91 L 296.40 169.72 L 296.29 171.95 L 295.63 184.64 L 295.62 184.90 L 295.45 188.84 L 295.23 193.86 L 294.67 195.29 L 295.85 197.84 L 293.94 203.00 L 291.86 208.58 L 289.22 215.79 L 284.78 227.88 L 285.62 229.36 L 285.73 229.55 L 284.92 239.83 L 284.33 246.98 L 284.24 248.15 L 283.80 253.34 L 283.47 257.26 L 283.18 260.19 L 283.18 260.20 L 283.18 260.26 L 283.14 260.66 L 282.83 263.89 L 285.94 267.65 L 276.23 272.09 L 274.78 272.76 L 277.88 276.53 L 277.89 277.16 L 277.98 278.00 L 277.98 278.02 L 276.13 280.09 L 273.46 281.32 L 273.02 282.76 L 274.17 283.00 L 275.42 283.26 L 278.12 282.89 L 279.80 281.99 L 285.15 281.07 L 285.27 280.84 L 285.82 279.78 L 288.03 280.31 L 290.03 279.38 L 292.83 280.55 L 297.18 281.59 L 297.48 281.66 L 301.13 280.58 L 301.33 279.35 L 302.89 278.62 L 306.08 278.96 L 314.30 278.89 L 321.21 278.35 L 326.80 277.45 L 330.49 275.37 L 333.18 273.42 L 335.70 272.41 L 337.33 270.97 L 340.20 270.25 L 344.84 268.53 L 345.16 269.22 L 341.85 272.30 L 340.56 274.25 L 343.55 275.49 L 346.03 274.92 L 347.68 272.10 L 349.62 272.72 L 349.09 274.88 L 351.09 276.41 L 355.29 274.10 L 357.12 273.68 L 360.00 274.13 L 356.32 277.06 L 349.02 279.22 L 339.85 281.75 L 335.43 283.41 L 318.97 288.07 L 311.41 290.40 L 307.35 291.93 L 301.27 293.44 L 298.43 294.15 L 293.97 294.61 L 291.91 294.17 L 288.60 294.96 L 285.84 295.61 L 284.82 295.86 L 278.73 296.34 L 273.74 296.04 L 272.63 295.98 L 270.33 296.64 L 265.09 298.16 L 263.57 297.34 L 262.78 296.91 L 260.72 296.06 L 260.65 296.03 L 259.77 295.67 L 257.25 297.94 L 253.28 299.58 L 250.51 300.00 L 251.03 298.06 L 252.51 297.44 L 253.11 295.89 L 253.17 294.15 L 253.27 294.11 L 254.61 293.50 L 255.09 293.46 L 258.43 293.21 L 259.14 292.50 L 259.30 292.35 L 260.23 291.44 L 260.24 291.41 L 260.51 290.88 L 260.97 289.97 L 261.21 289.49 L 261.31 289.30 L 261.75 288.43 L 263.08 286.56 L 263.69 285.71 L 263.83 285.51 L 263.94 285.32 L 264.77 283.82 L 265.20 283.05 L 265.35 282.69 L 265.93 281.23 L 266.00 281.05 L 266.60 279.55 L 267.21 277.47 L 260.51 274.65 L 252.75 271.29 L 251.70 270.84 L 251.70 270.84 L 248.63 269.48 L 245.67 268.04 L 241.55 266.04 L 230.74 261.07 L 228.92 257.95 L 227.94 257.87 L 225.97 257.70 L 221.84 256.61 L 217.64 254.74 L 214.85 251.16 L 214.74 249.85 L 214.60 248.12 L 214.41 243.08 L 213.46 240.81 L 211.68 239.06 L 210.23 238.65 L 208.18 238.07 L 204.87 237.04 L 203.56 234.22 L 201.31 232.14 L 200.46 232.09 L 195.12 231.83 L 194.85 231.83 L 191.66 231.84 L 177.20 231.86 L 166.49 231.86 L 164.68 231.86 L 150.27 231.86 L 149.77 231.85 L 145.92 231.80 L 145.90 231.80 L 129.10 231.77 L 127.33 231.77 L 125.43 231.77 L 98.00 231.85 L 91.63 231.86 L 87.89 231.87 L 78.82 231.83 L 70.84 231.85 L 67.89 231.85 L 66.21 231.85 L 53.07 231.81 L 38.40 231.85 L 35.47 231.86 L 31.91 231.86 L 13.19 231.89 L 6.89 231.87 L 0.04 231.86 L 0.00 225.83 L 0.01 219.52 Z" fill="none" stroke="currentColor" stroke-width="2" opacity="0.8" class="state-boundary" transform="translate(0.00, -27.27)"/>
  <circle cx="262.11" cy="263.15" r="12.0" fill="currentColor" opacity="0.2" class="metro-pulse rank-1"/>
  <circle cx="262.11" cy="263.15" r="8.0" fill="currentColor" opacity="0.9" class="metro-dot rank-1" data-city="New York City" data-rank="1"/>
  <circle cx="40.24" cy="164.18" r="10.8" fill="currentColor" opacity="0.2" class="metro-pulse rank-2"/>
  <circle cx="40.24" cy="164.18" r="6.8" fill="currentColor" opacity="0.9" class="metro-dot rank-2" data-city="Buffalo" data-rank="2"/>
  <circle cx="98.05" cy="151.88" r="9.6" fill="currentColor" opacity="0.2" class="metro-pulse rank-3"/>
  <circle cx="98.05" cy="151.88" r="5.6" fill="currentColor" opacity="0.9" class="metro-dot rank-3" data-city="Rochester" data-rank="3"/>
  <circle cx="273.48" cy="174.82" r="8.4" fill="currentColor" opacity="0.2" class="metro-pulse rank-4"/>
  <circle cx="273.48" cy="174.82" r="4.4" fill="currentColor" opacity="0.9" class="metro-dot rank-4" data-city="Albany" data-rank="4"/>
  <circle cx="164.60" cy="156.82" r="8.0" fill="currentColor" opacity="0.2" class="metro-pulse rank-5"/>
  <circle cx="164.60" cy="156.82" r="4.0" fill="currentColor" opacity="0.9" class="metro-dot rank-5" data-city="Syracuse" data-rank="5"/>
</svg>