<svg xmlns="http://www.w3.org/2000/svg" viewBox="0 0 400 300" class="state-outline-svg">
  <path d="M 0.00 283.13 L 2.46 279.97 L 2.38 274.29 L 6.33 273.02 L 11.08 269.36 L 10.38 267.75 L 9.36 265.39 L 12.05 261.16 L 10.40 254.50 L 10.54 253.73 L 11.52 248.34 L 12.21 246.59 L 13.41 243.54 L 15.31 237.86 L 14.87 236.16 L 14.23 233.64 L 15.86 227.06 L 15.87 227.03 L 17.46 220.62 L 17.61 212.58 L 22.18 209.43 L 22.59 209.16 L 27.04 197.99 L 33.30 194.06 L 34.35 192.74 L 37.16 189.24 L 38.51 182.74 L 44.88 175.17 L 43.80 170.92 L 47.46 167.13 L 47.49 167.11 L 47.91 166.67 L 51.75 159.84 L 50.06 154.18 L 49.32 151.69 L 50.05 145.51 L 50.82 141.02 L 55.20 137.74 L 60.90 136.46 L 67.80 136.49 L 71.59 135.46 L 73.49 134.94 L 77.50 130.27 L 79.03 129.90 L 86.24 128.13 L 90.66 123.39 L 97.30 120.11 L 96.49 115.51 L 100.79 112.38 L 100.11 107.57 L 96.84 103.80 L 92.62 95.64 L 98.25 89.86 L 103.04 82.33 L 105.83 79.23 L 102.12 72.84 L 105.16 69.11 L 105.43 63.51 L 110.38 59.58 L 113.34 53.45 L 114.67 50.70 L 111.39 46.62 L 119.16 43.55 L 126.83 40.35 L 130.74 43.72 L 136.91 46.42 L 141.21 46.23 L 144.21 42.32 L 146.74 40.00 L 149.34 70.44 L 151.45 96.71 L 152.81 120.28 L 153.17 126.23 L 153.75 136.15 L 153.98 140.03 L 154.08 141.73 L 154.24 144.32 L 154.97 160.86 L 156.11 186.15 L 156.38 190.76 L 156.91 199.93 L 157.52 208.56 L 157.83 212.96 L 158.72 215.95 L 159.62 218.98 L 159.01 222.54 L 158.26 227.01 L 156.67 232.31 L 162.69 237.43 L 167.81 242.87 L 173.73 248.14 L 172.57 251.88 L 172.57 251.89 L 172.24 256.93 L 173.09 257.51 L 179.39 261.82 L 184.63 263.83 L 181.47 268.58 L 178.51 272.25 L 175.18 277.34 L 173.90 280.90 L 173.32 282.53 L 168.59 282.73 L 162.00 281.30 L 158.45 282.86 L 152.00 283.84 L 150.25 286.64 L 148.71 289.11 L 143.51 288.55 L 140.18 288.19 L 138.72 289.18 L 137.01 290.35 L 136.56 290.66 L 136.99 295.95 L 130.65 296.06 L 129.68 296.07 L 129.63 296.07 L 125.78 300.00 L 120.03 299.88 L 116.54 299.80 L 101.03 299.43 L 91.69 299.21 L 80.77 298.97 L 78.10 298.90 L 74.83 298.81 L 65.52 298.56 L 62.50 298.47 L 47.32 298.06 L 44.36 297.98 L 43.02 297.94 L 35.14 297.72 L 27.22 297.51 L 14.36 297.15 L 10.46 297.04 L 9.73 297.02 L 7.82 293.60 L 1.65 289.25 L 0.22 283.95 L 0.00 283.13 Z" fill="none" stroke="currentColor" stroke-width="2" opacity="0.8" class="state-boundary" transform="translate(87.69, -0.00)"/>
  <circle cx="197.46" cy="270.24" r="12.0" fill="currentColor" opacity="0.2" class="metro-pulse rank-1"/>
  <circle cx="197.46" cy="270.24" r="8.0" fill="currentColor" opacity="0.9" class="metro-dot rank-1" data-city="Manchester" data-rank="1"/>
  <circle cx="196.18" cy="293.18" r="10.8" fill="currentColor" opacity="0.2" class="metro-pulse rank-2"/>
  <circle cx="196.18" cy="293.18" r="6.8" fill="currentColor" opacity="0.9" class="metro-dot rank-2" data-city="Nashua" data-rank="2"/>
  <circle cx="189.21" cy="249.05" r="9.6" fill="currentColor" opacity="0.2" class="metro-pulse rank-3"/>
  <circle cx="189.21" cy="249.05" r="5.6" fill="currentColor" opacity="0.9" class="metro-dot rank-3" data-city="Concord" data-rank="3"/>
</svg>