<svg xmlns="http://www.w3.org/2000/svg" viewBox="0 0 400 300" class="state-outline-svg">
  <path d="M 1.43 244.98 L 1.57 244.13 L 3.99 242.41 L 5.82 243.56 L 9.11 243.29 L 11.89 241.47 L 12.12 241.32 L 11.53 239.19 L 12.77 238.24 L 12.19 236.79 L 14.16 234.95 L 14.74 234.74 L 14.97 234.65 L 16.45 234.10 L 19.23 232.24 L 22.34 230.50 L 26.77 230.27 L 27.16 230.25 L 29.81 230.31 L 33.45 230.47 L 35.31 228.85 L 36.57 228.51 L 39.59 226.51 L 41.62 226.62 L 42.94 224.78 L 43.29 224.29 L 43.32 224.24 L 45.64 223.87 L 47.13 222.33 L 49.74 221.81 L 51.72 221.34 L 54.57 221.55 L 55.05 221.03 L 56.23 219.73 L 57.76 217.81 L 57.32 215.69 L 58.01 215.40 L 59.35 214.85 L 61.16 215.81 L 62.32 214.66 L 62.65 213.02 L 64.86 211.98 L 68.79 210.20 L 69.71 211.21 L 70.12 211.66 L 69.50 213.76 L 71.65 214.59 L 73.67 213.45 L 75.44 212.45 L 77.37 209.75 L 77.68 209.33 L 80.22 208.04 L 82.22 207.30 L 83.52 207.53 L 85.36 206.47 L 85.73 206.26 L 88.59 207.19 L 89.14 208.48 L 91.01 208.42 L 91.05 208.42 L 93.14 207.67 L 95.93 203.45 L 96.97 201.97 L 97.62 201.05 L 98.04 200.45 L 101.08 198.61 L 103.69 198.87 L 106.25 198.97 L 105.46 196.89 L 105.10 195.93 L 106.68 193.71 L 106.49 190.91 L 107.41 188.83 L 114.62 189.17 L 120.58 189.31 L 127.75 189.49 L 132.41 189.69 L 138.92 189.90 L 138.92 189.90 L 141.42 189.89 L 146.91 189.88 L 150.68 190.04 L 157.66 190.35 L 158.01 190.37 L 163.55 190.62 L 173.37 190.68 L 174.43 190.68 L 174.44 190.68 L 179.94 190.70 L 187.12 190.73 L 195.30 190.75 L 195.42 190.75 L 197.07 190.75 L 202.22 190.74 L 207.29 190.73 L 210.54 190.72 L 218.52 190.70 L 224.43 190.71 L 226.96 190.72 L 236.06 190.74 L 238.20 190.73 L 243.63 190.69 L 251.38 190.63 L 254.90 190.61 L 260.85 190.59 L 266.24 190.56 L 266.94 190.56 L 285.26 190.54 L 289.67 190.53 L 290.72 190.53 L 300.75 190.54 L 300.81 190.54 L 300.82 190.54 L 308.02 190.34 L 316.00 190.35 L 318.05 190.35 L 325.29 190.36 L 325.29 190.36 L 333.04 190.36 L 336.93 190.36 L 343.41 190.35 L 344.57 195.05 L 346.28 200.92 L 347.33 203.29 L 349.45 208.10 L 351.88 211.89 L 355.49 218.27 L 357.55 222.10 L 358.48 223.74 L 360.00 229.10 L 358.86 237.43 L 356.95 244.16 L 352.82 244.39 L 348.18 245.80 L 347.84 245.90 L 341.55 248.48 L 337.48 250.82 L 332.44 253.83 L 328.54 257.17 L 325.41 259.33 L 322.30 262.09 L 319.72 264.93 L 316.24 270.05 L 315.52 268.43 L 312.88 266.64 L 308.48 265.65 L 301.20 266.22 L 292.81 268.03 L 291.84 268.24 L 287.61 270.09 L 284.29 272.20 L 278.59 274.81 L 276.47 276.19 L 271.60 279.35 L 268.41 282.16 L 266.36 283.98 L 263.71 287.35 L 261.43 292.40 L 260.21 295.10 L 259.42 297.18 L 258.40 299.91 L 256.50 299.69 L 256.02 298.49 L 251.21 297.52 L 245.56 297.51 L 241.18 297.94 L 234.80 300.00 L 231.76 297.38 L 230.34 296.18 L 223.81 290.66 L 213.27 281.80 L 213.27 281.80 L 213.27 281.80 L 201.61 271.80 L 197.87 268.75 L 197.40 268.36 L 188.73 261.27 L 188.01 261.26 L 178.60 261.14 L 178.49 261.14 L 172.41 261.06 L 162.51 260.91 L 152.73 260.75 L 152.73 260.75 L 143.17 260.49 L 143.78 255.94 L 141.40 253.28 L 138.85 250.41 L 138.73 250.28 L 137.57 248.97 L 133.24 251.52 L 132.57 250.36 L 133.43 248.36 L 133.21 247.37 L 133.18 247.27 L 121.60 246.74 L 119.99 246.67 L 114.85 246.44 L 103.73 246.04 L 99.41 245.88 L 95.55 245.74 L 92.70 245.64 L 92.34 245.63 L 85.53 245.49 L 82.31 245.42 L 79.96 245.26 L 77.60 245.11 L 75.80 246.13 L 72.68 247.01 L 70.84 247.39 L 66.44 248.28 L 63.99 250.12 L 63.37 250.01 L 62.49 249.86 L 57.85 251.06 L 57.85 251.06 L 53.35 252.24 L 49.29 253.31 L 49.28 253.31 L 40.58 253.50 L 34.08 253.71 L 31.38 253.79 L 28.51 253.88 L 15.66 253.84 L 15.65 253.84 L 12.86 253.84 L 7.82 253.82 L 0.00 253.81 L 1.43 244.98 Z" fill="none" stroke="currentColor" stroke-width="2" opacity="0.8" class="state-boundary" transform="translate(-0.00, -74.42)"/>
  <circle cx="141.30" cy="169.70" r="12.0" fill="currentColor" opacity="0.2" class="metro-pulse rank-1"/>
  <circle cx="141.30" cy="169.70" r="8.0" fill="currentColor" opacity="0.9" class="metro-dot rank-1" data-city="Charlotte" data-rank="1"/>
  <circle cx="230.86" cy="147.25" r="10.8" fill="currentColor" opacity="0.2" class="metro-pulse rank-2"/>
  <circle cx="230.86" cy="147.25" r="6.8" fill="currentColor" opacity="0.9" class="metro-dot rank-2" data-city="Raleigh" data-rank="2"/>
  <circle cx="220.28" cy="138.55" r="9.6" fill="currentColor" opacity="0.2" class="metro-pulse rank-3"/>
  <circle cx="220.28" cy="138.55" r="5.6" fill="currentColor" opacity="0.9" class="metro-dot rank-3" data-city="Durham" data-rank="3"/>
  <circle cx="183.99" cy="135.35" r="8.4" fill="currentColor" opacity="0.2" class="metro-pulse rank-4"/>
  <circle cx="183.99" cy="135.35" r="4.4" fill="currentColor" opacity="0.9" class="metro-dot rank-4" data-city="Greensboro" data-rank="4"/>
  <circle cx="165.62" cy="134.25" r="8.0" fill="currentColor" opacity="0.2" class="metro-pulse rank-5"/>
  <circle cx="165.62" cy="134.25" r="4.0" fill="currentColor" opacity="0.9" class="metro-dot rank-5" data-city="Winston-Salem" data-rank="5"/>
  <circle cx="71.91" cy="154.75" r="8.0" fill="currentColor" opacity="0.2" class="metro-pulse rank-6"/>
  <circle cx="71.91" cy="154.75" r="4.0" fill="currentColor" opacity="0.9" class="metro-dot rank-6" data-city="Asheville" data-rank="6"/>
</svg>