<svg xmlns="http://www.w3.org/2000/svg" viewBox="0 0 400 300" class="state-outline-svg">
  <path d="M 0.01 152.79 L 32.35 152.83 L 53.32 152.81 L 57.57 152.81 L 88.00 152.85 L 97.40 152.84 L 116.41 152.82 L 122.60 152.82 L 140.43 152.83 L 173.76 152.81 L 185.72 152.82 L 198.63 152.83 L 217.27 152.82 L 224.46 152.81 L 242.54 152.78 L 248.82 152.77 L 292.97 152.76 L 301.34 152.75 L 327.60 152.75 L 327.66 155.38 L 329.60 159.14 L 331.27 163.70 L 332.78 166.54 L 333.80 168.73 L 331.74 172.78 L 331.50 174.69 L 331.49 174.84 L 331.44 175.25 L 331.92 180.14 L 331.98 184.27 L 332.38 188.43 L 331.78 191.51 L 331.59 192.50 L 331.55 192.72 L 333.53 196.43 L 335.29 199.56 L 336.81 204.02 L 338.77 208.29 L 342.03 213.07 L 343.72 216.57 L 344.25 217.68 L 345.61 221.38 L 345.52 224.88 L 345.45 227.70 L 346.28 235.55 L 346.48 237.42 L 346.93 241.62 L 347.29 244.96 L 346.60 248.37 L 349.94 253.06 L 348.75 259.54 L 348.84 263.61 L 348.66 266.30 L 348.70 266.35 L 348.89 266.65 L 350.88 269.70 L 352.57 275.98 L 355.54 279.67 L 357.76 281.54 L 358.02 286.33 L 360.00 292.86 L 359.13 295.84 L 359.05 296.09 L 359.56 300.00 L 334.66 299.97 L 327.63 299.98 L 312.54 300.00 L 301.27 299.99 L 291.58 299.97 L 290.18 299.96 L 287.18 299.96 L 270.65 299.94 L 260.52 299.86 L 255.77 299.84 L 242.26 299.77 L 242.25 299.77 L 238.07 299.76 L 225.96 299.76 L 218.98 299.75 L 213.17 299.72 L 208.04 299.73 L 200.25 299.69 L 200.24 299.69 L 187.19 299.65 L 180.36 299.61 L 170.51 299.60 L 169.91 299.60 L 169.90 299.60 L 157.88 299.59 L 141.33 299.58 L 128.91 299.58 L 119.69 299.57 L 108.29 299.56 L 98.48 299.55 L 98.39 299.55 L 94.21 299.55 L 82.65 299.54 L 71.96 299.53 L 64.56 299.53 L 56.14 299.53 L 53.17 299.53 L 50.61 299.53 L 39.89 299.52 L 29.50 299.52 L 18.64 299.52 L 0.17 299.52 L 0.16 283.44 L 0.16 281.30 L 0.19 272.40 L 0.18 270.91 L 0.17 266.07 L 0.16 262.60 L 0.16 252.03 L 0.20 242.73 L 0.17 232.99 L 0.17 232.91 L 0.19 229.78 L 0.24 219.88 L 0.31 210.27 L 0.24 202.19 L 0.23 201.01 L 0.23 201.01 L 0.15 189.22 L 0.10 182.12 L 0.06 177.08 L 0.04 170.37 L 0.00 160.11 L 0.01 152.79 Z" fill="none" stroke="currentColor" stroke-width="2" opacity="0.8" class="state-boundary" transform="translate(0.00, -56.37)"/>
  <circle cx="348.70" cy="198.38" r="12.0" fill="currentColor" opacity="0.2" class="metro-pulse rank-1"/>
  <circle cx="348.70" cy="198.38" r="8.0" fill="currentColor" opacity="0.9" class="metro-dot rank-1" data-city="Fargo" data-rank="1"/>
  <circle cx="156.85" cy="201.69" r="10.8" fill="currentColor" opacity="0.2" class="metro-pulse rank-2"/>
  <circle cx="156.85" cy="201.69" r="6.8" fill="currentColor" opacity="0.9" class="metro-dot rank-2" data-city="Bismarck" data-rank="2"/>
  <circle cx="337.02" cy="148.03" r="9.6" fill="currentColor" opacity="0.2" class="metro-pulse rank-3"/>
  <circle cx="337.02" cy="148.03" r="5.6" fill="currentColor" opacity="0.9" class="metro-dot rank-3" data-city="Grand Forks" data-rank="3"/>
</svg>