<svg xmlns="http://www.w3.org/2000/svg" viewBox="0 0 400 300" class="state-outline-svg">
  <path d="M 142.39 60.65 L 145.12 58.53 L 148.25 60.63 L 147.80 64.34 L 143.93 65.41 L 142.39 60.65 Z M 0.00 240.12 L 0.09 234.45 L 0.09 234.45 L 0.20 228.15 L 0.29 218.68 L 0.32 215.35 L 0.44 203.79 L 0.44 203.79 L 0.64 189.94 L 0.73 183.52 L 0.83 176.09 L 1.11 161.33 L 1.17 158.22 L 1.17 158.22 L 1.25 150.03 L 1.28 147.38 L 1.29 142.26 L 1.31 130.91 L 1.31 130.91 L 1.27 116.76 L 1.26 111.90 L 1.23 102.29 L 1.20 92.75 L 1.20 91.39 L 1.17 81.42 L 1.16 80.13 L 1.11 72.55 L 1.02 60.48 L 27.80 59.84 L 30.61 59.76 L 33.45 59.69 L 49.90 59.25 L 68.38 58.72 L 76.91 58.48 L 76.92 58.48 L 89.84 58.10 L 99.42 57.82 L 102.64 60.83 L 108.66 60.08 L 115.59 64.25 L 120.52 65.71 L 127.60 67.81 L 130.40 70.70 L 137.22 73.70 L 142.66 69.19 L 144.51 68.37 L 152.97 71.70 L 154.96 74.99 L 155.15 75.31 L 160.31 79.95 L 166.41 82.67 L 171.69 83.02 L 178.88 80.08 L 179.88 80.04 L 185.67 79.78 L 191.99 76.81 L 200.03 74.97 L 205.60 73.70 L 207.50 74.47 L 208.09 74.71 L 209.73 75.37 L 218.12 75.09 L 218.98 75.06 L 222.05 75.37 L 224.22 75.58 L 231.86 71.80 L 242.41 64.96 L 244.06 63.89 L 249.69 59.67 L 257.09 55.81 L 264.56 53.89 L 274.19 50.04 L 277.81 49.34 L 285.22 47.90 L 292.47 44.94 L 308.39 41.45 L 312.94 40.00 L 312.94 49.31 L 312.94 62.39 L 312.96 74.75 L 312.96 75.54 L 312.97 86.86 L 312.98 94.21 L 312.96 101.42 L 312.95 102.03 L 312.92 112.05 L 312.91 117.92 L 312.91 118.38 L 312.92 121.95 L 312.97 137.41 L 308.27 139.11 L 305.10 138.78 L 302.13 141.51 L 305.46 146.02 L 306.72 151.39 L 305.09 155.14 L 304.78 155.84 L 306.60 161.78 L 303.83 165.61 L 300.95 170.28 L 299.61 172.46 L 299.36 172.86 L 297.12 178.07 L 297.02 181.45 L 296.88 186.02 L 295.11 187.51 L 292.28 189.80 L 290.82 194.81 L 290.76 195.01 L 290.71 198.37 L 287.44 201.10 L 289.94 204.32 L 290.36 204.86 L 287.75 208.43 L 282.06 212.49 L 275.25 217.51 L 272.44 219.57 L 269.15 223.35 L 268.62 223.96 L 264.44 225.32 L 259.85 228.28 L 252.68 231.50 L 251.02 231.28 L 249.32 231.07 L 247.94 227.94 L 244.78 226.88 L 241.36 229.50 L 237.25 232.59 L 236.84 236.56 L 233.30 236.62 L 228.61 236.74 L 226.19 240.71 L 225.47 241.31 L 223.20 243.22 L 223.23 243.48 L 223.91 248.90 L 223.38 249.09 L 219.19 250.55 L 220.25 253.72 L 221.53 258.06 L 217.77 260.59 L 212.59 261.78 L 209.44 257.15 L 204.69 254.50 L 202.18 255.36 L 198.73 258.41 L 198.01 259.50 L 195.40 263.53 L 193.45 269.42 L 189.98 271.02 L 190.54 274.09 L 191.70 281.43 L 192.46 285.15 L 189.27 286.37 L 185.25 286.22 L 184.68 287.23 L 183.87 288.65 L 183.07 293.31 L 181.63 296.73 L 177.43 297.78 L 172.68 298.35 L 168.17 299.25 L 164.41 300.00 L 162.01 298.73 L 160.20 294.71 L 156.88 292.48 L 156.04 291.91 L 152.46 288.85 L 146.99 288.44 L 146.16 287.77 L 143.26 285.45 L 141.93 280.07 L 141.82 277.15 L 141.01 275.46 L 140.51 274.41 L 136.58 275.34 L 131.58 276.30 L 130.24 277.26 L 129.36 277.88 L 124.27 280.55 L 123.06 282.84 L 119.88 284.29 L 115.01 283.68 L 113.21 284.81 L 111.59 285.82 L 109.12 284.11 L 105.06 281.29 L 100.40 280.72 L 93.63 278.33 L 86.82 279.99 L 85.66 282.61 L 85.37 282.72 L 83.00 283.58 L 81.08 283.00 L 76.26 281.53 L 75.42 278.80 L 71.76 277.32 L 70.44 274.74 L 66.64 273.59 L 64.88 273.06 L 61.22 272.15 L 55.92 273.29 L 55.85 273.28 L 49.85 271.98 L 44.19 270.79 L 43.22 269.04 L 42.70 268.11 L 42.77 265.77 L 42.79 265.35 L 38.71 259.87 L 38.05 257.41 L 36.31 255.16 L 35.92 254.66 L 30.50 253.28 L 28.18 250.55 L 27.28 248.33 L 26.06 247.80 L 24.68 248.16 L 23.75 249.20 L 23.36 249.22 L 22.82 249.25 L 19.60 249.43 L 15.44 251.33 L 14.42 250.96 L 10.40 249.51 L 7.72 247.00 L 5.05 245.93 L 0.00 248.98 L 0.00 240.12 Z" fill="none" stroke="currentColor" stroke-width="2" opacity="0.8" class="state-boundary" transform="translate(23.51, -0.00)"/>
  <circle cx="156.04" cy="186.72" r="12.0" fill="currentColor" opacity="0.2" class="metro-pulse rank-1"/>
  <circle cx="156.04" cy="186.72" r="8.0" fill="currentColor" opacity="0.9" class="metro-dot rank-1" data-city="Columbus" data-rank="1"/>
  <circle cx="250.95" cy="74.80" r="10.8" fill="currentColor" opacity="0.2" class="metro-pulse rank-2"/>
  <circle cx="250.95" cy="74.80" r="6.8" fill="currentColor" opacity="0.9" class="metro-dot rank-2" data-city="Cleveland" data-rank="2"/>
  <circle cx="45.93" cy="249.16" r="9.6" fill="currentColor" opacity="0.2" class="metro-pulse rank-3"/>
  <circle cx="45.93" cy="249.16" r="5.6" fill="currentColor" opacity="0.9" class="metro-dot rank-3" data-city="Cincinnati" data-rank="3"/>
  <circle cx="116.81" cy="63.63" r="8.4" fill="currentColor" opacity="0.2" class="metro-pulse rank-4"/>
  <circle cx="116.81" cy="63.63" r="4.4" fill="currentColor" opacity="0.9" class="metro-dot rank-4" data-city="Toledo" data-rank="4"/>
  <circle cx="263.72" cy="105.21" r="8.0" fill="currentColor" opacity="0.2" class="metro-pulse rank-5"/>
  <circle cx="263.72" cy="105.21" r="4.0" fill="currentColor" opacity="0.9" class="metro-dot rank-5" data-city="Akron" data-rank="5"/>
</svg>