<svg xmlns="http://www.w3.org/2000/svg" viewBox="0 0 400 300" class="state-outline-svg">
  <path d="M 0.00 171.75 L 0.02 161.91 L 0.01 158.11 L 6.74 158.13 L 12.78 158.31 L 27.19 158.34 L 40.33 158.40 L 40.92 158.40 L 46.21 158.37 L 60.79 158.31 L 63.73 158.29 L 75.23 158.23 L 81.32 158.21 L 86.40 158.18 L 90.17 158.17 L 99.51 158.10 L 102.90 158.08 L 122.35 158.05 L 126.00 158.04 L 126.31 158.04 L 140.49 158.10 L 145.39 158.11 L 148.95 158.12 L 151.02 158.13 L 162.68 158.13 L 168.10 158.14 L 176.85 158.14 L 187.24 158.17 L 195.24 158.20 L 195.54 158.20 L 205.41 158.18 L 208.21 158.18 L 218.42 158.16 L 219.83 158.16 L 232.70 158.16 L 235.95 158.16 L 245.91 158.15 L 247.89 158.15 L 262.63 158.15 L 272.04 158.17 L 273.11 158.17 L 284.98 158.15 L 294.09 158.14 L 295.62 158.14 L 297.14 158.14 L 303.08 158.14 L 312.03 158.14 L 314.18 158.14 L 319.00 158.14 L 322.57 158.14 L 333.04 158.13 L 335.80 158.13 L 336.32 158.13 L 348.19 158.16 L 352.17 158.16 L 352.15 167.92 L 352.17 172.06 L 352.18 174.38 L 352.17 179.14 L 353.50 187.51 L 354.51 193.31 L 354.94 195.82 L 355.78 200.62 L 357.35 209.84 L 357.42 210.22 L 358.25 215.29 L 359.24 221.25 L 359.86 225.62 L 359.89 225.84 L 360.00 226.59 L 359.84 230.53 L 359.52 239.49 L 359.33 244.88 L 359.26 246.71 L 359.04 253.50 L 358.91 257.45 L 358.75 262.80 L 358.58 269.01 L 358.38 276.13 L 358.18 283.29 L 358.08 286.60 L 357.89 292.98 L 357.72 299.33 L 355.91 300.00 L 354.06 297.98 L 351.64 297.83 L 348.10 296.41 L 347.38 295.84 L 345.94 294.70 L 342.77 295.06 L 340.23 293.51 L 338.66 292.08 L 336.89 290.32 L 334.17 289.89 L 332.13 288.11 L 329.84 286.79 L 329.57 286.70 L 326.61 285.71 L 325.47 287.07 L 324.22 289.25 L 323.08 289.42 L 321.32 289.67 L 317.33 289.63 L 314.06 288.93 L 312.73 287.18 L 310.77 287.17 L 307.98 288.07 L 305.15 288.49 L 302.96 289.47 L 301.66 290.06 L 300.64 289.98 L 298.85 289.83 L 296.84 289.36 L 291.44 290.77 L 287.75 291.18 L 286.85 292.49 L 284.50 294.70 L 282.47 293.79 L 281.21 295.25 L 278.87 296.96 L 278.17 296.06 L 277.17 294.77 L 275.79 293.35 L 273.02 293.63 L 272.12 291.76 L 270.06 291.71 L 269.22 291.22 L 269.33 289.13 L 269.14 289.03 L 266.40 287.62 L 265.47 289.30 L 264.20 291.19 L 261.49 290.75 L 260.76 289.62 L 258.39 290.53 L 256.44 288.19 L 256.10 286.33 L 254.88 286.40 L 254.44 286.43 L 254.12 286.44 L 252.59 287.54 L 252.72 288.88 L 249.77 290.18 L 248.82 291.98 L 248.43 293.60 L 248.29 295.24 L 245.84 295.79 L 243.48 292.10 L 245.12 290.53 L 243.46 287.72 L 241.78 288.30 L 238.75 289.78 L 236.45 291.70 L 233.46 291.52 L 233.16 289.54 L 231.78 287.73 L 231.68 287.60 L 228.67 288.44 L 228.54 288.36 L 227.08 287.39 L 226.54 285.46 L 223.90 284.48 L 220.20 287.26 L 218.37 289.15 L 215.75 290.44 L 212.17 289.22 L 212.14 288.69 L 212.06 287.29 L 212.32 284.49 L 209.88 284.29 L 206.64 284.02 L 205.95 282.07 L 205.94 279.74 L 204.93 277.63 L 204.30 278.19 L 203.01 279.32 L 200.65 278.77 L 196.73 277.97 L 194.83 277.52 L 193.38 278.72 L 192.71 280.54 L 192.33 280.67 L 190.16 281.42 L 187.93 280.13 L 185.88 277.86 L 184.49 277.56 L 182.90 277.21 L 181.13 278.52 L 179.15 278.61 L 176.23 277.57 L 173.48 277.38 L 170.62 275.56 L 170.12 275.52 L 167.99 275.35 L 165.64 275.66 L 162.59 275.32 L 160.15 275.11 L 159.23 270.93 L 158.81 270.45 L 156.55 267.88 L 153.40 265.76 L 151.53 265.55 L 150.46 268.14 L 148.33 267.46 L 148.16 267.45 L 143.56 266.99 L 142.91 268.38 L 138.86 268.11 L 135.99 265.83 L 133.75 263.63 L 132.75 262.82 L 129.08 259.89 L 126.21 260.55 L 126.10 260.57 L 126.10 252.77 L 126.10 240.86 L 126.10 234.44 L 126.10 224.37 L 126.10 216.11 L 126.10 205.10 L 126.10 197.77 L 126.09 179.12 L 125.95 179.12 L 113.05 179.12 L 103.17 179.13 L 101.22 179.13 L 88.97 179.12 L 86.04 179.13 L 80.53 179.14 L 57.90 179.13 L 49.39 179.13 L 40.75 179.11 L 35.28 179.10 L 0.00 179.09 L 0.01 174.80 L 0.00 171.75 Z" fill="none" stroke="currentColor" stroke-width="2" opacity="0.8" class="state-boundary" transform="translate(0.00, -59.02)"/>
  <circle cx="230.43" cy="163.45" r="12.0" fill="currentColor" opacity="0.2" class="metro-pulse rank-1"/>
  <circle cx="230.43" cy="163.45" r="8.0" fill="currentColor" opacity="0.9" class="metro-dot rank-1" data-city="Oklahoma City" data-rank="1"/>
  <circle cx="294.42" cy="134.62" r="10.8" fill="currentColor" opacity="0.2" class="metro-pulse rank-2"/>
  <circle cx="294.42" cy="134.62" r="6.8" fill="currentColor" opacity="0.9" class="metro-dot rank-2" data-city="Tulsa" data-rank="2"/>
  <circle cx="233.66" cy="173.74" r="9.6" fill="currentColor" opacity="0.2" class="metro-pulse rank-3"/>
  <circle cx="233.66" cy="173.74" r="5.6" fill="currentColor" opacity="0.9" class="metro-dot rank-3" data-city="Norman" data-rank="3"/>
  <circle cx="232.04" cy="155.67" r="8.4" fill="currentColor" opacity="0.2" class="metro-pulse rank-4"/>
  <circle cx="232.04" cy="155.67" r="4.4" fill="currentColor" opacity="0.9" class="metro-dot rank-4" data-city="Edmond" data-rank="4"/>
</svg>