<svg xmlns="http://www.w3.org/2000/svg" viewBox="0 0 400 300" class="state-outline-svg">
  <path d="M 0.00 262.27 L 3.18 257.33 L 3.23 257.20 L 5.17 252.00 L 6.28 248.06 L 6.98 245.20 L 7.57 243.15 L 6.77 241.72 L 8.86 239.92 L 11.82 235.75 L 14.19 230.37 L 14.84 227.98 L 15.98 223.75 L 17.46 216.73 L 17.90 214.63 L 19.14 206.02 L 19.64 200.20 L 19.50 198.37 L 19.46 197.91 L 20.83 192.17 L 20.87 188.36 L 21.69 182.51 L 21.76 179.37 L 21.29 175.14 L 21.78 173.49 L 23.53 168.39 L 24.14 164.16 L 24.15 164.06 L 25.68 159.68 L 25.79 156.51 L 26.24 153.69 L 25.49 150.68 L 26.34 146.99 L 25.63 144.36 L 26.92 141.02 L 27.30 136.70 L 27.28 134.61 L 25.99 132.47 L 26.09 131.31 L 26.30 128.90 L 26.03 125.76 L 24.87 124.04 L 27.37 122.66 L 27.73 119.79 L 26.40 115.35 L 22.76 112.86 L 24.67 111.18 L 28.48 113.67 L 31.76 113.10 L 35.38 112.17 L 37.13 113.24 L 39.68 112.03 L 43.00 111.48 L 44.72 110.12 L 47.75 109.68 L 50.06 111.45 L 49.92 113.56 L 52.56 115.14 L 52.90 115.15 L 56.62 115.21 L 59.63 114.04 L 61.69 113.24 L 63.93 113.41 L 68.90 115.70 L 70.75 116.99 L 73.36 117.93 L 75.49 121.01 L 77.37 123.39 L 77.48 125.54 L 78.66 127.54 L 78.52 128.28 L 78.19 130.11 L 79.71 132.37 L 79.48 133.73 L 79.13 135.88 L 79.93 136.68 L 80.75 137.49 L 84.94 139.02 L 91.69 140.20 L 94.07 141.08 L 96.67 140.53 L 98.84 141.76 L 101.91 141.93 L 102.51 141.68 L 105.42 140.45 L 109.07 140.19 L 113.43 138.75 L 115.74 137.46 L 116.99 137.04 L 118.01 136.70 L 119.51 135.30 L 121.99 134.70 L 125.39 135.27 L 128.36 134.78 L 134.38 133.82 L 134.78 133.94 L 138.49 135.05 L 139.25 135.27 L 143.07 134.79 L 148.50 136.29 L 149.92 139.17 L 152.66 138.74 L 154.32 137.32 L 160.60 136.94 L 161.93 137.32 L 162.75 137.54 L 164.53 136.27 L 171.93 134.30 L 173.57 133.40 L 174.35 132.96 L 176.30 132.93 L 180.09 135.00 L 180.86 135.01 L 184.63 135.04 L 190.05 134.06 L 193.23 133.85 L 196.32 131.75 L 199.49 131.22 L 202.63 130.03 L 204.13 129.47 L 208.48 128.85 L 211.39 128.44 L 217.30 128.02 L 220.39 125.23 L 221.67 124.97 L 225.40 125.82 L 227.88 125.52 L 230.90 125.14 L 235.67 124.33 L 241.50 124.64 L 244.38 123.50 L 247.68 121.66 L 247.69 121.66 L 261.45 121.61 L 264.61 121.62 L 275.25 121.63 L 291.75 121.65 L 292.61 121.65 L 304.17 121.66 L 309.27 121.71 L 314.76 121.76 L 320.37 121.82 L 339.86 121.86 L 341.16 123.50 L 342.36 125.78 L 345.06 128.28 L 345.58 128.77 L 347.86 129.39 L 351.02 131.36 L 354.24 131.51 L 356.79 133.48 L 357.12 135.83 L 360.00 138.75 L 358.25 140.94 L 354.45 146.45 L 350.60 152.17 L 349.88 154.19 L 349.65 154.82 L 347.04 161.09 L 345.78 162.70 L 345.75 162.73 L 343.19 164.78 L 342.43 167.10 L 343.53 169.32 L 342.12 171.92 L 341.05 173.26 L 339.16 175.63 L 335.51 176.98 L 333.35 178.30 L 331.90 181.65 L 329.76 185.86 L 328.68 187.37 L 326.07 189.33 L 326.55 191.65 L 325.31 193.26 L 326.47 194.64 L 327.57 196.04 L 326.69 197.47 L 326.47 197.83 L 328.54 199.14 L 330.74 198.31 L 333.48 200.11 L 337.37 200.18 L 337.66 202.02 L 340.45 202.68 L 340.75 203.80 L 340.67 203.87 L 337.13 206.87 L 338.91 209.36 L 337.91 211.42 L 337.19 215.31 L 336.77 215.95 L 335.07 218.51 L 334.98 224.89 L 334.93 228.64 L 334.94 254.05 L 334.95 263.74 L 334.94 282.83 L 334.96 299.68 L 327.32 299.66 L 318.16 299.71 L 308.36 299.74 L 297.25 299.75 L 282.84 299.81 L 282.83 299.81 L 269.32 299.88 L 257.09 300.00 L 247.07 299.95 L 237.84 299.98 L 232.68 299.95 L 231.09 299.94 L 214.81 299.84 L 202.64 299.92 L 194.53 299.92 L 180.31 299.95 L 171.80 299.96 L 163.45 299.96 L 156.54 299.97 L 146.93 299.78 L 138.54 299.80 L 138.18 299.80 L 128.05 299.66 L 120.42 299.54 L 109.06 299.42 L 100.71 299.33 L 100.70 299.33 L 91.29 299.30 L 77.99 299.49 L 67.08 299.54 L 62.60 299.26 L 58.81 299.45 L 53.62 299.71 L 49.74 299.60 L 45.99 299.71 L 39.85 299.89 L 32.51 299.87 L 24.53 299.85 L 15.17 299.74 L 12.55 297.65 L 10.60 296.65 L 8.94 293.90 L 8.52 291.63 L 7.51 289.56 L 6.30 288.52 L 6.31 285.99 L 5.65 284.01 L 5.22 280.09 L 6.83 275.65 L 6.74 273.08 L 6.20 270.39 L 4.53 269.60 L 4.63 268.97 L 1.89 266.97 L 0.00 262.27 Z" fill="none" stroke="currentColor" stroke-width="2" opacity="0.8" class="state-boundary" transform="translate(0.00, -34.84)"/>
  <circle cx="83.40" cy="108.39" r="12.0" fill="currentColor" opacity="0.2" class="metro-pulse rank-1"/>
  <circle cx="83.40" cy="108.39" r="8.0" fill="currentColor" opacity="0.9" class="metro-dot rank-1" data-city="Portland" data-rank="1"/>
  <circle cx="67.53" cy="133.86" r="10.8" fill="currentColor" opacity="0.2" class="metro-pulse rank-2"/>
  <circle cx="67.53" cy="133.86" r="6.8" fill="currentColor" opacity="0.9" class="metro-dot rank-2" data-city="Salem" data-rank="2"/>
  <circle cx="65.23" cy="173.51" r="9.6" fill="currentColor" opacity="0.2" class="metro-pulse rank-3"/>
  <circle cx="65.23" cy="173.51" r="5.6" fill="currentColor" opacity="0.9" class="metro-dot rank-3" data-city="Eugene" data-rank="3"/>
  <circle cx="144.07" cy="173.24" r="8.4" fill="currentColor" opacity="0.2" class="metro-pulse rank-4"/>
  <circle cx="144.07" cy="173.24" r="4.4" fill="currentColor" opacity="0.9" class="metro-dot rank-4" data-city="Bend" data-rank="4"/>
</svg>