<svg xmlns="http://www.w3.org/2000/svg" viewBox="0 0 400 300" class="state-outline-svg">
  <path d="M 0.00 226.66 L 0.02 221.68 L 0.04 213.17 L 0.04 212.65 L 0.06 206.52 L 0.06 200.28 L 0.04 190.67 L 0.04 190.00 L 0.03 179.50 L 0.03 168.39 L 0.03 160.48 L 11.74 156.86 L 22.61 152.00 L 23.71 149.83 L 26.66 148.39 L 30.87 149.01 L 36.83 146.27 L 41.73 144.54 L 46.84 142.42 L 46.83 150.98 L 46.88 159.17 L 56.18 159.18 L 64.73 159.20 L 90.15 159.17 L 94.98 159.16 L 98.95 159.15 L 118.86 159.10 L 136.69 159.15 L 138.98 159.16 L 142.98 159.15 L 153.81 159.13 L 166.12 159.18 L 171.19 159.17 L 179.84 159.15 L 217.07 159.04 L 219.65 159.04 L 222.06 159.05 L 244.85 159.08 L 244.87 159.08 L 250.11 159.15 L 250.78 159.16 L 270.35 159.16 L 272.80 159.16 L 287.33 159.17 L 306.96 159.14 L 311.29 159.13 L 311.66 159.13 L 318.90 159.48 L 320.06 159.54 L 323.11 162.36 L 324.89 166.19 L 329.39 167.59 L 332.17 168.38 L 334.14 168.94 L 336.55 171.32 L 337.84 174.39 L 338.10 181.23 L 338.29 183.58 L 338.43 185.35 L 342.23 190.21 L 347.92 192.76 L 353.53 194.24 L 356.21 194.47 L 357.53 194.58 L 360.00 198.81 L 355.96 199.86 L 352.53 202.59 L 349.34 206.82 L 347.00 211.28 L 342.39 214.07 L 342.19 214.34 L 341.62 215.15 L 340.20 217.11 L 337.91 218.88 L 336.79 219.75 L 332.92 222.12 L 333.53 223.04 L 335.11 225.43 L 337.10 227.96 L 335.52 230.22 L 334.44 233.81 L 334.26 233.88 L 330.18 235.47 L 329.24 238.46 L 329.34 243.27 L 329.45 245.06 L 329.51 246.07 L 329.60 247.51 L 332.69 247.12 L 336.29 248.81 L 337.30 252.95 L 336.78 254.57 L 337.68 256.98 L 339.61 257.76 L 343.02 257.99 L 344.48 260.62 L 345.59 261.70 L 347.12 263.19 L 350.01 265.55 L 352.03 267.77 L 355.94 270.41 L 356.69 271.27 L 358.35 273.19 L 358.24 273.25 L 355.39 274.72 L 351.90 275.04 L 349.56 277.62 L 345.33 278.47 L 342.82 279.82 L 341.77 280.39 L 337.50 283.16 L 337.43 283.19 L 333.78 284.84 L 332.97 285.73 L 332.76 285.97 L 332.83 287.52 L 332.90 289.11 L 332.40 289.26 L 329.83 289.99 L 328.09 290.95 L 327.48 291.28 L 323.01 292.04 L 320.02 292.21 L 315.78 294.77 L 315.49 294.94 L 311.40 293.26 L 305.89 292.64 L 305.32 292.75 L 304.52 292.90 L 304.41 292.92 L 300.18 293.74 L 296.83 295.53 L 294.59 297.66 L 293.32 299.87 L 292.41 299.87 L 270.96 299.89 L 264.92 299.90 L 264.91 299.90 L 264.53 299.90 L 253.45 299.91 L 244.15 299.91 L 235.11 299.92 L 230.70 299.94 L 218.09 300.00 L 217.58 300.00 L 204.13 299.99 L 202.71 299.99 L 189.16 299.99 L 188.54 299.99 L 188.54 299.99 L 170.03 299.91 L 151.05 299.85 L 149.62 299.85 L 134.56 299.84 L 134.55 299.84 L 132.22 299.84 L 111.02 299.81 L 105.78 299.81 L 98.36 299.82 L 91.12 299.82 L 69.68 299.91 L 64.47 299.94 L 46.73 299.96 L 37.32 299.94 L 27.44 299.92 L 6.09 299.93 L 0.03 299.92 L 0.05 285.04 L 0.05 281.68 L 0.05 272.83 L 0.05 261.56 L 0.05 258.00 L 0.05 253.20 L 0.06 243.22 L 0.01 230.08 L 0.00 227.06 L 0.00 226.66 Z" fill="none" stroke="currentColor" stroke-width="2" opacity="0.8" class="state-boundary" transform="translate(0.00, -51.21)"/>
  <circle cx="330.93" cy="234.42" r="12.0" fill="currentColor" opacity="0.2" class="metro-pulse rank-1"/>
  <circle cx="330.93" cy="234.42" r="8.0" fill="currentColor" opacity="0.9" class="metro-dot rank-1" data-city="Philadelphia" data-rank="1"/>
  <circle cx="32.38" cy="204.26" r="10.8" fill="currentColor" opacity="0.2" class="metro-pulse rank-2"/>
  <circle cx="32.38" cy="204.26" r="6.8" fill="currentColor" opacity="0.9" class="metro-dot rank-2" data-city="Pittsburgh" data-rank="2"/>
  <circle cx="310.85" cy="193.89" r="9.6" fill="currentColor" opacity="0.2" class="metro-pulse rank-3"/>
  <circle cx="310.85" cy="193.89" r="5.6" fill="currentColor" opacity="0.9" class="metro-dot rank-3" data-city="Allentown" data-rank="3"/>
  <circle cx="224.54" cy="214.61" r="8.4" fill="currentColor" opacity="0.2" class="metro-pulse rank-4"/>
  <circle cx="224.54" cy="214.61" r="4.4" fill="currentColor" opacity="0.9" class="metro-dot rank-4" data-city="Harrisburg" data-rank="4"/>
  <circle cx="260.46" cy="229.15" r="8.0" fill="currentColor" opacity="0.2" class="metro-pulse rank-5"/>
  <circle cx="260.46" cy="229.15" r="4.0" fill="currentColor" opacity="0.9" class="metro-dot rank-5" data-city="Lancaster" data-rank="5"/>
</svg>