<svg xmlns="http://www.w3.org/2000/svg" viewBox="0 0 400 300" class="state-outline-svg">
  <path d="M 68.93 293.94 L 80.29 272.85 L 94.58 271.27 L 97.95 289.41 L 102.38 299.02 L 80.19 300.00 L 68.93 293.94 Z M 0.67 248.17 L 7.99 238.13 L 6.89 220.80 L 19.40 219.43 L 19.40 219.37 L 21.88 165.74 L 21.88 165.73 L 21.85 152.88 L 21.78 127.63 L 21.78 127.50 L 20.86 103.12 L 18.93 43.20 L 76.31 41.70 L 80.96 41.57 L 90.40 41.33 L 108.64 40.87 L 120.60 40.57 L 143.45 40.00 L 143.44 50.05 L 143.43 59.86 L 143.36 77.43 L 156.00 77.37 L 155.91 95.67 L 158.95 110.39 L 162.52 111.98 L 179.22 119.42 L 194.95 137.89 L 197.12 140.44 L 198.81 142.43 L 217.51 146.89 L 216.14 164.04 L 221.18 195.37 L 215.33 198.82 L 199.59 207.14 L 193.73 204.56 L 185.65 200.99 L 183.81 200.18 L 171.99 198.24 L 163.93 209.09 L 152.48 209.27 L 141.10 206.35 L 132.78 207.71 L 129.37 208.27 L 121.41 222.03 L 113.09 232.83 L 91.61 232.36 L 71.01 236.07 L 48.02 243.19 L 39.58 244.31 L 22.89 246.54 L 0.00 251.29 L 0.67 248.17 Z" fill="none" stroke="currentColor" stroke-width="2" opacity="0.8" class="state-boundary" transform="translate(69.41, -0.00)"/>
  <circle cx="203.50" cy="98.05" r="12.0" fill="currentColor" opacity="0.2" class="metro-pulse rank-1"/>
  <circle cx="203.50" cy="98.05" r="8.0" fill="currentColor" opacity="0.9" class="metro-dot rank-1" data-city="Providence" data-rank="1"/>
  <circle cx="202.49" cy="134.97" r="10.8" fill="currentColor" opacity="0.2" class="metro-pulse rank-2"/>
  <circle cx="202.49" cy="134.97" r="6.8" fill="currentColor" opacity="0.9" class="metro-dot rank-2" data-city="Warwick" data-rank="2"/>
  <circle cx="233.31" cy="197.56" r="9.6" fill="currentColor" opacity="0.2" class="metro-pulse rank-3"/>
  <circle cx="233.31" cy="197.56" r="5.6" fill="currentColor" opacity="0.9" class="metro-dot rank-3" data-city="Newport" data-rank="3"/>
</svg>