<svg xmlns="http://www.w3.org/2000/svg" viewBox="0 0 400 300" class="state-outline-svg">
  <path d="M 0.00 181.17 L 0.88 181.12 L 0.84 175.14 L 0.83 170.99 L 0.82 165.17 L 0.75 157.86 L 0.74 154.69 L 0.71 145.61 L 0.66 140.19 L 0.64 139.37 L 0.58 136.38 L 18.76 136.38 L 29.43 136.38 L 39.66 136.38 L 50.21 136.39 L 52.72 136.39 L 55.64 136.39 L 63.93 136.39 L 71.20 136.39 L 81.72 136.40 L 93.10 136.41 L 97.20 136.42 L 97.29 136.42 L 106.94 136.42 L 118.16 136.44 L 127.23 136.44 L 139.44 136.44 L 155.73 136.45 L 167.55 136.46 L 167.56 136.46 L 168.15 136.46 L 177.84 136.48 L 184.56 136.51 L 197.40 136.55 L 197.41 136.55 L 205.07 136.59 L 210.12 136.58 L 215.83 136.61 L 222.70 136.62 L 234.61 136.62 L 238.73 136.63 L 238.73 136.63 L 252.02 136.69 L 256.70 136.71 L 266.66 136.80 L 282.92 136.81 L 285.87 136.82 L 287.25 136.82 L 296.79 136.85 L 307.87 136.85 L 322.72 136.84 L 329.63 136.83 L 354.12 136.85 L 353.74 139.85 L 353.02 142.47 L 350.97 144.14 L 348.97 146.44 L 345.55 147.90 L 341.72 150.14 L 340.52 151.78 L 340.88 152.98 L 341.28 153.35 L 343.85 155.72 L 345.67 158.43 L 347.17 160.40 L 348.84 161.66 L 351.57 161.77 L 354.20 162.80 L 356.10 163.30 L 357.96 164.69 L 358.55 165.61 L 359.13 166.51 L 359.14 168.34 L 359.22 182.12 L 359.27 190.24 L 359.32 198.47 L 359.34 202.61 L 359.39 211.28 L 359.38 219.00 L 359.38 219.00 L 359.36 235.41 L 359.36 235.41 L 359.34 249.46 L 359.34 251.91 L 352.46 251.91 L 353.14 253.37 L 352.68 255.04 L 356.11 257.33 L 355.99 259.15 L 355.70 261.38 L 353.41 261.80 L 354.34 263.39 L 354.63 263.87 L 356.09 265.12 L 358.29 265.11 L 359.08 268.78 L 360.00 270.17 L 359.40 271.66 L 359.11 272.37 L 356.58 273.67 L 357.48 275.32 L 356.18 276.61 L 357.12 277.48 L 355.16 279.22 L 355.22 279.88 L 355.34 281.30 L 353.45 283.70 L 351.37 285.99 L 351.24 288.53 L 352.80 290.30 L 355.87 292.51 L 358.08 296.29 L 358.22 296.53 L 357.47 298.37 L 358.20 298.73 L 359.71 299.63 L 357.07 300.00 L 355.95 298.70 L 351.86 298.90 L 351.09 297.90 L 349.63 296.05 L 347.24 294.28 L 347.79 291.66 L 343.99 291.48 L 342.88 289.79 L 342.61 289.70 L 337.91 288.14 L 335.13 288.57 L 332.77 287.06 L 332.33 286.78 L 327.30 286.34 L 325.71 285.40 L 323.40 284.06 L 322.27 282.50 L 319.23 281.91 L 317.38 282.37 L 313.80 281.89 L 312.14 282.83 L 310.59 282.65 L 309.13 282.47 L 305.19 282.35 L 303.48 282.56 L 300.38 282.94 L 295.64 282.27 L 292.96 281.93 L 292.07 282.52 L 290.74 285.06 L 288.61 286.44 L 284.60 286.70 L 281.30 284.61 L 279.26 283.12 L 279.04 283.06 L 275.29 282.12 L 273.02 281.46 L 271.69 280.92 L 267.99 279.41 L 265.72 278.90 L 263.62 277.28 L 262.69 275.63 L 246.18 275.64 L 226.97 275.64 L 213.76 275.64 L 198.83 275.64 L 182.37 275.65 L 182.37 275.65 L 144.47 275.67 L 133.71 275.66 L 93.34 275.60 L 93.33 275.60 L 77.92 275.58 L 59.80 275.56 L 49.95 275.55 L 27.48 275.52 L 26.11 275.52 L 0.22 275.53 L 0.18 261.86 L 0.14 252.98 L 0.14 251.77 L 0.13 249.16 L 0.10 235.23 L 0.11 221.64 L 0.11 219.78 L 0.11 216.49 L 0.09 201.32 L 0.09 195.63 L 0.00 181.17 Z" fill="none" stroke="currentColor" stroke-width="2" opacity="0.8" class="state-boundary" transform="translate(0.00, -48.19)"/>
  <circle cx="346.21" cy="201.63" r="12.0" fill="currentColor" opacity="0.2" class="metro-pulse rank-1"/>
  <circle cx="346.21" cy="201.63" r="8.0" fill="currentColor" opacity="0.9" class="metro-dot rank-1" data-city="Sioux Falls" data-rank="1"/>
  <circle cx="39.06" cy="176.31" r="10.8" fill="currentColor" opacity="0.2" class="metro-pulse rank-2"/>
  <circle cx="39.06" cy="176.31" r="6.8" fill="currentColor" opacity="0.9" class="metro-dot rank-2" data-city="Rapid City" data-rank="2"/>
  <circle cx="263.26" cy="110.90" r="9.6" fill="currentColor" opacity="0.2" class="metro-pulse rank-3"/>
  <circle cx="263.26" cy="110.90" r="5.6" fill="currentColor" opacity="0.9" class="metro-dot rank-3" data-city="Aberdeen" data-rank="3"/>
</svg>