<svg xmlns="http://www.w3.org/2000/svg" viewBox="0 0 400 300" class="state-outline-svg">
  <path d="M 0.00 98.46 L 2.48 96.14 L 2.20 93.89 L 5.12 91.39 L 7.53 89.12 L 11.38 86.79 L 15.91 83.77 L 17.12 81.51 L 18.30 78.11 L 18.32 78.10 L 25.80 76.14 L 34.09 73.97 L 34.09 73.97 L 42.64 71.75 L 44.25 72.03 L 45.40 72.24 L 49.91 68.84 L 58.02 67.20 L 61.40 66.51 L 67.15 64.88 L 70.47 63.01 L 74.82 63.29 L 79.14 63.57 L 85.08 63.70 L 97.62 63.97 L 98.27 63.98 L 103.53 64.17 L 110.63 64.43 L 118.58 64.71 L 139.07 65.45 L 148.55 65.88 L 151.50 66.02 L 172.84 66.99 L 172.88 67.18 L 173.30 68.99 L 171.71 72.68 L 172.94 74.81 L 180.91 70.12 L 183.06 72.53 L 183.27 72.76 L 187.98 78.05 L 192.35 82.96 L 191.23 91.33 L 208.84 91.81 L 208.84 91.81 L 226.86 92.10 L 245.08 92.39 L 256.29 92.53 L 256.49 92.53 L 273.83 92.75 L 275.15 92.76 L 291.12 105.83 L 291.98 106.54 L 298.86 112.17 L 320.34 130.58 L 320.34 130.58 L 320.34 130.58 L 339.75 146.91 L 351.79 157.08 L 354.40 159.29 L 360.00 164.11 L 350.19 166.61 L 342.67 170.29 L 335.92 174.99 L 330.30 179.91 L 326.03 184.94 L 323.54 187.88 L 319.34 191.59 L 315.54 197.56 L 313.52 203.30 L 312.16 209.98 L 312.77 212.32 L 309.55 216.14 L 305.13 218.80 L 303.85 219.57 L 300.99 221.05 L 300.28 224.01 L 298.74 227.28 L 293.99 226.65 L 289.50 227.68 L 286.58 225.13 L 282.22 227.30 L 280.29 229.85 L 283.04 233.26 L 280.68 235.40 L 273.66 238.97 L 271.33 242.29 L 264.46 245.26 L 260.71 247.61 L 259.46 251.39 L 253.22 254.73 L 250.80 257.26 L 245.09 257.45 L 239.76 259.31 L 236.64 261.68 L 232.43 262.86 L 232.20 262.99 L 225.55 266.77 L 220.69 267.26 L 219.92 267.34 L 216.02 265.53 L 215.76 266.00 L 215.59 266.30 L 215.53 266.43 L 214.60 268.10 L 216.63 271.90 L 218.37 274.52 L 216.80 278.17 L 210.50 281.12 L 206.24 282.12 L 202.62 280.78 L 197.40 278.23 L 193.55 280.70 L 196.47 282.71 L 200.80 286.37 L 196.88 290.59 L 190.07 294.38 L 186.62 295.14 L 185.97 296.72 L 184.61 300.00 L 180.29 298.26 L 175.54 295.02 L 173.18 296.27 L 167.57 294.12 L 167.12 289.34 L 165.01 285.59 L 164.56 284.81 L 166.47 281.92 L 166.09 277.54 L 163.07 273.79 L 161.46 271.80 L 161.47 267.80 L 155.48 261.88 L 154.78 261.66 L 151.45 260.60 L 147.10 257.78 L 146.34 257.28 L 146.59 253.70 L 145.18 247.30 L 145.14 246.91 L 144.58 240.40 L 141.33 235.42 L 138.67 231.99 L 138.49 226.65 L 135.35 224.46 L 131.04 221.44 L 129.97 221.09 L 126.79 220.06 L 119.56 216.44 L 119.00 213.02 L 118.93 212.54 L 112.72 209.69 L 112.72 209.28 L 112.75 205.05 L 106.27 202.08 L 107.21 197.05 L 106.75 193.15 L 101.91 190.80 L 100.00 188.20 L 99.12 187.01 L 93.29 183.22 L 92.66 183.05 L 90.58 182.49 L 89.12 182.10 L 86.29 178.58 L 85.08 176.33 L 83.35 173.10 L 76.96 166.43 L 68.98 162.91 L 62.86 157.68 L 59.58 157.06 L 59.12 156.22 L 56.96 152.29 L 56.72 151.96 L 53.15 146.88 L 47.72 141.88 L 46.18 136.85 L 45.50 134.65 L 43.29 131.39 L 42.86 130.77 L 39.64 126.12 L 38.25 123.06 L 35.86 117.69 L 31.98 116.92 L 27.07 117.58 L 26.79 117.62 L 22.81 116.07 L 22.64 115.93 L 19.18 113.20 L 18.73 112.76 L 14.86 108.96 L 9.86 107.34 L 5.63 104.73 L 1.09 101.95 L 0.99 101.62 L 0.27 99.33 L 0.00 98.46 Z" fill="none" stroke="currentColor" stroke-width="2" opacity="0.8" class="state-boundary" transform="translate(0.00, -11.50)"/>
  <circle cx="256.01" cy="232.99" r="12.0" fill="currentColor" opacity="0.2" class="metro-pulse rank-1"/>
  <circle cx="256.01" cy="232.99" r="8.0" fill="currentColor" opacity="0.9" class="metro-dot rank-1" data-city="Charleston" data-rank="1"/>
  <circle cx="173.44" cy="141.41" r="10.8" fill="currentColor" opacity="0.2" class="metro-pulse rank-2"/>
  <circle cx="173.44" cy="141.41" r="6.8" fill="currentColor" opacity="0.9" class="metro-dot rank-2" data-city="Columbia" data-rank="2"/>
  <circle cx="71.76" cy="77.68" r="9.6" fill="currentColor" opacity="0.2" class="metro-pulse rank-3"/>
  <circle cx="71.76" cy="77.68" r="5.6" fill="currentColor" opacity="0.9" class="metro-dot rank-3" data-city="Greenville" data-rank="3"/>
  <circle cx="334.14" cy="164.72" r="8.4" fill="currentColor" opacity="0.2" class="metro-pulse rank-4"/>
  <circle cx="334.14" cy="164.72" r="4.4" fill="currentColor" opacity="0.9" class="metro-dot rank-4" data-city="Myrtle Beach" data-rank="4"/>
</svg>