<svg xmlns="http://www.w3.org/2000/svg" viewBox="0 0 400 300" class="state-outline-svg">
  <path d="M 0.36 298.10 L 1.83 297.62 L 4.66 297.18 L 5.32 295.49 L 6.20 293.94 L 9.09 294.38 L 8.71 292.46 L 8.98 290.84 L 8.78 288.90 L 5.93 287.88 L 7.79 286.64 L 9.20 284.20 L 8.18 282.25 L 9.92 281.70 L 10.97 282.03 L 11.94 280.28 L 10.95 278.66 L 11.29 276.42 L 14.58 276.78 L 15.15 276.01 L 15.66 274.03 L 17.98 273.25 L 17.05 272.24 L 14.66 270.39 L 16.37 267.92 L 18.51 268.22 L 21.29 266.77 L 24.35 265.66 L 24.10 264.07 L 24.38 262.98 L 27.51 262.10 L 27.44 261.69 L 27.30 261.00 L 25.87 259.91 L 23.95 257.71 L 25.64 256.88 L 26.15 254.31 L 27.69 253.43 L 29.81 252.10 L 28.49 250.12 L 28.33 250.03 L 25.63 248.38 L 26.23 247.42 L 29.38 247.84 L 31.38 246.19 L 28.99 244.89 L 29.46 243.48 L 31.76 243.43 L 32.69 243.40 L 33.20 242.01 L 31.87 240.27 L 32.76 238.54 L 32.00 237.04 L 37.07 236.99 L 40.07 236.90 L 45.63 236.72 L 55.89 236.86 L 61.29 236.87 L 61.60 236.87 L 62.03 236.87 L 74.51 236.89 L 74.70 236.89 L 75.65 236.90 L 90.68 237.02 L 93.75 236.95 L 93.87 236.95 L 94.57 234.80 L 93.66 231.53 L 93.04 229.55 L 95.48 229.60 L 102.22 230.15 L 102.07 231.42 L 108.68 231.27 L 110.89 231.22 L 123.08 231.08 L 123.57 231.07 L 132.75 230.96 L 135.00 230.94 L 145.30 230.82 L 147.37 230.77 L 153.89 230.63 L 155.73 231.11 L 156.18 231.22 L 157.99 230.62 L 161.99 230.79 L 170.55 231.17 L 175.68 231.39 L 180.10 231.61 L 184.33 231.82 L 187.88 231.90 L 190.23 231.95 L 200.35 232.18 L 202.51 232.05 L 208.36 231.71 L 208.57 231.70 L 209.17 231.71 L 216.65 231.86 L 221.69 232.19 L 222.98 232.28 L 229.57 232.66 L 229.57 232.66 L 229.86 232.67 L 241.43 232.94 L 251.35 233.10 L 252.76 233.12 L 252.77 233.12 L 262.71 233.23 L 262.72 233.23 L 265.09 233.31 L 266.60 233.36 L 275.06 233.52 L 275.70 232.76 L 284.15 232.82 L 292.28 232.87 L 304.41 232.99 L 310.81 233.06 L 320.01 233.00 L 325.08 232.97 L 333.10 233.00 L 335.21 233.01 L 338.10 233.02 L 339.28 233.02 L 348.06 233.04 L 348.54 232.12 L 352.53 232.19 L 360.00 232.30 L 358.73 233.29 L 357.79 235.42 L 357.99 238.29 L 356.37 240.56 L 356.74 241.54 L 357.55 243.67 L 354.93 243.56 L 352.26 243.30 L 349.14 245.18 L 348.71 245.79 L 348.05 246.73 L 346.98 248.25 L 344.13 252.57 L 341.99 253.34 L 341.95 253.34 L 340.04 253.39 L 339.47 252.07 L 336.55 251.13 L 336.17 251.34 L 334.28 252.43 L 332.96 252.19 L 330.91 252.95 L 328.31 254.27 L 328.00 254.70 L 326.02 257.46 L 324.21 258.48 L 322.14 259.65 L 319.94 258.80 L 320.58 256.65 L 320.15 256.19 L 319.21 255.15 L 315.19 256.98 L 312.93 258.05 L 312.60 259.72 L 311.41 260.89 L 309.55 259.92 L 308.18 260.48 L 307.48 260.77 L 307.93 262.95 L 306.37 264.91 L 305.15 266.24 L 304.66 266.77 L 301.75 266.56 L 299.73 267.04 L 297.05 267.57 L 295.53 269.14 L 293.15 269.53 L 293.12 269.57 L 292.76 270.07 L 291.42 271.96 L 289.33 271.84 L 286.25 273.89 L 284.96 274.24 L 283.06 275.90 L 279.34 275.73 L 276.62 275.67 L 276.22 275.70 L 271.69 275.93 L 268.50 277.71 L 265.67 279.61 L 264.15 280.17 L 263.91 280.26 L 263.32 280.48 L 261.30 282.36 L 261.89 283.85 L 260.63 284.82 L 261.23 287.00 L 261.00 287.15 L 258.16 289.01 L 254.79 289.29 L 252.91 288.11 L 250.44 289.88 L 250.30 290.74 L 248.83 299.77 L 241.05 299.79 L 236.38 299.78 L 231.98 299.79 L 229.96 299.79 L 228.53 299.80 L 226.41 299.80 L 221.61 299.82 L 221.49 299.82 L 218.77 299.84 L 209.63 299.91 L 209.11 299.92 L 205.52 299.98 L 204.65 300.00 L 200.94 299.97 L 195.50 299.93 L 184.74 299.83 L 166.15 299.66 L 165.84 299.66 L 159.65 299.68 L 146.52 299.63 L 146.52 299.63 L 144.33 299.59 L 128.77 299.33 L 128.53 299.33 L 128.22 299.32 L 112.34 299.15 L 111.56 299.14 L 102.13 299.06 L 96.60 299.05 L 95.97 299.05 L 87.54 298.96 L 87.66 299.47 L 85.25 299.48 L 80.86 299.47 L 80.16 299.47 L 76.44 299.46 L 63.28 299.49 L 61.77 299.49 L 53.70 299.50 L 53.31 299.50 L 46.17 299.52 L 39.76 299.54 L 36.34 299.55 L 27.65 299.54 L 24.31 299.53 L 22.84 299.53 L 21.37 299.53 L 0.00 299.47 L 0.36 298.10 Z" fill="none" stroke="currentColor" stroke-width="2" opacity="0.8" class="state-boundary" transform="translate(0.00, -94.78)"/>
  <circle cx="146.61" cy="156.20" r="12.0" fill="currentColor" opacity="0.2" class="metro-pulse rank-1"/>
  <circle cx="146.61" cy="156.20" r="8.0" fill="currentColor" opacity="0.9" class="metro-dot rank-1" data-city="Nashville" data-rank="1"/>
  <circle cx="10.82" cy="198.30" r="10.8" fill="currentColor" opacity="0.2" class="metro-pulse rank-2"/>
  <circle cx="10.82" cy="198.30" r="6.8" fill="currentColor" opacity="0.9" class="metro-dot rank-2" data-city="Memphis" data-rank="2"/>
  <circle cx="265.50" cy="164.60" r="9.6" fill="currentColor" opacity="0.2" class="metro-pulse rank-3"/>
  <circle cx="265.50" cy="164.60" r="5.6" fill="currentColor" opacity="0.9" class="metro-dot rank-3" data-city="Knoxville" data-rank="3"/>
  <circle cx="207.78" cy="202.62" r="8.4" fill="currentColor" opacity="0.2" class="metro-pulse rank-4"/>
  <circle cx="207.78" cy="202.62" r="4.4" fill="currentColor" opacity="0.9" class="metro-dot rank-4" data-city="Chattanooga" data-rank="4"/>
  <circle cx="122.59" cy="140.94" r="8.0" fill="currentColor" opacity="0.2" class="metro-pulse rank-5"/>
  <circle cx="122.59" cy="140.94" r="4.0" fill="currentColor" opacity="0.9" class="metro-dot rank-5" data-city="Clarksville" data-rank="5"/>
</svg>