<svg xmlns="http://www.w3.org/2000/svg" viewBox="0 0 400 300" class="state-outline-svg">
  <path d="M 0.30 151.86 L 0.14 150.46 L 0.42 149.75 L 6.31 149.73 L 10.61 149.72 L 15.56 149.72 L 21.59 149.71 L 36.14 149.75 L 41.89 149.75 L 43.61 149.75 L 48.59 149.75 L 63.69 149.76 L 64.77 149.76 L 71.05 149.76 L 80.71 149.75 L 87.11 149.75 L 87.11 147.64 L 87.11 146.23 L 87.10 137.03 L 87.10 135.42 L 87.09 129.05 L 87.13 126.37 L 87.21 120.03 L 87.30 115.90 L 87.39 111.46 L 87.39 111.46 L 87.52 105.26 L 87.62 99.05 L 87.61 98.23 L 87.61 93.60 L 87.61 93.36 L 87.61 91.73 L 87.63 85.87 L 87.63 82.76 L 87.63 77.71 L 87.64 73.06 L 87.64 72.13 L 87.66 61.41 L 87.67 58.56 L 87.68 50.86 L 87.65 40.00 L 88.62 40.00 L 109.10 40.00 L 112.28 40.01 L 117.30 40.02 L 122.24 40.02 L 135.38 40.03 L 138.57 40.02 L 140.28 40.02 L 147.39 40.02 L 148.53 40.02 L 154.26 40.02 L 161.75 40.02 L 161.84 40.02 L 161.84 50.85 L 161.84 55.10 L 161.84 61.50 L 161.84 66.29 L 161.84 72.14 L 161.84 75.86 L 161.84 82.78 L 161.84 87.31 L 161.90 87.30 L 163.57 86.92 L 165.70 88.62 L 166.28 89.09 L 167.58 90.37 L 169.25 91.69 L 171.60 91.85 L 171.98 91.04 L 174.65 91.30 L 174.75 91.31 L 175.98 91.71 L 176.60 90.20 L 177.69 90.32 L 179.52 91.56 L 180.83 93.05 L 181.07 93.33 L 181.61 95.76 L 183.03 95.88 L 184.80 96.08 L 186.16 95.89 L 187.40 95.99 L 187.69 96.02 L 189.35 97.07 L 190.95 97.18 L 192.64 97.79 L 193.79 97.74 L 194.82 96.97 L 195.74 97.18 L 196.55 97.35 L 197.74 98.67 L 199.04 99.42 L 200.30 98.99 L 200.52 98.91 L 200.91 97.85 L 201.75 97.15 L 202.85 97.41 L 205.13 97.88 L 206.50 98.20 L 207.25 97.54 L 207.62 97.22 L 208.20 98.44 L 208.21 99.80 L 208.60 100.93 L 210.49 101.08 L 211.90 101.20 L 211.75 102.83 L 211.80 103.64 L 211.81 103.95 L 213.90 104.66 L 215.42 103.91 L 216.48 102.81 L 218.63 101.19 L 220.16 101.76 L 220.47 102.88 L 221.33 103.45 L 221.40 103.49 L 223.15 103.01 L 223.21 103.08 L 224.00 104.13 L 224.18 105.28 L 225.92 105.39 L 227.25 104.27 L 229.01 103.42 L 229.99 103.08 L 230.95 104.71 L 230.00 105.62 L 231.37 107.77 L 232.79 107.44 L 232.87 106.49 L 233.10 105.55 L 233.65 104.50 L 235.37 103.75 L 235.29 102.97 L 236.18 102.34 L 236.37 102.33 L 236.62 102.31 L 237.33 102.27 L 237.52 103.35 L 238.66 104.71 L 240.03 104.18 L 240.46 104.84 L 242.03 105.09 L 242.77 103.99 L 243.31 103.02 L 244.90 103.84 L 245.01 103.89 L 244.94 105.11 L 245.43 105.40 L 246.63 105.42 L 247.15 106.51 L 248.76 106.35 L 249.56 107.17 L 250.14 107.92 L 250.55 108.44 L 251.91 107.45 L 252.64 106.60 L 253.82 107.13 L 255.18 105.85 L 255.71 105.08 L 257.84 104.85 L 260.98 104.03 L 262.15 104.30 L 263.19 104.39 L 263.78 104.44 L 264.53 104.10 L 265.81 103.52 L 267.45 103.28 L 269.07 102.76 L 270.21 102.76 L 270.98 103.78 L 272.88 104.18 L 275.20 104.21 L 276.22 104.06 L 276.88 103.97 L 277.61 102.70 L 278.27 101.91 L 279.99 102.48 L 280.15 102.54 L 281.48 103.31 L 282.66 104.34 L 284.24 104.59 L 285.27 105.61 L 286.18 106.44 L 287.66 107.34 L 289.50 107.13 L 290.33 107.79 L 290.75 108.12 L 292.80 108.95 L 294.21 109.04 L 295.28 110.21 L 296.33 109.82 L 297.96 111.30 L 298.72 111.58 L 299.54 111.80 L 299.93 111.54 L 300.77 111.61 L 302.36 111.31 L 302.97 111.46 L 303.71 110.93 L 304.69 111.28 L 306.41 111.42 L 307.12 111.92 L 307.13 114.74 L 307.13 117.31 L 307.14 118.76 L 307.14 121.46 L 307.14 124.91 L 307.13 128.27 L 307.13 130.31 L 307.13 132.86 L 307.13 136.00 L 307.14 140.20 L 307.14 140.90 L 307.14 144.98 L 307.14 146.40 L 307.16 149.95 L 307.47 150.26 L 308.73 151.56 L 310.39 152.37 L 311.15 153.56 L 311.76 154.51 L 312.98 157.06 L 312.65 158.97 L 312.21 159.86 L 313.36 161.29 L 314.87 161.86 L 314.29 162.72 L 315.56 163.70 L 316.28 165.00 L 316.10 166.81 L 317.60 167.83 L 317.88 169.70 L 317.92 169.70 L 319.10 169.65 L 319.52 169.63 L 319.40 171.01 L 319.62 172.89 L 319.41 173.95 L 319.16 174.95 L 319.62 175.99 L 319.05 177.14 L 318.95 177.34 L 318.69 178.96 L 317.51 180.53 L 317.21 181.96 L 315.86 183.29 L 315.88 184.09 L 314.79 185.25 L 315.25 186.19 L 315.43 188.06 L 314.57 188.72 L 314.39 188.86 L 314.03 190.50 L 315.32 191.82 L 315.23 192.59 L 315.17 193.05 L 315.41 194.30 L 315.44 195.79 L 315.40 197.22 L 315.35 197.27 L 314.50 198.02 L 312.87 199.65 L 312.32 201.12 L 311.78 201.66 L 311.29 202.16 L 309.91 203.35 L 310.85 204.36 L 311.52 205.27 L 312.13 206.09 L 311.57 206.37 L 309.11 206.29 L 306.80 206.56 L 304.24 207.41 L 299.55 209.22 L 299.14 209.38 L 295.97 210.61 L 293.67 211.52 L 291.83 212.43 L 290.35 213.93 L 290.56 214.85 L 288.58 216.12 L 283.15 219.32 L 280.99 221.09 L 280.74 221.29 L 279.13 222.37 L 276.55 224.54 L 274.47 226.19 L 273.07 226.37 L 271.43 227.21 L 269.43 228.22 L 267.11 229.42 L 263.98 231.10 L 259.39 232.97 L 254.66 235.07 L 251.38 236.99 L 250.17 237.81 L 249.88 238.01 L 248.60 239.57 L 243.99 241.89 L 241.85 243.31 L 240.08 244.63 L 238.62 245.86 L 237.78 246.57 L 234.93 249.56 L 233.95 251.31 L 233.92 251.36 L 232.80 252.54 L 231.58 254.23 L 229.83 257.16 L 229.58 257.65 L 228.74 259.26 L 227.79 261.29 L 226.82 263.96 L 226.55 264.93 L 226.27 265.98 L 225.78 270.25 L 226.07 274.50 L 227.14 278.99 L 228.00 281.46 L 228.82 283.83 L 229.47 286.07 L 230.21 288.64 L 231.14 294.08 L 231.31 295.67 L 231.46 296.80 L 231.19 297.34 L 229.97 297.05 L 228.25 297.68 L 226.76 297.98 L 226.09 298.48 L 226.23 299.30 L 225.92 300.00 L 224.71 299.99 L 223.92 299.04 L 222.90 299.03 L 221.77 298.05 L 220.81 297.62 L 219.31 295.94 L 218.01 295.53 L 216.51 295.32 L 215.62 294.75 L 213.98 294.69 L 213.77 294.68 L 211.98 294.65 L 210.36 294.54 L 209.67 295.09 L 208.40 294.66 L 206.98 294.74 L 205.82 294.73 L 205.63 294.67 L 204.56 294.32 L 203.24 293.42 L 203.11 293.34 L 201.19 292.25 L 199.83 291.24 L 198.34 290.86 L 196.57 290.36 L 196.15 290.18 L 195.66 289.95 L 194.67 290.35 L 193.58 289.62 L 191.60 288.14 L 190.93 287.09 L 188.89 287.38 L 187.25 286.49 L 185.45 286.05 L 184.24 286.43 L 183.53 285.70 L 184.00 284.47 L 183.67 283.90 L 182.05 282.69 L 181.92 282.21 L 181.34 280.09 L 181.14 278.42 L 180.32 276.88 L 179.68 275.53 L 178.21 274.64 L 177.43 273.44 L 176.79 272.14 L 175.33 271.08 L 175.45 269.11 L 175.75 267.83 L 175.38 266.26 L 175.00 265.32 L 174.94 265.16 L 174.33 264.52 L 173.32 264.25 L 174.34 261.65 L 174.16 260.70 L 174.10 259.50 L 173.35 259.54 L 173.31 257.56 L 172.65 256.73 L 171.00 256.24 L 169.05 255.74 L 167.74 254.22 L 166.68 253.62 L 165.63 252.72 L 164.83 251.60 L 164.18 250.36 L 163.86 249.32 L 163.50 248.11 L 162.21 247.55 L 161.15 245.54 L 160.01 244.28 L 157.59 242.94 L 157.03 242.52 L 155.32 241.22 L 154.83 239.98 L 154.03 238.49 L 153.63 236.90 L 152.86 235.68 L 152.36 234.74 L 152.16 233.28 L 150.90 232.28 L 149.64 231.18 L 149.49 229.84 L 148.85 228.71 L 148.78 227.67 L 147.78 226.93 L 146.55 225.28 L 146.07 223.98 L 145.74 222.16 L 145.48 220.90 L 145.39 220.50 L 144.10 219.78 L 143.00 218.82 L 142.44 217.38 L 142.29 217.25 L 141.15 216.31 L 140.22 215.42 L 137.56 214.07 L 135.99 211.75 L 134.10 211.38 L 132.76 210.24 L 131.24 210.24 L 130.00 208.84 L 129.96 207.31 L 128.50 206.74 L 127.69 204.93 L 126.40 204.40 L 125.18 204.28 L 123.76 203.55 L 121.49 204.27 L 120.04 204.21 L 118.88 203.94 L 117.71 203.66 L 116.11 203.57 L 113.89 203.24 L 112.53 203.36 L 111.27 203.74 L 110.25 203.61 L 109.12 202.95 L 107.52 202.36 L 105.72 201.53 L 105.29 201.66 L 104.53 201.90 L 104.05 202.92 L 103.48 204.26 L 101.63 203.91 L 100.56 203.90 L 99.63 204.58 L 98.12 204.68 L 96.55 204.93 L 96.15 206.43 L 95.06 207.76 L 94.10 209.36 L 93.34 210.19 L 92.80 212.10 L 92.96 213.19 L 91.80 214.34 L 91.34 215.93 L 91.82 217.04 L 90.68 218.28 L 88.78 219.00 L 87.81 220.42 L 86.82 220.84 L 86.23 222.28 L 85.59 223.37 L 83.12 223.14 L 81.82 223.37 L 79.85 222.47 L 77.38 221.30 L 75.88 219.98 L 74.23 219.27 L 72.58 218.76 L 71.00 218.26 L 69.43 216.65 L 69.32 216.61 L 67.78 216.06 L 64.89 215.71 L 62.93 214.86 L 60.78 213.58 L 59.87 212.54 L 58.70 211.20 L 56.76 210.14 L 55.24 209.69 L 53.26 208.21 L 51.12 206.44 L 50.49 204.14 L 49.19 202.34 L 47.89 200.71 L 47.57 198.79 L 47.12 197.95 L 47.41 195.93 L 47.15 193.38 L 46.23 192.21 L 45.71 191.20 L 44.18 189.51 L 43.32 189.02 L 43.07 187.36 L 42.60 185.49 L 41.73 183.79 L 40.58 183.66 L 40.37 183.21 L 39.87 182.14 L 38.38 181.80 L 37.50 181.01 L 35.99 180.08 L 34.57 178.99 L 32.22 178.62 L 30.28 177.74 L 30.15 176.86 L 28.00 175.54 L 26.30 174.39 L 25.76 173.29 L 24.60 171.75 L 22.59 170.83 L 21.04 170.08 L 20.52 169.22 L 18.70 167.11 L 17.01 166.38 L 16.63 165.26 L 15.60 164.69 L 15.39 164.58 L 13.55 164.43 L 11.22 163.02 L 9.73 161.63 L 8.66 160.44 L 8.11 159.02 L 6.91 157.40 L 6.48 156.82 L 5.32 155.81 L 4.10 155.63 L 3.69 155.91 L 2.63 155.05 L 1.33 154.30 L 0.00 152.90 L 0.30 151.86 Z" fill="none" stroke="currentColor" stroke-width="2" opacity="0.8" class="state-boundary" transform="translate(20.19, -0.00)"/>
  <circle cx="294.96" cy="204.39" r="12.0" fill="currentColor" opacity="0.2" class="metro-pulse rank-1"/>
  <circle cx="294.96" cy="204.39" r="8.0" fill="currentColor" opacity="0.9" class="metro-dot rank-1" data-city="Houston" data-rank="1"/>
  <circle cx="260.15" cy="130.82" r="10.8" fill="currentColor" opacity="0.2" class="metro-pulse rank-2"/>
  <circle cx="260.15" cy="130.82" r="6.8" fill="currentColor" opacity="0.9" class="metro-dot rank-2" data-city="Dallas" data-rank="2"/>
  <circle cx="237.08" cy="192.03" r="9.6" fill="currentColor" opacity="0.2" class="metro-pulse rank-3"/>
  <circle cx="237.08" cy="192.03" r="5.6" fill="currentColor" opacity="0.9" class="metro-dot rank-3" data-city="Austin" data-rank="3"/>
  <circle cx="218.77" cy="212.59" r="8.4" fill="currentColor" opacity="0.2" class="metro-pulse rank-4"/>
  <circle cx="218.77" cy="212.59" r="4.4" fill="currentColor" opacity="0.9" class="metro-dot rank-4" data-city="San Antonio" data-rank="4"/>
  <circle cx="247.13" cy="131.34" r="8.0" fill="currentColor" opacity="0.2" class="metro-pulse rank-5"/>
  <circle cx="247.13" cy="131.34" r="4.0" fill="currentColor" opacity="0.9" class="metro-dot rank-5" data-city="Fort Worth" data-rank="5"/>
  <circle cx="23.87" cy="155.57" r="8.0" fill="currentColor" opacity="0.2" class="metro-pulse rank-6"/>
  <circle cx="23.87" cy="155.57" r="4.0" fill="currentColor" opacity="0.9" class="metro-dot rank-6" data-city="El Paso" data-rank="6"/>
</svg>