<svg xmlns="http://www.w3.org/2000/svg" viewBox="0 0 400 300" class="state-outline-svg">
  <path d="M 0.01 268.47 L 0.05 261.13 L 0.16 254.10 L 0.15 240.21 L 0.15 240.20 L 0.13 234.94 L 0.13 226.91 L 0.13 218.16 L 0.13 218.16 L 0.17 212.73 L 0.24 202.27 L 0.19 195.68 L 0.29 169.99 L 0.29 167.77 L 0.26 154.70 L 0.28 148.89 L 0.33 138.92 L 0.33 137.93 L 0.34 123.31 L 0.37 118.24 L 0.48 106.27 L 0.55 92.05 L 0.55 92.05 L 0.58 81.25 L 0.65 66.49 L 0.67 52.88 L 0.57 40.41 L 12.20 40.67 L 28.90 40.43 L 41.75 40.28 L 54.66 40.17 L 54.70 40.17 L 72.99 40.07 L 92.90 40.03 L 98.39 40.15 L 100.97 40.21 L 100.98 40.21 L 119.61 40.12 L 132.24 40.10 L 132.24 40.10 L 134.13 40.09 L 139.19 40.04 L 156.20 40.00 L 156.25 61.91 L 156.25 62.66 L 156.20 73.30 L 156.20 78.97 L 156.20 92.15 L 182.54 92.23 L 204.27 92.19 L 208.07 92.18 L 210.55 92.18 L 225.38 92.14 L 249.52 91.99 L 259.95 92.01 L 260.03 101.08 L 260.04 109.58 L 260.04 110.04 L 259.92 132.44 L 259.90 134.61 L 259.92 150.50 L 259.91 161.65 L 259.90 170.11 L 259.89 176.92 L 259.87 189.42 L 259.44 221.95 L 259.43 233.62 L 260.38 239.37 L 260.38 239.98 L 260.34 254.11 L 260.28 274.70 L 260.20 299.94 L 236.81 299.94 L 210.55 300.00 L 186.16 300.00 L 171.58 299.73 L 155.17 299.77 L 144.17 299.87 L 137.54 299.82 L 137.18 299.82 L 88.08 299.84 L 78.68 299.86 L 78.34 299.86 L 63.56 299.87 L 59.94 299.88 L 56.44 299.88 L 4.51 299.89 L 0.11 299.87 L 0.05 295.30 L 0.04 285.11 L 0.00 274.33 L 0.01 268.47 Z" fill="none" stroke="currentColor" stroke-width="2" opacity="0.8" class="state-boundary" transform="translate(49.81, -0.00)"/>
  <circle cx="162.14" cy="104.47" r="12.0" fill="currentColor" opacity="0.2" class="metro-pulse rank-1"/>
  <circle cx="162.14" cy="104.47" r="8.0" fill="currentColor" opacity="0.9" class="metro-dot rank-1" data-city="Salt Lake City" data-rank="1"/>
  <circle cx="174.22" cy="131.86" r="10.8" fill="currentColor" opacity="0.2" class="metro-pulse rank-2"/>
  <circle cx="174.22" cy="131.86" r="6.8" fill="currentColor" opacity="0.9" class="metro-dot rank-2" data-city="Provo" data-rank="2"/>
  <circle cx="157.83" cy="80.46" r="9.6" fill="currentColor" opacity="0.2" class="metro-pulse rank-3"/>
  <circle cx="157.83" cy="80.46" r="5.6" fill="currentColor" opacity="0.9" class="metro-dot rank-3" data-city="Ogden" data-rank="3"/>
  <circle cx="74.97" cy="294.88" r="8.4" fill="currentColor" opacity="0.2" class="metro-pulse rank-4"/>
  <circle cx="74.97" cy="294.88" r="4.4" fill="currentColor" opacity="0.9" class="metro-dot rank-4" data-city="St. George" data-rank="4"/>
</svg>