<svg xmlns="http://www.w3.org/2000/svg" viewBox="0 0 400 300" class="state-outline-svg">
  <path d="M 2.34 144.02 L 4.22 137.95 L 4.71 136.35 L 9.89 129.14 L 13.67 126.03 L 13.57 125.37 L 12.80 120.09 L 11.62 114.76 L 13.17 111.83 L 16.28 105.26 L 14.09 97.68 L 10.10 93.25 L 8.32 91.28 L 7.91 90.82 L 5.33 84.91 L 8.10 75.74 L 9.00 69.97 L 11.49 64.50 L 11.64 64.16 L 8.09 61.40 L 6.48 57.93 L 11.13 51.04 L 10.47 45.04 L 10.65 40.45 L 27.76 40.22 L 30.30 40.19 L 44.15 40.00 L 56.87 40.06 L 97.11 40.37 L 100.36 40.61 L 102.77 40.79 L 123.67 41.04 L 160.64 40.91 L 172.94 40.80 L 174.73 40.77 L 198.30 40.38 L 207.62 40.24 L 219.98 40.16 L 216.51 44.41 L 220.74 51.70 L 217.56 55.23 L 212.11 63.81 L 205.68 70.41 L 210.50 79.71 L 214.23 84.00 L 215.00 89.49 L 210.10 93.06 L 211.02 98.30 L 203.45 102.04 L 198.41 107.45 L 190.20 109.46 L 188.44 109.89 L 183.87 115.21 L 181.71 115.80 L 177.39 116.98 L 169.52 116.94 L 163.02 118.40 L 158.02 122.14 L 157.15 127.26 L 156.32 134.30 L 157.17 137.15 L 159.09 143.60 L 154.71 151.39 L 154.23 151.88 L 154.20 151.91 L 150.02 156.23 L 151.25 161.07 L 143.99 169.70 L 142.45 177.12 L 139.25 181.11 L 138.05 182.61 L 130.92 187.10 L 125.84 199.82 L 125.38 200.14 L 120.17 203.72 L 120.00 212.89 L 118.18 220.20 L 118.18 220.24 L 116.31 227.74 L 117.05 230.61 L 117.54 232.55 L 115.38 239.02 L 114.01 242.50 L 113.22 244.50 L 112.10 250.64 L 111.94 251.52 L 113.83 259.12 L 110.76 263.94 L 111.93 266.63 L 112.72 268.46 L 107.31 272.64 L 102.81 274.08 L 102.89 280.56 L 100.09 284.16 L 100.34 285.09 L 101.97 291.14 L 109.01 296.09 L 111.18 300.00 L 104.57 299.82 L 71.34 298.89 L 65.07 298.77 L 57.92 298.62 L 57.59 298.61 L 55.45 298.57 L 47.53 298.41 L 47.03 298.40 L 33.43 298.12 L 19.54 297.83 L 16.58 291.47 L 17.98 287.89 L 18.53 275.37 L 18.96 265.55 L 18.99 264.88 L 20.63 233.22 L 20.92 227.65 L 22.14 208.17 L 16.45 202.54 L 12.41 197.83 L 4.67 204.40 L 1.35 200.92 L 2.54 194.16 L 4.90 189.50 L 8.61 183.36 L 9.79 181.40 L 6.18 177.12 L 5.29 176.07 L 7.14 169.46 L 3.31 163.29 L 2.91 158.09 L 3.51 154.02 L 0.00 150.48 L 2.34 144.02 Z" fill="none" stroke="currentColor" stroke-width="2" opacity="0.8" class="state-boundary" transform="translate(69.63, -0.00)"/>
  <circle cx="95.17" cy="101.24" r="12.0" fill="currentColor" opacity="0.2" class="metro-pulse rank-1"/>
  <circle cx="95.17" cy="101.24" r="8.0" fill="currentColor" opacity="0.9" class="metro-dot rank-1" data-city="Burlington" data-rank="1"/>
  <circle cx="99.84" cy="102.26" r="10.8" fill="currentColor" opacity="0.2" class="metro-pulse rank-2"/>
  <circle cx="99.84" cy="102.26" r="6.8" fill="currentColor" opacity="0.9" class="metro-dot rank-2" data-city="South Burlington" data-rank="2"/>
  <circle cx="167.53" cy="125.76" r="9.6" fill="currentColor" opacity="0.2" class="metro-pulse rank-3"/>
  <circle cx="167.53" cy="125.76" r="5.6" fill="currentColor" opacity="0.9" class="metro-dot rank-3" data-city="Montpelier" data-rank="3"/>
</svg>