<svg xmlns="http://www.w3.org/2000/svg" viewBox="0 0 400 300" class="state-outline-svg">
  <path d="M 326.65 268.05 L 328.20 264.66 L 328.66 261.40 L 329.98 256.96 L 330.16 256.33 L 331.98 253.27 L 333.66 250.38 L 335.67 248.40 L 335.42 246.60 L 338.93 245.54 L 340.34 244.12 L 338.00 241.81 L 341.75 239.81 L 343.69 237.95 L 360.00 236.54 L 355.89 242.19 L 354.09 244.04 L 351.60 243.28 L 349.46 244.86 L 346.78 248.46 L 345.07 252.08 L 344.11 254.38 L 344.39 256.46 L 341.62 259.75 L 341.94 260.45 L 342.24 261.11 L 339.57 264.47 L 338.93 266.08 L 337.10 267.71 L 336.40 269.85 L 335.45 272.14 L 332.04 275.36 L 330.11 276.57 L 328.52 276.11 L 327.71 272.34 L 326.65 268.05 Z M 2.60 296.02 L 6.33 294.65 L 9.15 294.65 L 10.20 294.64 L 12.35 293.77 L 18.74 292.05 L 23.01 291.36 L 23.94 289.10 L 25.61 286.77 L 28.30 286.91 L 33.30 285.43 L 33.79 284.79 L 34.59 283.77 L 34.42 281.50 L 36.70 280.09 L 39.47 279.37 L 40.69 277.92 L 40.52 275.62 L 47.39 272.03 L 47.69 271.87 L 47.89 271.80 L 52.35 269.98 L 56.35 269.07 L 58.10 267.75 L 58.31 267.59 L 62.91 264.38 L 72.87 257.44 L 74.41 258.54 L 72.17 261.00 L 74.21 262.47 L 74.36 263.78 L 75.96 266.22 L 77.93 268.22 L 81.14 268.66 L 82.45 270.04 L 82.66 270.17 L 85.24 271.75 L 90.28 271.57 L 91.45 270.86 L 93.57 269.70 L 95.94 268.83 L 98.75 265.98 L 104.60 270.37 L 109.40 268.51 L 114.38 267.61 L 115.03 267.55 L 117.66 267.33 L 121.23 266.10 L 119.19 264.01 L 119.97 262.47 L 120.27 262.42 L 120.30 262.42 L 121.19 262.28 L 124.02 264.50 L 128.51 262.71 L 133.64 260.13 L 136.85 262.08 L 137.06 262.20 L 139.83 260.66 L 144.45 257.49 L 144.84 255.40 L 147.36 253.79 L 147.32 253.76 L 144.42 251.21 L 144.52 251.10 L 145.88 249.63 L 147.57 246.96 L 148.38 245.07 L 151.27 242.42 L 154.52 239.76 L 155.35 239.08 L 158.13 235.81 L 158.52 234.99 L 159.50 232.94 L 160.48 229.83 L 163.29 227.75 L 165.56 226.30 L 165.97 226.04 L 165.26 224.31 L 168.23 222.48 L 170.15 219.29 L 170.09 217.91 L 171.02 215.90 L 171.88 212.46 L 176.43 214.09 L 179.24 218.19 L 183.78 219.47 L 186.30 219.84 L 186.88 219.93 L 189.70 217.47 L 189.84 217.23 L 190.99 215.17 L 193.00 211.81 L 195.62 209.55 L 195.83 208.25 L 197.14 205.20 L 198.60 203.61 L 199.63 201.84 L 205.17 205.13 L 207.22 202.23 L 209.29 199.55 L 213.18 198.18 L 215.79 195.76 L 218.30 194.63 L 219.55 192.76 L 220.58 191.23 L 224.61 188.25 L 223.98 187.03 L 224.99 184.86 L 225.12 183.20 L 227.74 179.93 L 227.88 177.55 L 227.46 175.12 L 232.49 178.34 L 234.28 179.48 L 240.86 183.72 L 240.86 183.72 L 240.87 183.73 L 249.61 189.36 L 249.61 189.37 L 250.42 187.82 L 251.75 185.23 L 254.25 181.30 L 256.03 181.44 L 256.53 181.48 L 259.85 182.13 L 261.35 183.10 L 263.77 184.30 L 265.33 185.68 L 265.33 185.68 L 264.22 187.09 L 262.71 188.14 L 262.77 189.86 L 264.42 190.51 L 265.22 191.76 L 269.61 192.37 L 270.88 192.63 L 271.70 192.80 L 274.36 193.87 L 274.36 193.87 L 274.30 195.62 L 276.32 196.39 L 278.71 196.55 L 279.85 197.82 L 279.85 197.82 L 281.11 199.11 L 283.30 200.65 L 283.30 201.79 L 283.30 203.91 L 283.29 204.18 L 283.23 205.83 L 283.21 206.21 L 282.69 207.40 L 281.57 207.42 L 281.30 207.60 L 279.31 208.94 L 279.41 210.60 L 275.40 210.59 L 274.43 210.59 L 272.36 213.71 L 272.19 214.30 L 271.62 216.28 L 271.19 217.76 L 271.42 221.33 L 272.83 222.70 L 273.64 223.48 L 278.02 222.94 L 280.96 222.65 L 282.91 222.33 L 284.07 223.65 L 283.84 224.78 L 285.10 225.79 L 285.38 226.01 L 286.77 227.32 L 286.57 228.57 L 288.77 229.29 L 291.85 230.73 L 295.65 230.79 L 298.42 231.03 L 301.45 231.36 L 302.00 233.01 L 304.78 234.74 L 305.85 236.02 L 306.65 236.97 L 309.40 238.69 L 314.12 240.48 L 317.55 242.44 L 316.92 244.83 L 314.41 246.46 L 314.30 249.64 L 313.77 251.26 L 313.60 251.75 L 315.72 254.00 L 315.32 255.32 L 314.93 256.59 L 315.30 257.51 L 315.98 259.25 L 316.96 262.38 L 317.05 264.38 L 315.89 267.16 L 312.00 264.41 L 310.84 263.49 L 310.45 263.64 L 308.98 264.18 L 311.10 267.26 L 312.19 268.86 L 311.56 269.74 L 310.83 270.78 L 312.83 272.30 L 313.01 272.43 L 314.37 274.48 L 315.14 275.52 L 316.07 276.79 L 315.54 278.14 L 314.66 280.34 L 314.98 280.66 L 315.66 281.34 L 316.21 281.91 L 319.54 283.32 L 320.10 283.45 L 323.90 284.29 L 325.82 283.49 L 327.81 283.72 L 329.29 288.93 L 330.99 293.54 L 332.31 296.16 L 333.33 299.57 L 326.51 299.58 L 322.43 299.58 L 314.28 299.58 L 314.28 299.58 L 306.67 299.57 L 304.52 299.57 L 296.14 299.56 L 288.56 299.77 L 288.55 299.77 L 288.49 299.77 L 277.95 299.77 L 276.85 299.77 L 272.21 299.77 L 252.96 299.80 L 252.22 299.80 L 246.55 299.82 L 240.30 299.85 L 236.60 299.87 L 228.46 299.93 L 222.76 299.97 L 220.51 299.99 L 210.94 299.96 L 208.28 299.96 L 202.06 299.94 L 193.68 299.96 L 190.26 299.97 L 184.94 299.98 L 179.52 300.00 L 177.79 300.00 L 177.66 300.00 L 169.07 299.97 L 161.52 299.94 L 155.73 299.92 L 155.73 299.92 L 154.62 299.92 L 144.30 299.86 L 138.47 299.60 L 138.10 299.58 L 130.77 299.25 L 126.81 299.08 L 121.03 299.10 L 118.41 299.10 L 118.41 299.10 L 111.57 298.88 L 106.67 298.67 L 99.13 298.48 L 92.87 298.33 L 85.29 297.98 L 86.59 296.96 L 78.92 296.84 L 74.82 296.78 L 74.33 297.72 L 65.31 297.70 L 64.09 297.70 L 61.13 297.69 L 58.96 297.68 L 50.72 297.65 L 45.52 297.68 L 36.07 297.74 L 29.50 297.67 L 17.04 297.55 L 8.68 297.49 L 0.00 297.44 L 2.60 296.02 Z" fill="none" stroke="currentColor" stroke-width="2" opacity="0.8" class="state-boundary" transform="translate(0.00, -67.56)"/>
  <circle cx="328.59" cy="219.11" r="12.0" fill="currentColor" opacity="0.2" class="metro-pulse rank-1"/>
  <circle cx="328.59" cy="219.11" r="8.0" fill="currentColor" opacity="0.9" class="metro-dot rank-1" data-city="Virginia Beach" data-rank="1"/>
  <circle cx="315.45" cy="219.20" r="10.8" fill="currentColor" opacity="0.2" class="metro-pulse rank-2"/>
  <circle cx="315.45" cy="219.20" r="6.8" fill="currentColor" opacity="0.9" class="metro-dot rank-2" data-city="Norfolk" data-rank="2"/>
  <circle cx="266.35" cy="189.75" r="9.6" fill="currentColor" opacity="0.2" class="metro-pulse rank-3"/>
  <circle cx="266.35" cy="189.75" r="5.6" fill="currentColor" opacity="0.9" class="metro-dot rank-3" data-city="Richmond" data-rank="3"/>
  <circle cx="281.08" cy="132.51" r="8.4" fill="currentColor" opacity="0.2" class="metro-pulse rank-4"/>
  <circle cx="281.08" cy="132.51" r="4.4" fill="currentColor" opacity="0.9" class="metro-dot rank-4" data-city="Arlington" data-rank="4"/>
  <circle cx="159.40" cy="201.26" r="8.0" fill="currentColor" opacity="0.2" class="metro-pulse rank-5"/>
  <circle cx="159.40" cy="201.26" r="4.0" fill="currentColor" opacity="0.9" class="metro-dot rank-5" data-city="Roanoke" data-rank="5"/>
</svg>