<svg xmlns="http://www.w3.org/2000/svg" viewBox="0 0 400 300" class="state-outline-svg">
  <path d="M 68.62 155.30 L 76.31 154.54 L 78.65 153.55 L 80.50 150.77 L 82.42 150.37 L 87.92 152.48 L 91.40 156.29 L 88.82 158.93 L 90.10 160.88 L 89.74 163.35 L 87.95 164.50 L 88.61 167.04 L 85.36 167.53 L 82.87 166.52 L 77.75 165.60 L 73.03 163.51 L 70.21 159.60 L 68.62 155.30 Z M 0.00 169.01 L 3.35 168.79 L 8.28 170.50 L 15.90 173.68 L 21.89 174.60 L 28.77 176.81 L 31.12 178.61 L 38.99 179.40 L 45.96 179.30 L 48.56 179.30 L 54.15 179.83 L 59.18 181.08 L 65.05 181.56 L 68.53 181.35 L 72.88 178.69 L 76.50 181.25 L 79.36 182.63 L 82.04 182.26 L 83.67 181.74 L 87.24 180.61 L 90.60 180.20 L 93.45 182.05 L 93.30 186.06 L 93.32 188.05 L 95.64 190.45 L 96.42 190.35 L 97.22 190.25 L 99.20 189.06 L 100.44 188.32 L 100.62 186.97 L 97.65 185.38 L 98.07 181.71 L 96.46 179.28 L 92.85 177.88 L 90.96 174.82 L 93.06 172.27 L 94.90 167.79 L 94.98 167.61 L 93.88 164.82 L 95.67 162.37 L 96.03 159.68 L 94.70 157.06 L 92.91 153.51 L 92.46 150.43 L 91.88 148.17 L 89.05 146.10 L 87.78 143.41 L 90.71 140.60 L 114.08 140.59 L 121.12 140.61 L 137.12 140.83 L 153.51 140.72 L 165.93 140.64 L 178.59 140.68 L 184.81 140.70 L 200.50 140.68 L 217.79 140.74 L 242.84 140.70 L 257.85 140.70 L 271.47 140.69 L 300.93 140.69 L 309.94 140.69 L 328.13 140.67 L 336.31 140.69 L 343.76 140.72 L 354.64 140.75 L 354.61 147.78 L 354.58 156.52 L 354.50 167.32 L 354.23 181.05 L 354.23 184.71 L 354.22 187.84 L 354.21 199.01 L 354.26 216.03 L 354.28 220.95 L 354.29 225.77 L 354.29 227.03 L 354.29 254.02 L 354.29 257.25 L 354.44 259.35 L 354.49 260.10 L 353.24 262.69 L 356.25 265.02 L 357.77 267.32 L 357.83 269.79 L 359.63 271.12 L 359.10 272.43 L 356.96 275.08 L 358.77 276.18 L 360.00 279.21 L 339.81 279.16 L 334.00 279.11 L 328.31 279.05 L 323.04 279.00 L 311.06 278.99 L 310.17 278.99 L 293.08 278.97 L 282.06 278.96 L 278.78 278.95 L 264.53 279.00 L 264.52 279.00 L 261.10 280.91 L 258.12 282.09 L 252.08 281.76 L 247.14 282.61 L 244.02 283.00 L 241.45 283.31 L 237.59 282.43 L 236.25 282.70 L 233.06 285.59 L 226.94 286.02 L 223.92 286.45 L 219.42 287.09 L 217.86 287.68 L 214.61 288.90 L 211.32 289.45 L 208.13 291.63 L 204.83 291.84 L 199.22 292.86 L 195.32 292.83 L 194.52 292.82 L 190.59 290.68 L 188.57 290.71 L 187.76 291.16 L 186.06 292.09 L 178.40 294.14 L 176.56 295.45 L 175.71 295.22 L 174.33 294.83 L 167.83 295.23 L 166.11 296.69 L 163.27 297.14 L 161.80 294.15 L 156.18 292.60 L 152.22 293.10 L 151.43 292.87 L 147.59 291.73 L 147.17 291.60 L 140.94 292.59 L 137.86 293.10 L 134.35 292.51 L 131.77 293.13 L 130.22 294.58 L 129.16 294.93 L 127.87 295.36 L 125.48 296.70 L 120.96 298.19 L 117.18 298.46 L 114.16 299.74 L 113.54 300.00 L 110.37 299.82 L 108.12 298.54 L 105.43 299.11 L 102.96 298.20 L 95.97 296.98 L 91.63 295.40 L 90.78 294.56 L 89.95 293.73 L 90.32 291.50 L 90.55 290.10 L 88.98 287.75 L 89.32 285.86 L 89.46 285.09 L 88.24 283.02 L 88.13 280.79 L 86.18 278.33 L 83.97 275.14 L 81.27 274.16 L 79.36 272.83 L 74.21 270.46 L 71.88 270.28 L 69.76 271.11 L 66.64 272.32 L 62.79 272.25 L 62.43 272.25 L 59.69 270.61 L 59.84 268.42 L 57.44 266.59 L 54.31 267.05 L 48.69 266.70 L 47.25 264.92 L 46.00 265.57 L 44.54 266.32 L 42.39 265.92 L 39.20 267.94 L 37.64 267.68 L 35.56 266.23 L 34.87 265.56 L 29.74 266.68 L 30.48 263.93 L 30.83 256.25 L 30.25 249.92 L 35.27 249.66 L 36.99 247.99 L 34.60 246.08 L 29.73 245.11 L 29.00 242.39 L 28.79 241.63 L 27.09 237.25 L 25.16 236.29 L 25.66 233.15 L 24.77 225.62 L 24.43 224.88 L 22.56 219.66 L 18.74 216.51 L 17.16 208.31 L 17.05 207.75 L 14.46 201.04 L 11.72 197.55 L 8.57 194.32 L 5.20 192.31 L 4.62 191.97 L 2.46 188.44 L 1.86 184.53 L 1.79 182.26 L 0.19 179.74 L 1.63 176.67 L 2.61 173.14 L 0.00 169.01 Z" fill="none" stroke="currentColor" stroke-width="2" opacity="0.8" class="state-boundary" transform="translate(0.00, -50.30)"/>
  <circle cx="110.34" cy="154.66" r="12.0" fill="currentColor" opacity="0.2" class="metro-pulse rank-1"/>
  <circle cx="110.34" cy="154.66" r="8.0" fill="currentColor" opacity="0.9" class="metro-dot rank-1" data-city="Seattle" data-rank="1"/>
  <circle cx="105.17" cy="170.95" r="10.8" fill="currentColor" opacity="0.2" class="metro-pulse rank-2"/>
  <circle cx="105.17" cy="170.95" r="6.8" fill="currentColor" opacity="0.9" class="metro-dot rank-2" data-city="Tacoma" data-rank="2"/>
  <circle cx="336.49" cy="152.24" r="9.6" fill="currentColor" opacity="0.2" class="metro-pulse rank-3"/>
  <circle cx="336.49" cy="152.24" r="5.6" fill="currentColor" opacity="0.9" class="metro-dot rank-3" data-city="Spokane" data-rank="3"/>
  <circle cx="116.36" cy="154.48" r="8.4" fill="currentColor" opacity="0.2" class="metro-pulse rank-4"/>
  <circle cx="116.36" cy="154.48" r="4.4" fill="currentColor" opacity="0.9" class="metro-dot rank-4" data-city="Bellevue" data-rank="4"/>
  <circle cx="95.16" cy="245.35" r="8.0" fill="currentColor" opacity="0.2" class="metro-pulse rank-5"/>
  <circle cx="95.16" cy="245.35" r="4.0" fill="currentColor" opacity="0.9" class="metro-dot rank-5" data-city="Vancouver" data-rank="5"/>
</svg>