<svg xmlns="http://www.w3.org/2000/svg" viewBox="0 0 400 300" class="state-outline-svg">
  <path d="M 2.00 226.74 L 3.04 223.84 L 3.26 223.25 L 3.98 218.32 L 2.07 216.18 L 2.22 213.54 L 2.39 210.54 L 4.81 211.82 L 8.60 211.06 L 13.14 210.16 L 17.93 209.59 L 22.17 208.52 L 23.62 205.07 L 24.43 200.38 L 25.24 198.94 L 25.82 197.93 L 29.88 198.07 L 33.09 196.84 L 32.33 193.09 L 31.16 185.70 L 30.59 182.59 L 34.09 180.98 L 36.06 175.04 L 38.69 170.99 L 39.41 169.88 L 42.89 166.80 L 45.42 165.95 L 50.21 168.61 L 53.39 173.28 L 58.61 172.09 L 62.40 169.53 L 61.11 165.16 L 60.04 161.95 L 64.27 160.48 L 64.80 160.30 L 64.12 154.83 L 64.08 154.57 L 66.38 152.64 L 67.10 152.03 L 69.54 148.03 L 74.27 147.91 L 77.84 147.85 L 78.25 143.85 L 82.39 140.73 L 85.85 138.09 L 89.03 139.16 L 90.42 142.31 L 92.14 142.53 L 93.81 142.75 L 101.04 139.50 L 105.67 136.51 L 109.88 135.15 L 110.41 134.53 L 113.74 130.72 L 116.57 128.64 L 123.44 123.59 L 129.18 119.49 L 131.80 115.89 L 131.38 115.34 L 128.86 112.09 L 132.15 109.34 L 132.21 105.96 L 132.27 105.75 L 133.74 100.71 L 136.59 98.40 L 138.38 96.89 L 138.52 92.29 L 138.62 88.87 L 140.88 83.62 L 141.13 83.22 L 142.48 81.02 L 145.39 76.31 L 148.18 72.45 L 146.34 66.46 L 146.65 65.75 L 148.30 61.97 L 147.03 56.56 L 143.67 52.01 L 146.67 49.26 L 149.86 49.59 L 154.60 47.88 L 154.60 59.72 L 154.60 65.42 L 154.60 69.65 L 154.60 83.03 L 154.59 93.54 L 154.59 97.52 L 154.58 115.19 L 161.76 115.20 L 187.11 115.19 L 198.84 115.21 L 210.01 115.23 L 231.08 115.21 L 230.66 129.11 L 230.51 142.85 L 230.33 153.00 L 234.91 151.37 L 240.10 147.72 L 245.23 145.40 L 246.80 144.18 L 253.84 138.70 L 259.35 133.46 L 261.10 133.43 L 263.44 133.39 L 269.22 135.81 L 270.26 132.93 L 276.98 127.47 L 282.84 121.28 L 285.20 123.38 L 287.54 127.33 L 291.36 128.17 L 296.09 129.22 L 305.06 129.51 L 305.60 129.52 L 307.27 126.77 L 311.32 122.46 L 315.00 122.00 L 316.45 121.82 L 322.91 119.77 L 333.39 118.87 L 337.39 122.58 L 338.93 124.00 L 344.85 123.53 L 351.91 125.03 L 352.35 129.53 L 353.29 131.38 L 354.23 133.21 L 358.50 138.64 L 358.06 142.20 L 360.00 144.54 L 355.70 151.29 L 353.43 155.75 L 352.03 158.41 L 352.02 158.40 L 337.01 148.72 L 336.99 148.70 L 336.99 148.70 L 325.67 141.41 L 322.61 139.45 L 313.96 133.92 L 314.69 138.10 L 314.44 142.18 L 309.94 147.81 L 309.71 150.65 L 307.97 154.38 L 309.05 156.49 L 302.14 161.61 L 300.37 164.24 L 298.21 167.45 L 293.90 169.39 L 289.41 173.56 L 282.72 175.91 L 279.17 180.52 L 275.64 185.50 L 266.12 179.85 L 264.36 182.89 L 261.85 185.62 L 259.59 190.85 L 259.23 193.10 L 254.73 196.99 L 251.27 202.76 L 249.29 206.29 L 249.06 206.71 L 244.21 210.93 L 243.21 210.78 L 238.88 210.14 L 231.08 207.94 L 226.24 200.90 L 218.43 198.09 L 216.96 204.00 L 215.35 207.46 L 215.45 209.83 L 212.15 215.31 L 207.06 218.45 L 208.27 221.43 L 207.58 221.88 L 203.66 224.37 L 198.83 227.96 L 197.16 233.30 L 195.47 236.82 L 194.79 238.23 L 190.02 243.84 L 188.59 245.02 L 183.00 249.59 L 178.03 254.14 L 176.64 257.39 L 173.74 261.98 L 171.40 264.51 L 171.24 264.69 L 176.22 269.07 L 176.29 269.13 L 171.96 271.90 L 171.28 275.49 L 163.34 280.94 L 158.58 283.59 L 158.23 283.38 L 152.71 280.03 L 143.89 284.46 L 136.18 287.53 L 131.31 283.72 L 129.78 283.96 L 129.72 283.97 L 129.21 284.05 L 127.88 286.69 L 131.38 290.29 L 125.24 292.39 L 120.72 292.78 L 119.60 292.88 L 111.05 294.42 L 102.80 297.62 L 92.74 290.08 L 87.91 294.97 L 83.83 296.47 L 80.20 298.46 L 78.18 299.69 L 69.52 300.00 L 65.09 297.28 L 64.73 297.06 L 62.47 294.69 L 56.95 293.93 L 53.57 290.50 L 50.81 286.30 L 50.57 284.05 L 47.05 281.52 L 50.91 277.29 L 48.27 275.40 L 41.22 274.90 L 35.56 271.19 L 29.35 266.94 L 24.22 264.51 L 22.41 260.12 L 21.92 258.93 L 18.80 256.03 L 16.71 253.00 L 15.22 250.85 L 10.17 247.58 L 10.77 245.99 L 11.83 243.18 L 5.63 236.86 L 0.00 231.59 L 2.00 226.74 Z" fill="none" stroke="currentColor" stroke-width="2" opacity="0.8" class="state-boundary" transform="translate(0.00, -3.94)"/>
  <circle cx="72.90" cy="211.88" r="12.0" fill="currentColor" opacity="0.2" class="metro-pulse rank-1"/>
  <circle cx="72.90" cy="211.88" r="8.0" fill="currentColor" opacity="0.9" class="metro-dot rank-1" data-city="Charleston" data-rank="1"/>
  <circle cx="13.28" cy="206.79" r="10.8" fill="currentColor" opacity="0.2" class="metro-pulse rank-2"/>
  <circle cx="13.28" cy="206.79" r="6.8" fill="currentColor" opacity="0.9" class="metro-dot rank-2" data-city="Huntington" data-rank="2"/>
  <circle cx="195.92" cy="117.99" r="9.6" fill="currentColor" opacity="0.2" class="metro-pulse rank-3"/>
  <circle cx="195.92" cy="117.99" r="5.6" fill="currentColor" opacity="0.9" class="metro-dot rank-3" data-city="Morgantown" data-rank="3"/>
</svg>