<svg xmlns="http://www.w3.org/2000/svg" viewBox="0 0 400 300" class="state-outline-svg">
  <path d="M 339.26 133.08 L 344.87 131.43 L 346.57 133.55 L 343.05 136.96 L 341.22 140.26 L 338.01 137.02 L 339.26 133.08 Z M 120.29 41.73 L 122.39 41.06 L 127.50 40.00 L 132.60 41.01 L 133.51 42.13 L 135.41 45.31 L 134.70 46.78 L 133.27 47.93 L 128.26 48.43 L 125.85 45.62 L 123.99 43.96 L 120.80 42.98 L 120.29 41.73 Z M 0.07 120.38 L 1.04 116.33 L 2.69 115.52 L 3.53 115.11 L 6.35 112.06 L 7.32 109.48 L 9.50 106.72 L 13.21 104.40 L 17.51 103.16 L 19.50 101.80 L 23.66 101.64 L 24.98 99.97 L 28.22 98.99 L 30.55 99.21 L 31.32 97.13 L 33.84 95.86 L 33.85 91.13 L 33.87 86.19 L 33.91 76.32 L 33.94 71.86 L 33.95 62.31 L 38.89 62.22 L 40.16 60.48 L 42.43 58.41 L 44.88 58.25 L 47.70 59.61 L 49.73 59.84 L 52.77 61.21 L 57.04 60.77 L 60.85 60.77 L 70.80 58.23 L 74.86 56.93 L 76.16 56.94 L 78.46 56.94 L 84.11 55.10 L 87.02 54.62 L 89.64 52.98 L 92.95 52.41 L 95.52 50.70 L 98.03 51.96 L 100.15 50.52 L 102.60 49.98 L 105.61 48.64 L 108.46 47.36 L 108.19 44.13 L 111.90 43.01 L 115.97 45.25 L 118.62 46.61 L 122.09 49.14 L 119.04 53.19 L 115.50 56.47 L 114.37 57.93 L 115.97 60.23 L 112.41 62.58 L 111.42 64.92 L 110.11 66.34 L 111.84 66.62 L 113.37 66.87 L 117.32 64.99 L 119.27 64.49 L 121.52 63.27 L 122.55 60.65 L 126.77 63.33 L 132.34 66.77 L 133.30 66.69 L 135.73 66.50 L 139.63 68.10 L 140.74 67.84 L 142.50 69.69 L 145.65 68.57 L 148.28 70.53 L 152.32 71.61 L 155.55 76.14 L 157.70 80.90 L 168.60 83.01 L 185.17 86.21 L 216.32 92.21 L 222.05 94.60 L 225.38 95.99 L 232.26 98.87 L 236.36 98.54 L 239.60 99.27 L 239.83 99.33 L 241.05 100.71 L 243.60 100.63 L 244.69 99.24 L 248.52 98.91 L 255.17 101.26 L 256.87 100.57 L 260.89 102.41 L 264.49 102.21 L 268.39 103.11 L 271.87 104.50 L 271.96 104.53 L 274.32 107.19 L 270.83 110.26 L 272.52 111.56 L 275.28 112.35 L 275.76 112.49 L 278.76 111.76 L 280.41 113.55 L 285.38 114.07 L 288.04 115.90 L 289.64 116.99 L 291.01 118.68 L 288.52 119.86 L 291.20 122.37 L 290.65 124.32 L 289.69 127.18 L 289.60 130.12 L 287.22 131.77 L 286.69 134.68 L 286.31 136.97 L 289.90 136.93 L 292.72 136.85 L 295.24 135.21 L 298.05 136.07 L 297.48 139.05 L 294.97 143.11 L 293.24 145.85 L 295.91 148.50 L 298.58 151.02 L 301.88 151.65 L 299.86 154.51 L 299.60 158.40 L 295.82 158.55 L 292.05 159.20 L 289.19 159.70 L 287.45 161.39 L 287.74 164.26 L 286.81 165.19 L 283.97 167.41 L 281.87 170.98 L 279.47 173.03 L 278.67 175.45 L 278.41 176.23 L 278.60 179.35 L 276.18 181.44 L 278.21 183.34 L 281.73 183.88 L 284.29 181.35 L 286.11 179.39 L 291.34 177.64 L 292.13 176.82 L 292.87 176.05 L 293.48 175.49 L 294.50 174.56 L 294.43 172.78 L 298.68 168.55 L 302.39 165.53 L 305.25 165.21 L 306.16 164.51 L 310.07 163.57 L 313.09 160.82 L 316.34 156.31 L 320.42 152.45 L 321.94 147.55 L 325.54 147.22 L 328.58 145.13 L 329.32 142.44 L 332.23 140.40 L 334.54 140.03 L 336.78 140.52 L 336.72 144.13 L 333.00 146.43 L 332.91 149.39 L 331.91 152.56 L 327.57 156.37 L 324.78 160.04 L 323.76 163.58 L 319.78 166.59 L 317.34 170.11 L 314.12 175.57 L 312.63 178.10 L 310.04 180.66 L 307.10 187.81 L 304.55 195.40 L 304.43 195.75 L 305.78 199.25 L 306.60 202.05 L 304.74 204.97 L 301.27 206.56 L 298.18 209.40 L 295.69 216.01 L 294.00 220.21 L 293.57 221.26 L 294.12 224.87 L 295.61 227.32 L 295.16 229.86 L 295.27 232.33 L 290.49 238.96 L 290.44 240.11 L 290.31 242.97 L 287.59 247.08 L 284.84 253.52 L 284.44 259.82 L 284.42 260.10 L 284.20 263.87 L 285.93 267.38 L 284.47 270.15 L 287.49 274.23 L 287.94 279.21 L 288.36 279.66 L 288.72 280.04 L 291.82 283.31 L 290.78 288.10 L 289.81 289.95 L 289.09 291.33 L 289.17 295.03 L 289.90 300.00 L 284.34 299.95 L 267.17 299.78 L 266.17 299.77 L 261.17 299.79 L 249.64 299.83 L 238.22 299.91 L 238.22 299.90 L 234.28 299.87 L 224.94 299.80 L 221.97 299.78 L 219.10 299.75 L 200.70 299.54 L 198.67 299.51 L 193.44 299.45 L 173.82 299.26 L 168.75 299.21 L 168.75 299.21 L 151.85 299.10 L 140.27 299.13 L 139.66 299.13 L 127.93 299.06 L 126.23 295.17 L 124.63 292.33 L 122.19 291.25 L 115.99 290.15 L 113.45 289.61 L 110.91 289.06 L 106.60 287.03 L 103.55 283.84 L 101.95 278.77 L 99.72 276.53 L 98.72 272.43 L 98.51 271.76 L 97.63 268.84 L 97.61 266.47 L 97.59 263.37 L 99.93 261.11 L 102.60 258.40 L 104.28 256.58 L 101.47 253.18 L 98.76 251.97 L 95.76 249.76 L 96.22 248.08 L 95.58 247.15 L 94.34 245.35 L 95.17 242.53 L 94.31 238.86 L 93.17 236.84 L 92.01 233.06 L 92.94 229.70 L 93.68 227.00 L 91.19 222.78 L 91.00 222.46 L 87.21 218.78 L 83.44 214.96 L 82.48 213.98 L 75.71 212.69 L 74.91 212.53 L 70.66 210.41 L 66.60 206.72 L 61.01 204.71 L 58.89 202.83 L 56.71 200.90 L 55.37 195.94 L 52.67 193.43 L 45.78 191.01 L 44.27 190.48 L 37.35 188.68 L 36.62 188.18 L 34.01 186.40 L 32.70 183.41 L 32.54 183.34 L 30.00 182.22 L 27.84 182.25 L 19.30 181.15 L 15.38 179.14 L 10.91 174.78 L 8.91 173.33 L 5.45 170.82 L 4.71 170.28 L 6.80 165.38 L 6.88 164.97 L 6.89 164.95 L 7.81 160.41 L 7.18 155.80 L 4.84 153.36 L 8.40 150.62 L 8.21 150.03 L 6.89 145.96 L 6.94 145.11 L 7.18 140.85 L 7.96 140.21 L 10.77 137.91 L 13.07 134.51 L 13.74 132.13 L 11.46 130.17 L 9.11 127.13 L 7.47 125.31 L 4.92 125.01 L 0.39 124.41 L 0.00 120.67 L 0.07 120.38 Z" fill="none" stroke="currentColor" stroke-width="2" opacity="0.8" class="state-boundary" transform="translate(6.71, -0.00)"/>
  <circle cx="290.57" cy="268.83" r="12.0" fill="currentColor" opacity="0.2" class="metro-pulse rank-1"/>
  <circle cx="290.57" cy="268.83" r="8.0" fill="currentColor" opacity="0.9" class="metro-dot rank-1" data-city="Milwaukee" data-rank="1"/>
  <circle cx="205.40" cy="266.88" r="10.8" fill="currentColor" opacity="0.2" class="metro-pulse rank-2"/>
  <circle cx="205.40" cy="266.88" r="6.8" fill="currentColor" opacity="0.9" class="metro-dot rank-2" data-city="Madison" data-rank="2"/>
  <circle cx="284.48" cy="184.82" r="9.6" fill="currentColor" opacity="0.2" class="metro-pulse rank-3"/>
  <circle cx="284.48" cy="184.82" r="5.6" fill="currentColor" opacity="0.9" class="metro-dot rank-3" data-city="Green Bay" data-rank="3"/>
  <circle cx="295.43" cy="294.71" r="8.4" fill="currentColor" opacity="0.2" class="metro-pulse rank-4"/>
  <circle cx="295.43" cy="294.71" r="4.4" fill="currentColor" opacity="0.9" class="metro-dot rank-4" data-city="Kenosha" data-rank="4"/>
</svg>