<svg xmlns="http://www.w3.org/2000/svg" viewBox="0 0 400 300" class="state-outline-svg">
  <path d="M 0.00 101.09 L 0.65 94.19 L 0.65 94.16 L 13.97 94.08 L 18.07 94.63 L 37.64 94.28 L 54.57 94.07 L 64.68 94.08 L 76.20 94.10 L 100.40 93.93 L 102.51 94.25 L 125.17 94.25 L 131.38 94.25 L 144.34 94.20 L 157.24 94.15 L 161.66 94.15 L 190.44 94.16 L 214.22 94.44 L 246.34 94.55 L 246.35 94.55 L 258.62 94.36 L 267.71 94.21 L 307.36 94.22 L 309.33 94.22 L 309.99 94.22 L 359.72 94.37 L 359.82 110.10 L 359.82 116.28 L 359.84 132.78 L 359.84 136.36 L 359.84 138.38 L 359.84 153.16 L 359.86 168.31 L 359.87 171.15 L 359.88 172.47 L 359.92 182.13 L 359.96 196.99 L 359.98 215.99 L 359.98 216.98 L 359.96 222.72 L 359.97 235.57 L 359.98 247.58 L 359.98 248.33 L 359.96 254.30 L 359.97 263.95 L 359.98 268.27 L 359.98 270.81 L 360.00 279.60 L 360.00 279.60 L 359.99 285.51 L 359.96 293.93 L 359.95 299.74 L 337.14 299.72 L 318.73 299.91 L 314.20 299.91 L 297.06 299.91 L 297.05 299.91 L 250.10 299.93 L 248.72 299.93 L 243.39 299.90 L 215.68 299.78 L 192.17 299.67 L 189.62 299.65 L 161.30 299.75 L 144.23 299.81 L 103.14 299.78 L 92.83 299.76 L 68.95 299.91 L 54.28 299.94 L 51.83 299.95 L 48.07 299.96 L 26.57 300.00 L 0.52 299.92 L 0.53 286.88 L 0.53 281.27 L 0.57 270.74 L 0.57 270.01 L 0.52 248.34 L 0.50 230.46 L 0.58 222.00 L 0.68 211.28 L 0.66 198.85 L 0.66 196.03 L 0.66 193.30 L 0.63 180.80 L 0.59 171.27 L 0.55 161.67 L 0.53 150.34 L 0.50 146.48 L 0.43 139.73 L 0.40 126.36 L 0.41 121.26 L 0.09 113.51 L 0.08 111.39 L 0.07 108.35 L 0.00 101.09 Z" fill="none" stroke="currentColor" stroke-width="2" opacity="0.8" class="state-boundary" transform="translate(0.00, -26.96)"/>
  <circle cx="320.53" cy="265.65" r="12.0" fill="currentColor" opacity="0.2" class="metro-pulse rank-1"/>
  <circle cx="320.53" cy="265.65" r="8.0" fill="currentColor" opacity="0.9" class="metro-dot rank-1" data-city="Cheyenne" data-rank="1"/>
  <circle cx="243.18" cy="177.76" r="10.8" fill="currentColor" opacity="0.2" class="metro-pulse rank-2"/>
  <circle cx="243.18" cy="177.76" r="6.8" fill="currentColor" opacity="0.9" class="metro-dot rank-2" data-city="Casper" data-rank="2"/>
  <circle cx="15.14" cy="145.39" r="9.6" fill="currentColor" opacity="0.2" class="metro-pulse rank-3"/>
  <circle cx="15.14" cy="145.39" r="5.6" fill="currentColor" opacity="0.9" class="metro-dot rank-3" data-city="Jackson" data-rank="3"/>
</svg>